<svg width="375" height="812" viewBox="0 0 375 812" fill="none" xmlns="http://www.w3.org/2000/svg">
<g clip-path="url(#clip0_1127_88765)">
<rect width="375" height="812" fill="url(#paint0_linear_1127_88765)"/>
<circle opacity="0.64" cx="188" cy="337" r="107.5" stroke="#585279"/>
<circle opacity="0.39" cx="188" cy="337" r="264.5" stroke="#514B73"/>
<circle opacity="0.41" cx="188" cy="337" r="177" stroke="#4E486F"/>
<g filter="url(#filter0_d_1127_88765)">
<circle r="2.5" transform="matrix(1 0 0 -1 232.5 52.5)" fill="#FFC9D7"/>
</g>
<g filter="url(#filter1_d_1127_88765)">
<circle r="4" transform="matrix(1 0 0 -1 176 85)" fill="#A6BBFE"/>
</g>
<g filter="url(#filter2_d_1127_88765)">
<circle cx="358" cy="251" r="3" fill="#C7E8F2"/>
</g>
<g filter="url(#filter3_d_1127_88765)">
<circle cx="33" cy="533" r="9" fill="#C7E8F2"/>
</g>
<g filter="url(#filter4_d_1127_88765)">
<circle cx="131.5" cy="442.5" r="1.5" fill="#C7E8F2"/>
</g>
<g filter="url(#filter5_d_1127_88765)">
<circle cx="323" cy="533" r="5" fill="#FFE177"/>
</g>
<g filter="url(#filter6_d_1127_88765)">
<circle cx="28" cy="136" r="10" fill="#FFC9D7"/>
</g>
<g filter="url(#filter7_d_1127_88765)">
<circle cx="366" cy="356" r="5" fill="#FFC9D7"/>
</g>
<g filter="url(#filter8_d_1127_88765)">
<circle cx="118" cy="233" r="3" fill="#FFE177"/>
</g>
<g filter="url(#filter9_d_1127_88765)">
<circle cx="348.5" cy="84.5" r="1.5" fill="#FFE177"/>
</g>
<g filter="url(#filter10_d_1127_88765)">
<circle cx="72.5" cy="86.5" r="1.5" fill="#FFE177"/>
</g>
<g filter="url(#filter11_d_1127_88765)">
<circle cx="21" cy="440" r="5" fill="#A6BBFE"/>
</g>
<g filter="url(#filter12_d_1127_88765)">
<circle r="8" transform="matrix(1 0 0 -1 230 129)" fill="#E3C1FF"/>
</g>
<g filter="url(#filter13_d_1127_88765)">
<circle r="5" transform="matrix(1 0 0 -1 356 109)" fill="#FFB077"/>
</g>
<g filter="url(#filter14_d_1127_88765)">
<circle cx="292" cy="372" r="16" fill="#FFE177"/>
</g>
<g filter="url(#filter15_d_1127_88765)">
<circle cx="91" cy="525" r="4" fill="#FFE177"/>
</g>
<g filter="url(#filter16_d_1127_88765)">
<circle cx="270.5" cy="496.5" r="2.5" fill="#C7E8F2"/>
</g>
<rect width="375" height="812" fill="url(#paint1_linear_1127_88765)"/>
<g filter="url(#filter17_d_1127_88765)">
<path d="M326 238C342.016 238 355 225.016 355 209C355 192.984 342.016 180 326 180C309.984 180 297 192.984 297 209C297 225.016 309.984 238 326 238Z" fill="#FFC9D7"/>
<path d="M326 239C342.569 239 356 225.569 356 209C356 192.431 342.569 179 326 179C309.431 179 296 192.431 296 209C296 225.569 309.431 239 326 239Z" stroke="white" stroke-width="2"/>
</g>
<path d="M337.987 231.852C336.092 230.344 334.159 229.3 332.399 228.565C333.173 229.861 333.965 231.175 333.482 232.741C333.057 234.095 331.839 235.119 330.524 235.564C329.635 235.873 328.687 235.97 327.74 235.989C326.677 236.009 325.633 235.951 324.589 235.777C321.012 235.216 315.927 233.418 315.405 229.242C315.289 228.314 315.425 227.347 315.792 226.477C315.927 226.149 316.101 225.801 316.314 225.511C316.488 225.472 316.681 225.433 316.855 225.395C315.212 225.723 313.182 226.323 310.997 227.367C309.122 228.275 307.575 229.3 306.319 230.305C311.481 235.081 318.402 238 326 238C331.278 238 336.208 236.589 340.461 234.133C339.765 233.379 338.934 232.606 337.987 231.852Z" fill="#718D63"/>
<path d="M315.792 226.458C315.425 227.328 315.289 228.276 315.405 229.223C315.927 233.418 321.031 235.197 324.589 235.758C325.633 235.932 326.696 235.99 327.74 235.97C328.687 235.951 329.635 235.854 330.524 235.545C331.839 235.1 333.057 234.095 333.482 232.722C333.965 231.176 333.173 229.842 332.399 228.546C331.974 228.372 331.568 228.218 331.162 228.063C331.027 228.024 330.891 227.966 330.756 227.928C330.756 227.947 330.756 227.966 330.756 227.986C330.756 228.005 330.756 228.024 330.756 228.024C330.756 228.121 330.756 228.218 330.756 228.295C330.756 228.334 330.756 228.372 330.756 228.411C330.756 228.527 330.775 228.643 330.775 228.759C330.775 228.798 330.775 228.817 330.775 228.856C330.795 228.952 330.795 229.068 330.814 229.165C330.814 229.184 330.814 229.204 330.814 229.223C330.833 229.339 330.853 229.455 330.872 229.571C330.872 229.59 330.891 229.629 330.891 229.648C330.911 229.764 330.949 229.9 330.969 230.016C331.162 230.712 331.471 231.524 331.007 232.181C330.64 232.703 329.886 232.954 329.287 233.09C326.599 233.689 323.931 233.109 321.476 231.949C319.369 230.944 316.855 229.242 317.223 226.594C317.242 226.516 317.242 226.42 317.261 226.342C317.281 226.265 317.281 226.168 317.3 226.091C317.3 226.052 317.319 225.994 317.319 225.956C317.339 225.801 317.358 225.646 317.358 225.492C317.358 225.472 317.358 225.472 317.358 225.453C317.358 225.395 317.377 225.337 317.377 225.26V225.24C317.223 225.279 317.049 225.298 316.875 225.337C316.855 225.337 316.836 225.337 316.817 225.356C316.643 225.395 316.469 225.434 316.275 225.472C316.101 225.801 315.927 226.13 315.792 226.458Z" fill="#B66023"/>
<path d="M316.72 215.053C316.565 214.376 316.507 213.545 316.469 213.158C316.333 211.65 316.488 211.496 316.333 210.548C316.314 210.432 316.295 210.316 316.275 210.181C316.275 210.162 316.275 210.123 316.256 210.104C316.256 210.065 316.237 210.046 316.237 210.007C316.082 209.234 315.831 208.402 315.135 207.958C314.632 207.648 314.052 207.668 313.646 207.726C313.627 207.726 313.627 207.726 313.607 207.726C313.549 207.726 313.511 207.745 313.472 207.745C313.279 207.784 312.641 207.919 312.138 208.383C311.036 209.446 311.403 211.573 311.964 212.83C312.95 215.072 315.347 216.078 316.488 218.166C317.745 220.447 317.59 224.101 317.242 226.595C316.875 229.244 319.369 230.964 321.495 231.95C323.951 233.11 326.619 233.69 329.306 233.091C329.905 232.956 330.64 232.724 331.027 232.182C331.491 231.525 331.181 230.713 330.988 230.017C330.64 228.683 330.756 227.214 330.756 225.783C328.146 225.822 325.594 224.623 323.409 223.289C320.393 221.51 317.513 218.649 316.72 215.053Z" fill="#FEE4BF"/>
<path d="M323.41 223.347C322.482 222.786 321.573 222.109 320.722 221.355C321.186 222.225 321.96 223.327 323.139 224.333C326.116 226.865 329.635 226.923 330.756 226.885C330.756 226.537 330.776 226.189 330.776 225.841C328.146 225.879 325.594 224.681 323.41 223.347Z" fill="#E4C393"/>
<path d="M341.39 202.95C340.887 199.064 338.335 195.68 334.778 194.056C328.34 191.118 320.046 192.858 316.005 198.484C313.414 202.099 313.395 206.12 313.492 207.783C313.53 207.783 313.588 207.764 313.627 207.764C313.646 207.764 313.646 207.764 313.666 207.764C314.014 207.706 314.613 207.667 315.154 207.996C315.85 208.421 316.102 209.233 316.256 210.045C316.256 210.084 316.276 210.103 316.276 210.142C316.276 210.161 316.276 210.2 316.295 210.219C316.314 210.335 316.334 210.47 316.353 210.586C316.508 211.534 316.353 211.688 316.488 213.196C316.527 213.583 316.585 214.414 316.74 215.091C317.532 218.687 320.413 221.548 323.429 223.385C325.614 224.719 328.166 225.918 330.776 225.879C331.201 225.879 331.626 225.84 332.052 225.763C334.739 225.28 337.194 223.752 338.896 221.626C339.998 220.234 340.442 218.996 340.597 217.256C340.771 215.265 340.674 213.254 340.945 211.263C341.293 208.479 341.738 205.714 341.39 202.95Z" fill="#FEE4BF"/>
<path d="M338.064 215.999C337.793 217.391 338.992 218.629 340.287 218.88C340.423 218.358 340.519 217.817 340.577 217.198C340.655 216.193 340.693 215.187 340.713 214.182C339.514 214.163 338.335 214.723 338.064 215.999Z" fill="#FBC4B9"/>
<path d="M322.23 215.863C322.307 217.294 323.835 218.203 325.169 218.087C326.464 217.99 327.74 216.791 327.682 215.457C327.682 215.322 327.663 215.206 327.624 215.071C326.986 212.325 322.075 213.079 322.23 215.863Z" fill="#FBC4B9"/>
<path d="M336.15 216.384C336.44 215.997 336.247 215.437 336.131 215.069C336.111 215.011 335.763 214.064 335.222 214.103C334.797 214.141 334.487 214.663 334.352 215.069C334.197 215.553 334.062 215.978 334.275 216.307C334.603 216.848 335.744 216.906 336.15 216.384Z" fill="#EFBDA5"/>
<path d="M338.818 210.624C339.03 210.605 339.243 210.643 339.436 210.74C340.036 211.03 340.268 211.61 340.016 212.229C339.842 212.673 339.475 213.079 338.992 213.137C338.644 213.176 338.296 213.079 338.006 212.905C337.368 212.499 337.522 211.61 337.948 211.107C338.025 211.03 338.102 210.953 338.18 210.875C338.373 210.721 338.605 210.624 338.818 210.624Z" fill="#2A1200"/>
<path d="M331.607 212.537C331.181 213.349 329.983 213.291 329.287 212.905C328.591 212.518 328.146 211.493 328.726 210.817C329.209 210.256 329.944 210.101 330.621 210.391C331.471 210.739 331.974 211.841 331.607 212.537Z" fill="#2A1200"/>
<path d="M338.547 207.201H338.528C338.412 207.143 338.605 206.988 338.644 206.969C338.779 206.892 338.934 206.853 339.069 206.814C339.436 206.737 339.881 206.756 340.19 206.988C340.616 207.278 340.79 207.858 340.77 207.878C340.77 207.878 340.751 207.878 340.732 207.858C340.732 207.858 340.596 207.646 340.384 207.472C339.9 207.085 339.127 207.124 338.547 207.201Z" fill="#2A1200"/>
<path d="M327.914 207.472C327.894 207.472 327.875 207.472 327.836 207.472C327.817 207.453 327.836 207.434 327.836 207.414C327.914 207.279 328.01 207.144 328.126 207.028C329.016 206.061 330.504 205.79 331.568 206.66C331.78 206.834 331.452 206.815 331.355 206.796C330.756 206.622 330.098 206.564 329.48 206.68C329.17 206.738 328.88 206.854 328.59 207.008C328.455 207.086 328.32 207.163 328.204 207.26C328.126 207.318 328.03 207.434 327.914 207.472Z" fill="#2A1200"/>
<path d="M335.492 219.904C335.376 219.923 335.241 219.942 335.106 219.962C335.106 220.078 335.086 220.194 335.028 220.31C334.758 220.832 333.791 220.812 333.037 220.754C333.656 221.238 334.062 221.76 334.352 222.166C334.661 222.011 334.912 221.818 335.125 221.605H335.106H335.125C335.512 221.199 335.782 220.735 335.879 220.329C335.937 220.078 335.724 219.846 335.492 219.904Z" fill="#873C41"/>
<path d="M333.037 220.735C332.882 220.716 332.747 220.696 332.631 220.696C332.07 220.638 331.316 220.484 330.427 220.097C330.04 219.923 329.634 219.73 329.209 219.459C329.17 220.078 329.538 220.87 330.021 221.392C330.234 221.605 330.446 221.76 330.62 221.876C330.62 221.876 330.62 221.876 330.64 221.876C330.659 221.876 330.659 221.895 330.678 221.895C331.026 222.127 331.432 222.301 331.858 222.378C332.902 222.591 333.733 222.456 334.352 222.127C334.081 221.74 333.656 221.218 333.037 220.735Z" fill="#EE7E8B"/>
<path d="M332.631 220.696C332.747 220.716 332.902 220.735 333.037 220.735C333.772 220.812 334.739 220.832 335.029 220.29C335.087 220.194 335.106 220.078 335.106 219.942C334.932 219.962 334.739 219.981 334.545 219.962C332.322 219.904 330.911 218.028 329.731 218.589C329.538 218.686 329.403 218.84 329.403 218.84C329.287 218.995 329.229 219.208 329.209 219.42C329.635 219.691 330.041 219.904 330.427 220.058C331.317 220.484 332.071 220.619 332.631 220.696Z" fill="white"/>
<path d="M345.565 194.887C344.212 193.147 342.337 192.644 341.679 192.489C341.641 192.006 341.447 190.962 340.635 190.131C339.456 188.913 337.407 188.642 335.531 189.473C334.062 186.361 331.046 184.369 327.817 184.389C324.144 184.427 321.863 187.057 321.515 187.482C321.341 187.231 320.529 186.071 319.195 185.916C317.59 185.723 315.811 187.037 315.27 189.183C311.964 189.009 308.89 190.691 307.498 193.456C305.913 196.588 307.169 199.681 307.363 200.145C306.995 200.377 306.029 201.093 305.623 202.388C304.888 204.708 306.628 206.661 306.725 206.757C305.584 208.787 305.681 211.262 306.976 213.118C308.755 215.67 311.829 215.631 312.061 215.631C312.119 215.863 312.505 217.449 313.994 218.145C314.98 218.609 316.333 218.628 316.488 218.203C316.643 217.816 315.483 216.946 313.433 214.897C312.66 214.123 312.273 213.601 311.964 212.867C311.249 211.185 311.751 209.406 312.138 208.42C312.177 208.478 312.699 209.309 313.665 209.348C314.419 209.387 315.135 208.923 315.463 208.188C315.463 210.083 316.662 211.591 317.977 211.784C319.581 212.035 321.631 210.373 321.573 207.859C322.713 208.497 323.641 208.536 324.144 208.497C326.445 208.343 328.571 206.216 329.345 203.161C329.77 203.529 332.245 205.636 335.396 205.095C336.363 204.921 337.155 204.553 337.716 204.186C338.006 204.534 338.373 204.901 338.818 205.288C339.765 206.081 340.693 206.583 341.428 206.873C341.312 208.323 341.099 209.754 340.925 211.185C340.751 212.519 340.732 213.853 340.693 215.187C340.887 215.051 341.331 214.723 341.583 214.085C341.873 213.389 341.757 212.751 341.718 212.538C342.008 212.557 343.574 212.615 344.618 211.513C345.797 210.257 345.875 208.014 344.56 206.235C345.295 205.288 346.996 202.852 346.957 199.507C346.919 198.425 346.899 196.588 345.565 194.887Z" fill="#883F0E"/>
<path d="M339.379 208.516C339.147 208.516 338.895 208.535 338.663 208.593C338.431 208.632 338.219 208.709 338.006 208.806C337.793 208.903 337.6 209.019 337.407 209.135C337.213 209.27 337.039 209.405 336.885 209.579C336.73 209.753 336.575 209.927 336.459 210.121C336.324 210.314 336.227 210.527 336.131 210.739C336.092 210.817 336.073 210.894 336.053 210.971C336.034 211.01 336.034 211.049 336.015 211.087C335.995 211.126 335.995 211.184 335.976 211.223C335.899 211.358 335.744 211.261 335.628 211.242C335.512 211.203 335.377 211.184 335.241 211.184C335.203 211.184 335.164 211.184 335.125 211.184C334.874 211.184 334.623 211.223 334.371 211.3C334.236 211.339 334.081 211.261 334.062 211.126C333.695 209.231 331.935 207.781 329.828 207.781C327.45 207.781 325.536 209.599 325.536 211.841C325.536 214.084 327.469 215.901 329.828 215.901C331.877 215.901 333.598 214.529 334.023 212.711C334.062 212.557 334.159 212.402 334.294 212.325C334.7 212.073 335.261 212.093 335.609 212.247C335.841 212.344 335.86 212.537 335.899 212.769C336.189 214.471 337.639 215.766 339.379 215.766C341.331 215.766 342.917 214.142 342.917 212.151C342.917 210.14 341.331 208.516 339.379 208.516ZM329.809 214.915C327.972 214.915 326.483 213.523 326.483 211.822C326.483 210.121 327.972 208.729 329.809 208.729C331.645 208.729 333.134 210.121 333.134 211.822C333.134 213.523 331.645 214.915 329.809 214.915ZM339.379 214.78C337.967 214.78 336.807 213.601 336.807 212.131C336.807 210.662 337.967 209.483 339.379 209.483C340.79 209.483 341.95 210.662 341.95 212.131C341.95 213.601 340.79 214.78 339.379 214.78Z" fill="#2A1200"/>
<g filter="url(#filter18_d_1127_88765)">
<path d="M160.5 159C172.926 159 183 148.926 183 136.5C183 124.074 172.926 114 160.5 114C148.074 114 138 124.074 138 136.5C138 148.926 148.074 159 160.5 159Z" fill="#C7E8F2"/>
<path d="M160.5 160C173.479 160 184 149.479 184 136.5C184 123.521 173.479 113 160.5 113C147.521 113 137 123.521 137 136.5C137 149.479 147.521 160 160.5 160Z" stroke="white" stroke-width="2"/>
</g>
<path d="M169.8 154.229C168.33 153.059 166.83 152.249 165.465 151.679C166.065 152.684 166.68 153.704 166.305 154.919C165.975 155.969 165.03 156.764 164.01 157.109C163.32 157.349 162.585 157.424 161.85 157.439C161.025 157.454 160.215 157.409 159.405 157.274C156.63 156.839 152.685 155.444 152.28 152.204C152.19 151.484 152.295 150.734 152.58 150.059C152.685 149.804 152.82 149.534 152.985 149.309C153.12 149.279 153.27 149.249 153.405 149.219C152.13 149.474 150.555 149.939 148.86 150.749C147.405 151.454 146.205 152.249 145.23 153.029C149.235 156.734 154.605 158.999 160.5 158.999C164.595 158.999 168.42 157.904 171.72 155.999C171.18 155.414 170.535 154.814 169.8 154.229Z" fill="#9154C1"/>
<path d="M152.58 150.045C152.295 150.72 152.19 151.455 152.28 152.19C152.685 155.445 156.645 156.825 159.405 157.26C160.215 157.395 161.04 157.44 161.85 157.425C162.585 157.41 163.32 157.335 164.01 157.095C165.03 156.75 165.975 155.97 166.305 154.905C166.68 153.705 166.065 152.67 165.465 151.665C165.135 151.53 164.82 151.41 164.505 151.29C164.4 151.26 164.295 151.215 164.19 151.185C164.19 151.2 164.19 151.215 164.19 151.23C164.19 151.245 164.19 151.26 164.19 151.26C164.19 151.335 164.19 151.41 164.19 151.47C164.19 151.5 164.19 151.53 164.19 151.56C164.19 151.65 164.205 151.74 164.205 151.83C164.205 151.86 164.205 151.875 164.205 151.905C164.22 151.98 164.22 152.07 164.235 152.145C164.235 152.16 164.235 152.175 164.235 152.19C164.25 152.28 164.265 152.37 164.28 152.46C164.28 152.475 164.295 152.505 164.295 152.52C164.31 152.61 164.34 152.715 164.355 152.805C164.505 153.345 164.745 153.975 164.385 154.485C164.1 154.89 163.515 155.085 163.05 155.19C160.965 155.655 158.895 155.205 156.99 154.305C155.355 153.525 153.405 152.205 153.69 150.15C153.705 150.09 153.705 150.015 153.72 149.955C153.735 149.895 153.735 149.82 153.75 149.76C153.75 149.73 153.765 149.685 153.765 149.655C153.78 149.535 153.795 149.415 153.795 149.295C153.795 149.28 153.795 149.28 153.795 149.265C153.795 149.22 153.81 149.175 153.81 149.115V149.1C153.69 149.13 153.555 149.145 153.42 149.175C153.405 149.175 153.39 149.175 153.375 149.19C153.24 149.22 153.105 149.25 152.955 149.28C152.82 149.535 152.685 149.79 152.58 150.045Z" fill="#6C2E9C"/>
<path d="M153.3 141.194C153.18 140.669 153.135 140.024 153.105 139.724C153 138.554 153.12 138.434 153 137.699C152.985 137.609 152.97 137.519 152.955 137.414C152.955 137.399 152.955 137.369 152.94 137.354C152.94 137.324 152.925 137.309 152.925 137.279C152.805 136.679 152.61 136.034 152.07 135.689C151.68 135.449 151.23 135.464 150.915 135.509C150.9 135.509 150.9 135.509 150.885 135.509C150.84 135.509 150.81 135.524 150.78 135.524C150.63 135.554 150.135 135.659 149.745 136.019C148.89 136.844 149.175 138.494 149.61 139.469C150.375 141.209 152.235 141.989 153.12 143.609C154.095 145.379 153.975 148.214 153.705 150.149C153.42 152.204 155.355 153.539 157.005 154.304C158.91 155.204 160.98 155.654 163.065 155.189C163.53 155.084 164.1 154.904 164.4 154.484C164.76 153.974 164.52 153.344 164.37 152.804C164.1 151.769 164.19 150.629 164.19 149.519C162.165 149.549 160.185 148.619 158.49 147.584C156.15 146.204 153.915 143.984 153.3 141.194Z" fill="#FEE4BF"/>
<path d="M158.49 147.629C157.77 147.194 157.065 146.669 156.405 146.084C156.765 146.759 157.365 147.614 158.28 148.394C160.59 150.359 163.32 150.404 164.19 150.374C164.19 150.104 164.205 149.834 164.205 149.564C162.165 149.594 160.185 148.664 158.49 147.629Z" fill="#E4C393"/>
<path d="M172.44 131.804C172.05 128.789 170.07 126.164 167.31 124.904C162.315 122.624 155.88 123.974 152.745 128.339C150.735 131.144 150.72 134.264 150.795 135.554C150.825 135.554 150.87 135.539 150.9 135.539C150.915 135.539 150.915 135.539 150.93 135.539C151.2 135.494 151.665 135.464 152.085 135.719C152.625 136.049 152.82 136.679 152.94 137.309C152.94 137.339 152.955 137.354 152.955 137.384C152.955 137.399 152.955 137.429 152.97 137.444C152.985 137.534 153 137.639 153.015 137.729C153.135 138.464 153.015 138.584 153.12 139.754C153.15 140.054 153.195 140.699 153.315 141.224C153.93 144.014 156.165 146.234 158.505 147.659C160.2 148.694 162.18 149.624 164.205 149.594C164.535 149.594 164.865 149.564 165.195 149.504C167.28 149.129 169.185 147.944 170.505 146.294C171.36 145.214 171.705 144.254 171.825 142.904C171.96 141.359 171.885 139.799 172.095 138.254C172.365 136.094 172.71 133.949 172.44 131.804Z" fill="#FEE4BF"/>
<path d="M169.86 141.93C169.65 143.01 170.58 143.97 171.585 144.165C171.69 143.76 171.765 143.34 171.81 142.86C171.87 142.08 171.9 141.3 171.915 140.52C170.985 140.505 170.07 140.94 169.86 141.93Z" fill="#FBC4B9"/>
<path d="M157.575 141.824C157.635 142.934 158.82 143.639 159.855 143.549C160.86 143.474 161.85 142.544 161.805 141.509C161.805 141.404 161.79 141.314 161.76 141.209C161.265 139.079 157.455 139.664 157.575 141.824Z" fill="#FBC4B9"/>
<path d="M168.375 142.23C168.6 141.93 168.45 141.495 168.36 141.21C168.345 141.165 168.075 140.43 167.655 140.46C167.325 140.49 167.085 140.895 166.98 141.21C166.86 141.585 166.755 141.915 166.92 142.17C167.175 142.59 168.06 142.635 168.375 142.23Z" fill="#EFBDA5"/>
<path d="M170.445 137.76C170.61 137.745 170.775 137.775 170.925 137.85C171.39 138.075 171.57 138.525 171.375 139.005C171.24 139.35 170.955 139.665 170.58 139.71C170.31 139.74 170.04 139.665 169.815 139.53C169.32 139.215 169.44 138.525 169.77 138.135C169.83 138.075 169.89 138.015 169.95 137.955C170.1 137.835 170.28 137.76 170.445 137.76Z" fill="#2A1200"/>
<path d="M164.85 139.245C164.52 139.875 163.59 139.83 163.05 139.53C162.51 139.23 162.165 138.435 162.615 137.91C162.99 137.475 163.56 137.355 164.085 137.58C164.745 137.85 165.135 138.705 164.85 139.245Z" fill="#2A1200"/>
<path d="M170.235 135.105H170.22C170.13 135.06 170.28 134.94 170.31 134.925C170.415 134.865 170.535 134.835 170.64 134.805C170.925 134.745 171.27 134.76 171.51 134.94C171.84 135.165 171.975 135.615 171.96 135.63C171.96 135.63 171.945 135.63 171.93 135.615C171.93 135.615 171.825 135.45 171.66 135.315C171.285 135.015 170.685 135.045 170.235 135.105Z" fill="#2A1200"/>
<path d="M161.985 135.315C161.97 135.315 161.955 135.315 161.925 135.315C161.91 135.3 161.925 135.285 161.925 135.27C161.985 135.165 162.06 135.06 162.15 134.97C162.84 134.22 163.995 134.01 164.82 134.685C164.985 134.82 164.73 134.805 164.655 134.79C164.19 134.655 163.68 134.61 163.2 134.7C162.96 134.745 162.735 134.835 162.51 134.955C162.405 135.015 162.3 135.075 162.21 135.15C162.15 135.195 162.075 135.285 161.985 135.315Z" fill="#2A1200"/>
<path d="M167.865 144.96C167.775 144.975 167.67 144.99 167.565 145.005C167.565 145.095 167.55 145.185 167.505 145.275C167.295 145.68 166.545 145.665 165.96 145.62C166.44 145.995 166.755 146.4 166.98 146.715C167.22 146.595 167.415 146.445 167.58 146.28H167.565H167.58C167.88 145.965 168.09 145.605 168.165 145.29C168.21 145.095 168.045 144.915 167.865 144.96Z" fill="#873C41"/>
<path d="M165.96 145.605C165.84 145.59 165.735 145.575 165.645 145.575C165.21 145.53 164.625 145.41 163.935 145.11C163.635 144.975 163.32 144.825 162.99 144.615C162.96 145.095 163.245 145.71 163.62 146.115C163.785 146.28 163.95 146.4 164.085 146.49C164.085 146.49 164.085 146.49 164.1 146.49C164.115 146.49 164.115 146.505 164.13 146.505C164.4 146.685 164.715 146.82 165.045 146.88C165.855 147.045 166.5 146.94 166.98 146.685C166.77 146.385 166.44 145.98 165.96 145.605Z" fill="#EE7E8B"/>
<path d="M165.645 145.575C165.735 145.59 165.855 145.605 165.96 145.605C166.53 145.665 167.28 145.68 167.505 145.26C167.55 145.185 167.565 145.095 167.565 144.99C167.43 145.005 167.28 145.02 167.13 145.005C165.405 144.96 164.31 143.505 163.395 143.94C163.245 144.015 163.14 144.135 163.14 144.135C163.05 144.255 163.005 144.42 162.99 144.585C163.32 144.795 163.635 144.96 163.935 145.08C164.625 145.41 165.21 145.515 165.645 145.575Z" fill="white"/>
<path d="M174.375 126.241C173.82 125.536 173.205 125.401 171.795 124.861C169.785 124.081 167.985 122.881 165.975 122.116C163.74 121.261 161.31 120.796 158.925 121.111C158.43 121.171 155.07 121.636 152.49 123.916C152.19 124.186 151.965 124.411 151.815 124.561C150.18 126.226 149.43 128.011 149.07 129.046C148.605 129.421 147.96 130.066 147.435 131.011C147.375 131.131 147.225 131.371 147.135 131.641C146.73 132.691 146.73 133.861 146.925 134.956C147.345 137.401 148.335 139.186 148.92 139.981C149.685 141.031 150.45 141.676 151.11 142.231C151.725 142.756 152.88 143.641 153.03 143.491C153.09 143.431 153 143.161 152.235 142.201C151.68 141.841 149.445 140.371 149.22 138.136C149.175 137.656 149.085 136.741 149.685 136.156C150.03 135.826 150.51 135.691 150.99 135.706C151.77 135.721 152.535 136.171 152.955 136.831C153.45 137.611 153.555 138.346 154.41 138.826C154.875 139.096 155.85 139.471 156.33 139.006C156.51 138.826 156.66 138.661 156.72 137.491C156.795 136.141 156.63 135.931 157.08 135.301C157.695 134.446 158.19 134.686 158.97 134.221C160.155 133.531 159.855 132.556 160.92 131.746C161.655 131.191 162.435 131.071 162.78 131.011C165.465 130.591 166.56 133.306 169.635 133.411C170.67 133.441 171.66 133.261 172.53 132.841C172.575 134.056 172.47 135.271 172.32 136.486C172.41 136.396 172.53 136.276 172.65 136.126C172.785 135.976 173.355 135.286 173.685 134.161C173.88 133.501 174.135 132.706 173.94 131.806C174.12 131.626 174.315 131.386 174.495 131.101C175.41 129.601 175.365 127.501 174.375 126.241Z" fill="#291505"/>
<g filter="url(#filter19_d_1127_88765)">
<path d="M63 482C74.598 482 84 472.598 84 461C84 449.402 74.598 440 63 440C51.402 440 42 449.402 42 461C42 472.598 51.402 482 63 482Z" fill="#FFB077"/>
<path d="M63 483C75.1503 483 85 473.15 85 461C85 448.85 75.1503 439 63 439C50.8497 439 41 448.85 41 461C41 473.15 50.8497 483 63 483Z" stroke="white" stroke-width="2"/>
</g>
<path d="M71.6801 477.547C70.3081 476.455 68.9081 475.699 67.6341 475.167C68.1941 476.105 68.7681 477.057 68.4181 478.191C68.1101 479.171 67.2281 479.913 66.2761 480.235C65.6321 480.459 64.9461 480.529 64.2601 480.543C63.4901 480.557 62.7341 480.515 61.9781 480.389C59.3881 479.983 55.706 478.681 55.328 475.657C55.2441 474.985 55.3421 474.285 55.608 473.655C55.706 473.417 55.8321 473.165 55.9861 472.955C56.1121 472.927 56.2521 472.899 56.3781 472.871C55.188 473.109 53.718 473.543 52.136 474.299C50.778 474.957 49.658 475.699 48.748 476.427C52.486 479.885 57.4981 481.999 63.0001 481.999C66.8221 481.999 70.3921 480.977 73.4721 479.199C72.9681 478.653 72.3661 478.093 71.6801 477.547Z" fill="#5470AD"/>
<path d="M55.6081 473.642C55.3421 474.272 55.2441 474.958 55.3281 475.644C55.7061 478.682 59.4021 479.97 61.9781 480.376C62.7341 480.502 63.5041 480.544 64.2601 480.53C64.9461 480.516 65.6321 480.446 66.2761 480.222C67.2281 479.9 68.1101 479.172 68.4181 478.178C68.7681 477.058 68.1941 476.092 67.6341 475.154C67.3261 475.028 67.0321 474.916 66.7381 474.804C66.6401 474.776 66.5421 474.734 66.4441 474.706C66.4441 474.72 66.4441 474.734 66.4441 474.748C66.4441 474.762 66.4441 474.776 66.4441 474.776C66.4441 474.846 66.4441 474.916 66.4441 474.972C66.4441 475 66.4441 475.028 66.4441 475.056C66.4441 475.14 66.4581 475.224 66.4581 475.308C66.4581 475.336 66.4581 475.35 66.4581 475.378C66.4721 475.448 66.4721 475.532 66.4861 475.602C66.4861 475.616 66.4861 475.63 66.4861 475.644C66.5001 475.728 66.5141 475.812 66.5281 475.896C66.5281 475.91 66.5421 475.938 66.5421 475.952C66.5561 476.036 66.5841 476.134 66.5981 476.218C66.7381 476.722 66.9621 477.31 66.6261 477.786C66.3601 478.164 65.8141 478.346 65.3801 478.444C63.4341 478.878 61.5021 478.458 59.7241 477.618C58.1981 476.89 56.3781 475.658 56.6441 473.74C56.6581 473.684 56.6581 473.614 56.6721 473.558C56.6861 473.502 56.6861 473.432 56.7001 473.376C56.7001 473.348 56.7141 473.306 56.7141 473.278C56.7281 473.166 56.7421 473.054 56.7421 472.942C56.7421 472.928 56.7421 472.928 56.7421 472.914C56.7421 472.872 56.7561 472.83 56.7561 472.774V472.76C56.6441 472.788 56.5181 472.802 56.3921 472.83C56.3781 472.83 56.3641 472.83 56.3501 472.844C56.2241 472.872 56.0981 472.9 55.9581 472.928C55.8321 473.166 55.7061 473.404 55.6081 473.642Z" fill="#35476F"/>
<path d="M56.2798 465.382C56.1678 464.892 56.1258 464.29 56.0978 464.01C55.9998 462.918 56.1118 462.806 55.9998 462.12C55.9858 462.036 55.9718 461.952 55.9578 461.854C55.9578 461.84 55.9578 461.812 55.9438 461.798C55.9438 461.77 55.9298 461.756 55.9298 461.728C55.8178 461.168 55.6358 460.566 55.1318 460.244C54.7678 460.02 54.3478 460.034 54.0538 460.076C54.0398 460.076 54.0398 460.076 54.0258 460.076C53.9838 460.076 53.9558 460.09 53.9278 460.09C53.7878 460.118 53.3258 460.216 52.9618 460.552C52.1638 461.322 52.4298 462.862 52.8358 463.772C53.5498 465.396 55.2858 466.124 56.1118 467.636C57.0218 469.288 56.9098 471.934 56.6578 473.74C56.3918 475.658 58.1978 476.904 59.7378 477.618C61.5158 478.458 63.4478 478.878 65.3938 478.444C65.8278 478.346 66.3598 478.178 66.6398 477.786C66.9758 477.31 66.7518 476.722 66.6118 476.218C66.3598 475.252 66.4438 474.188 66.4438 473.152C64.5538 473.18 62.7058 472.312 61.1238 471.346C58.9398 470.058 56.8538 467.986 56.2798 465.382Z" fill="#836055"/>
<path d="M61.1237 471.387C60.4517 470.981 59.7937 470.491 59.1777 469.945C59.5137 470.575 60.0737 471.373 60.9277 472.101C63.0837 473.935 65.6317 473.977 66.4437 473.949C66.4437 473.697 66.4577 473.445 66.4577 473.193C64.5537 473.221 62.7057 472.353 61.1237 471.387Z" fill="#68463C"/>
<path d="M74.1438 456.617C73.7798 453.803 71.9318 451.353 69.3558 450.177C64.6938 448.049 58.6878 449.309 55.7618 453.383C53.8858 456.001 53.8718 458.913 53.9418 460.117C53.9698 460.117 54.0118 460.103 54.0398 460.103C54.0538 460.103 54.0538 460.103 54.0678 460.103C54.3198 460.061 54.7538 460.033 55.1458 460.271C55.6498 460.579 55.8318 461.167 55.9438 461.755C55.9438 461.783 55.9578 461.797 55.9578 461.825C55.9578 461.839 55.9578 461.867 55.9718 461.881C55.9858 461.965 55.9998 462.063 56.0138 462.147C56.1258 462.833 56.0138 462.945 56.1118 464.037C56.1398 464.317 56.1818 464.919 56.2938 465.409C56.8678 468.013 58.9538 470.085 61.1378 471.415C62.7198 472.381 64.5678 473.249 66.4578 473.221C66.7658 473.221 67.0738 473.193 67.3818 473.137C69.3278 472.787 71.1058 471.681 72.3378 470.141C73.1358 469.133 73.4578 468.237 73.5698 466.977C73.6958 465.535 73.6258 464.079 73.8218 462.637C74.0738 460.621 74.3958 458.619 74.1438 456.617Z" fill="#836055"/>
<path d="M71.7364 466.068C71.5404 467.076 72.4084 467.972 73.3464 468.154C73.4444 467.776 73.5144 467.384 73.5564 466.936C73.6124 466.208 73.6404 465.48 73.6544 464.752C72.7864 464.738 71.9324 465.144 71.7364 466.068Z" fill="#C07E6B"/>
<path d="M60.2702 465.97C60.3262 467.006 61.4322 467.664 62.3982 467.58C63.3362 467.51 64.2602 466.642 64.2182 465.676C64.2182 465.578 64.2042 465.494 64.1762 465.396C63.7142 463.408 60.1582 463.954 60.2702 465.97Z" fill="#C07E6B"/>
<path d="M70.3501 466.348C70.5601 466.068 70.4201 465.662 70.3361 465.396C70.3221 465.354 70.0701 464.668 69.6781 464.696C69.3701 464.724 69.1461 465.102 69.0481 465.396C68.9361 465.746 68.8381 466.054 68.9921 466.292C69.2301 466.684 70.0561 466.726 70.3501 466.348Z" fill="#68463C"/>
<path d="M72.2821 462.175C72.4361 462.161 72.5901 462.189 72.7301 462.259C73.1641 462.469 73.3321 462.889 73.1501 463.337C73.0241 463.659 72.7581 463.953 72.4081 463.995C72.1561 464.023 71.9041 463.953 71.6941 463.827C71.2321 463.533 71.3441 462.889 71.6521 462.525C71.7081 462.469 71.7641 462.413 71.8201 462.357C71.9601 462.245 72.1281 462.175 72.2821 462.175Z" fill="#2A1200"/>
<path d="M67.0604 463.562C66.7524 464.15 65.8844 464.108 65.3804 463.828C64.8764 463.548 64.5544 462.806 64.9744 462.316C65.3244 461.91 65.8564 461.798 66.3464 462.008C66.9624 462.26 67.3264 463.058 67.0604 463.562Z" fill="#2A1200"/>
<path d="M72.0859 459.698H72.0719C71.9879 459.656 72.1279 459.544 72.1559 459.53C72.2539 459.474 72.3659 459.446 72.4639 459.418C72.7299 459.362 73.0519 459.376 73.2759 459.544C73.5839 459.754 73.7099 460.174 73.6959 460.188C73.6959 460.188 73.6819 460.188 73.6679 460.174C73.6679 460.174 73.5699 460.02 73.4159 459.894C73.0659 459.614 72.5059 459.642 72.0859 459.698Z" fill="#2A1200"/>
<path d="M64.386 459.894C64.372 459.894 64.358 459.894 64.33 459.894C64.316 459.88 64.33 459.866 64.33 459.852C64.386 459.754 64.456 459.656 64.54 459.572C65.184 458.872 66.262 458.676 67.032 459.306C67.186 459.432 66.948 459.418 66.878 459.404C66.444 459.278 65.968 459.236 65.52 459.32C65.296 459.362 65.086 459.446 64.876 459.558C64.778 459.614 64.68 459.67 64.596 459.74C64.54 459.782 64.47 459.866 64.386 459.894Z" fill="#2A1200"/>
<path d="M69.8742 468.897C69.7902 468.911 69.6922 468.925 69.5942 468.939C69.5942 469.023 69.5802 469.107 69.5382 469.191C69.3422 469.569 68.6422 469.555 68.0962 469.513C68.5442 469.863 68.8382 470.241 69.0482 470.535C69.2722 470.423 69.4542 470.283 69.6082 470.129H69.5942H69.6082C69.8882 469.835 70.0842 469.499 70.1542 469.205C70.1962 469.023 70.0422 468.855 69.8742 468.897Z" fill="#873C41"/>
<path d="M68.0963 469.498C67.9843 469.484 67.8863 469.47 67.8023 469.47C67.3963 469.428 66.8503 469.316 66.2063 469.036C65.9263 468.91 65.6323 468.77 65.3243 468.574C65.2963 469.022 65.5623 469.596 65.9123 469.974C66.0663 470.128 66.2203 470.24 66.3463 470.324C66.3463 470.324 66.3463 470.324 66.3603 470.324C66.3743 470.324 66.3743 470.338 66.3883 470.338C66.6403 470.506 66.9343 470.632 67.2423 470.688C67.9983 470.842 68.6003 470.744 69.0483 470.506C68.8523 470.226 68.5443 469.848 68.0963 469.498Z" fill="#EE7E8B"/>
<path d="M67.8022 469.471C67.8862 469.485 67.9982 469.499 68.0962 469.499C68.6282 469.555 69.3282 469.569 69.5382 469.177C69.5802 469.107 69.5942 469.023 69.5942 468.925C69.4682 468.939 69.3282 468.953 69.1882 468.939C67.5782 468.897 66.5562 467.539 65.7022 467.945C65.5622 468.015 65.4642 468.127 65.4642 468.127C65.3802 468.239 65.3382 468.393 65.3242 468.547C65.6322 468.743 65.9262 468.897 66.2062 469.009C66.8502 469.317 67.3962 469.415 67.8022 469.471Z" fill="white"/>
<path d="M73.85 453.133C72.996 451.537 71.386 450.319 70.56 449.801C68.586 448.569 66.71 448.345 65.996 448.261C65.114 448.163 59.402 447.547 55.846 452.013C54.04 454.295 53.102 457.487 53.578 460.203C53.732 460.147 53.872 460.119 53.928 460.105C53.956 460.105 53.998 460.091 54.026 460.091C54.04 460.091 54.04 460.091 54.054 460.091C54.348 460.049 54.754 460.049 55.132 460.259C55.594 460.539 55.678 460.987 55.692 461.463C55.706 461.673 55.72 461.869 55.762 462.065C55.874 462.681 56.644 463.843 57.4 463.731C57.764 463.675 57.848 463.241 57.904 462.947C57.974 462.513 57.988 462.163 58.184 461.757C58.478 461.169 58.898 460.595 59.43 460.217C59.948 459.853 60.564 459.587 60.914 459.041C61.446 458.215 61.222 457.039 61.418 456.115C61.614 455.219 62.062 454.379 62.902 453.945C63.98 453.385 65.31 453.469 66.472 453.623C66.724 453.651 66.962 453.693 67.214 453.735C68.012 453.875 68.824 454.043 69.636 454.071C70.42 454.099 71.204 453.861 71.988 453.987C72.968 454.141 73.738 454.869 73.976 455.821C73.948 455.709 73.92 455.611 73.892 455.499C73.99 455.863 74.074 456.227 74.116 456.605C74.326 458.257 74.144 459.909 73.92 461.561C73.99 461.421 74.144 460.847 74.186 460.693C74.55 459.181 74.732 458.327 74.802 456.997C74.914 455.569 74.592 454.533 73.85 453.133Z" fill="#291505"/>
<path d="M57.3582 465.761C57.0782 466.223 57.4142 467.385 58.0582 468.645C58.4502 469.401 58.9962 470.493 59.8222 471.361C62.0902 473.741 67.7742 475.421 71.1622 472.845C72.7442 471.655 73.3602 469.891 73.4162 469.709C73.9482 468.141 73.7382 466.769 73.5982 466.153C73.5982 466.279 73.5842 466.545 73.4442 466.825C73.2202 467.259 72.7442 467.595 72.2822 467.581C71.7922 467.567 71.7782 467.063 71.1202 466.951C70.6162 466.867 70.0702 466.965 69.5522 466.979C68.8382 467.007 68.1802 466.825 67.4802 466.797C66.4022 466.741 65.4502 467.259 64.4842 467.665C62.8882 468.323 60.0742 468.281 59.2482 466.965C58.8422 466.321 58.8142 465.299 58.4642 465.145C58.1422 464.963 57.6102 465.341 57.3582 465.761ZM70.1542 469.191C70.0842 469.471 69.9022 469.821 69.6082 470.115H69.5942H69.6082C69.4542 470.269 69.2722 470.409 69.0482 470.521C68.6002 470.745 67.9982 470.857 67.2422 470.703C66.9202 470.647 66.6402 470.507 66.3882 470.353C66.3742 470.353 66.3742 470.339 66.3602 470.339C66.3602 470.339 66.3602 470.339 66.3462 470.339C66.2202 470.255 66.0662 470.143 65.9122 469.989C65.5482 469.625 65.2962 469.037 65.3242 468.589C65.3382 468.421 65.3802 468.281 65.4642 468.169C65.4642 468.169 65.5622 468.057 65.7022 467.987C66.5702 467.581 67.5782 468.939 69.1882 468.981C69.3282 468.981 69.4682 468.981 69.5942 468.967C69.6922 468.953 69.7902 468.939 69.8742 468.925C70.0422 468.855 70.1962 469.023 70.1542 469.191Z" fill="#291505"/>
<path d="M72.6881 460.649C72.5201 460.649 72.3381 460.663 72.1701 460.705C72.0021 460.733 71.8481 460.789 71.6941 460.859C71.5401 460.929 71.4001 461.013 71.2601 461.097C71.1201 461.195 70.9941 461.293 70.8821 461.419C70.7701 461.545 70.6581 461.671 70.5741 461.811C70.4761 461.951 70.4061 462.105 70.3361 462.259C70.3081 462.315 70.2941 462.371 70.2801 462.427C70.2661 462.455 70.2661 462.483 70.2521 462.511C70.2381 462.539 70.2381 462.581 70.2241 462.609C70.1681 462.707 70.0561 462.637 69.9721 462.623C69.8881 462.595 69.7901 462.581 69.6921 462.581C69.6641 462.581 69.6361 462.581 69.6081 462.581C69.4261 462.581 69.2441 462.609 69.0621 462.665C68.9641 462.693 68.8521 462.637 68.8381 462.539C68.5721 461.167 67.2981 460.117 65.7721 460.117C64.0501 460.117 62.6641 461.433 62.6641 463.057C62.6641 464.681 64.0641 465.997 65.7721 465.997C67.2561 465.997 68.5021 465.003 68.8101 463.687C68.8381 463.575 68.9081 463.463 69.0061 463.407C69.3001 463.225 69.7061 463.239 69.9581 463.351C70.1261 463.421 70.1401 463.561 70.1681 463.729C70.3781 464.961 71.4281 465.899 72.6881 465.899C74.1021 465.899 75.2501 464.723 75.2501 463.281C75.2501 461.825 74.1021 460.649 72.6881 460.649ZM65.7581 465.283C64.4281 465.283 63.3501 464.275 63.3501 463.043C63.3501 461.811 64.4281 460.803 65.7581 460.803C67.0881 460.803 68.1661 461.811 68.1661 463.043C68.1661 464.275 67.0881 465.283 65.7581 465.283ZM72.6881 465.185C71.6661 465.185 70.8261 464.331 70.8261 463.267C70.8261 462.203 71.6661 461.349 72.6881 461.349C73.7101 461.349 74.5501 462.203 74.5501 463.267C74.5501 464.331 73.7101 465.185 72.6881 465.185Z" fill="#2A1200"/>
<g filter="url(#filter20_d_1127_88765)">
<path d="M54 273C70.5685 273 84 259.569 84 243C84 226.431 70.5685 213 54 213C37.4315 213 24 226.431 24 243C24 259.569 37.4315 273 54 273Z" fill="#A6BBFE"/>
<path d="M54 274C71.1208 274 85 260.121 85 243C85 225.879 71.1208 212 54 212C36.8792 212 23 225.879 23 243C23 260.121 36.8792 274 54 274Z" stroke="white" stroke-width="2"/>
</g>
<path d="M66.4002 266.641C64.4401 265.081 62.4401 264.001 60.6201 263.241C61.4201 264.581 62.2401 265.941 61.7401 267.561C61.3001 268.961 60.0401 270.021 58.6801 270.481C57.7601 270.801 56.7801 270.901 55.8001 270.921C54.7001 270.941 53.6201 270.881 52.5401 270.701C48.8401 270.121 43.5801 268.261 43.0401 263.941C42.9201 262.981 43.0601 261.981 43.4401 261.081C43.5801 260.741 43.7601 260.381 43.9801 260.081C44.1601 260.041 44.3601 260.001 44.5401 259.961C42.8401 260.301 40.7401 260.921 38.4801 262.001C36.5401 262.941 34.9401 264.001 33.6401 265.041C38.9801 269.981 46.1401 273.001 54.0001 273.001C59.4601 273.001 64.5602 271.541 68.9602 269.001C68.2402 268.221 67.3801 267.421 66.4002 266.641Z" fill="#DA4796"/>
<path d="M43.4403 261.061C43.0603 261.961 42.9203 262.941 43.0403 263.921C43.5803 268.261 48.8603 270.101 52.5403 270.681C53.6203 270.861 54.7203 270.921 55.8003 270.901C56.7803 270.881 57.7603 270.781 58.6803 270.461C60.0403 270.001 61.3003 268.961 61.7403 267.541C62.2403 265.941 61.4203 264.561 60.6203 263.221C60.1803 263.041 59.7603 262.881 59.3403 262.721C59.2003 262.681 59.0603 262.621 58.9203 262.581C58.9203 262.601 58.9203 262.621 58.9203 262.641C58.9203 262.661 58.9203 262.681 58.9203 262.681C58.9203 262.781 58.9203 262.881 58.9203 262.961C58.9203 263.001 58.9203 263.041 58.9203 263.081C58.9203 263.201 58.9403 263.321 58.9403 263.441C58.9403 263.481 58.9403 263.501 58.9403 263.541C58.9603 263.641 58.9603 263.761 58.9803 263.861C58.9803 263.881 58.9803 263.901 58.9803 263.921C59.0003 264.041 59.0203 264.161 59.0403 264.281C59.0403 264.301 59.0603 264.341 59.0603 264.361C59.0803 264.481 59.1203 264.621 59.1403 264.741C59.3403 265.461 59.6603 266.301 59.1803 266.981C58.8003 267.521 58.0203 267.781 57.4003 267.921C54.6203 268.541 51.8603 267.941 49.3203 266.741C47.1403 265.701 44.5403 263.941 44.9203 261.201C44.9403 261.121 44.9403 261.021 44.9603 260.941C44.9803 260.861 44.9803 260.761 45.0003 260.681C45.0003 260.641 45.0203 260.581 45.0203 260.541C45.0403 260.381 45.0603 260.221 45.0603 260.061C45.0603 260.041 45.0603 260.041 45.0603 260.021C45.0603 259.961 45.0803 259.901 45.0803 259.821V259.801C44.9203 259.841 44.7403 259.861 44.5603 259.901C44.5403 259.901 44.5203 259.901 44.5003 259.921C44.3203 259.961 44.1403 260.001 43.9403 260.041C43.7603 260.381 43.5803 260.721 43.4403 261.061Z" fill="#B52371"/>
<path d="M44.4 249.26C44.24 248.56 44.18 247.7 44.14 247.3C44 245.74 44.16 245.58 44 244.6C43.98 244.48 43.96 244.36 43.94 244.22C43.94 244.2 43.94 244.16 43.92 244.14C43.92 244.1 43.9 244.08 43.9 244.04C43.74 243.24 43.48 242.38 42.76 241.92C42.24 241.6 41.64 241.62 41.22 241.68C41.2 241.68 41.2 241.68 41.18 241.68C41.12 241.68 41.08 241.7 41.04 241.7C40.84 241.74 40.18 241.88 39.66 242.36C38.52 243.46 38.9 245.66 39.48 246.96C40.5 249.28 42.98 250.32 44.16 252.48C45.46 254.84 45.3 258.62 44.94 261.2C44.56 263.94 47.14 265.72 49.34 266.74C51.88 267.94 54.64 268.54 57.42 267.92C58.04 267.78 58.8 267.54 59.2 266.98C59.68 266.3 59.36 265.46 59.16 264.74C58.8 263.36 58.92 261.84 58.92 260.36C56.22 260.4 53.58 259.16 51.32 257.78C48.2 255.94 45.22 252.98 44.4 249.26Z" fill="#EAB97A"/>
<path d="M51.32 257.841C50.36 257.261 49.42 256.561 48.54 255.781C49.02 256.681 49.82 257.821 51.04 258.861C54.12 261.481 57.76 261.541 58.9201 261.501C58.9201 261.141 58.94 260.781 58.94 260.421C56.22 260.461 53.58 259.221 51.32 257.841Z" fill="#BC855C"/>
<path d="M69.9201 236.741C69.4001 232.721 66.7601 229.221 63.0801 227.541C56.4201 224.501 47.8401 226.301 43.6601 232.121C40.9801 235.861 40.9601 240.021 41.0601 241.741C41.1001 241.741 41.1601 241.721 41.2001 241.721C41.2201 241.721 41.2201 241.721 41.2401 241.721C41.6001 241.661 42.2201 241.621 42.7801 241.961C43.5001 242.401 43.7601 243.241 43.9201 244.081C43.9201 244.121 43.9401 244.141 43.9401 244.181C43.9401 244.201 43.9401 244.241 43.9601 244.261C43.9801 244.381 44.0001 244.521 44.0201 244.641C44.1801 245.621 44.0201 245.781 44.1601 247.341C44.2001 247.741 44.2601 248.601 44.4201 249.301C45.2401 253.021 48.2201 255.981 51.3401 257.881C53.6001 259.261 56.2401 260.501 58.9401 260.461C59.3801 260.461 59.8201 260.421 60.2601 260.341C63.0401 259.841 65.5801 258.261 67.3401 256.061C68.4801 254.621 68.9401 253.341 69.1001 251.541C69.2801 249.481 69.1801 247.401 69.4601 245.341C69.8201 242.461 70.2801 239.601 69.9201 236.741Z" fill="#EAB97A"/>
<path d="M66.4798 250.24C66.1998 251.68 67.4398 252.96 68.7798 253.22C68.9198 252.68 69.0198 252.12 69.0798 251.48C69.1598 250.44 69.1998 249.4 69.2198 248.36C67.9798 248.34 66.7598 248.92 66.4798 250.24Z" fill="#E59674"/>
<path d="M50.0999 250.1C50.1799 251.58 51.7599 252.52 53.1399 252.4C54.4799 252.3 55.7999 251.06 55.7399 249.68C55.7399 249.54 55.7199 249.42 55.6799 249.28C55.0199 246.44 49.9399 247.22 50.0999 250.1Z" fill="#E59674"/>
<path d="M64.4999 250.64C64.7999 250.24 64.5999 249.66 64.4799 249.28C64.4599 249.22 64.0999 248.24 63.5399 248.28C63.0999 248.32 62.7799 248.86 62.6399 249.28C62.4799 249.78 62.3399 250.22 62.5599 250.56C62.8999 251.121 64.0799 251.181 64.4999 250.64Z" fill="#D48961"/>
<path d="M67.2599 244.681C67.4799 244.661 67.6999 244.701 67.8999 244.801C68.5199 245.101 68.7599 245.701 68.4999 246.341C68.3199 246.801 67.9399 247.221 67.4399 247.281C67.0799 247.321 66.7199 247.221 66.4199 247.041C65.7599 246.621 65.9199 245.701 66.3599 245.181C66.4399 245.101 66.5199 245.021 66.5999 244.941C66.7999 244.781 67.0399 244.681 67.2599 244.681Z" fill="#2A1200"/>
<path d="M59.8 246.661C59.36 247.501 58.12 247.441 57.4 247.041C56.68 246.641 56.2201 245.581 56.8201 244.881C57.3201 244.301 58.08 244.141 58.78 244.441C59.66 244.801 60.18 245.941 59.8 246.661Z" fill="#2A1200"/>
<path d="M66.9802 241.141H66.9602C66.8402 241.081 67.0402 240.921 67.0802 240.901C67.2202 240.821 67.3802 240.781 67.5202 240.741C67.9002 240.661 68.3602 240.681 68.6802 240.921C69.1202 241.221 69.3002 241.821 69.2802 241.841C69.2802 241.841 69.2602 241.841 69.2402 241.821C69.2402 241.821 69.1002 241.601 68.8802 241.421C68.3802 241.021 67.5802 241.061 66.9802 241.141Z" fill="#2A1200"/>
<path d="M55.98 241.421C55.96 241.421 55.94 241.421 55.9 241.421C55.88 241.401 55.9 241.381 55.9 241.361C55.98 241.221 56.08 241.081 56.2 240.961C57.12 239.961 58.66 239.681 59.76 240.581C59.98 240.761 59.64 240.741 59.54 240.721C58.92 240.541 58.24 240.481 57.6 240.601C57.28 240.661 56.98 240.781 56.68 240.941C56.54 241.021 56.4 241.101 56.28 241.201C56.2 241.261 56.1 241.381 55.98 241.421Z" fill="#2A1200"/>
<path d="M63.8198 254.281C63.6998 254.301 63.5598 254.321 63.4198 254.341C63.4198 254.461 63.3998 254.581 63.3398 254.701C63.0598 255.241 62.0598 255.221 61.2798 255.161C61.9198 255.661 62.3398 256.201 62.6398 256.621C62.9598 256.461 63.2198 256.261 63.4398 256.041H63.4198H63.4398C63.8398 255.621 64.1198 255.141 64.2198 254.721C64.2798 254.461 64.0598 254.221 63.8198 254.281Z" fill="#873C41"/>
<path d="M61.2798 255.14C61.1198 255.12 60.9798 255.1 60.8598 255.1C60.2798 255.04 59.4998 254.88 58.5798 254.48C58.1798 254.3 57.7598 254.1 57.3198 253.82C57.2798 254.46 57.6598 255.28 58.1598 255.82C58.3798 256.04 58.5998 256.2 58.7798 256.32C58.7798 256.32 58.7798 256.32 58.7998 256.32C58.8198 256.32 58.8198 256.34 58.8398 256.34C59.1998 256.58 59.6198 256.76 60.0598 256.84C61.1398 257.06 61.9998 256.92 62.6398 256.58C62.3598 256.18 61.9198 255.64 61.2798 255.14Z" fill="#EE7E8B"/>
<path d="M60.8598 255.101C60.9798 255.121 61.1398 255.141 61.2798 255.141C62.0398 255.221 63.0398 255.241 63.3398 254.681C63.3998 254.581 63.4198 254.461 63.4198 254.321C63.2398 254.341 63.0398 254.361 62.8398 254.341C60.5398 254.281 59.0798 252.341 57.8598 252.921C57.6598 253.021 57.5198 253.181 57.5198 253.181C57.3998 253.341 57.3398 253.561 57.3198 253.781C57.7598 254.061 58.1798 254.281 58.5798 254.441C59.4998 254.881 60.2798 255.021 60.8598 255.101Z" fill="white"/>
<path d="M71.94 234.421C71.68 229.781 67.38 226.101 64.08 224.481C62.18 223.541 60.48 223.281 59.2 223.081C58.44 222.961 55.26 222.501 51.1 223.341C50.78 223.401 50.46 223.461 50.16 223.541C49.96 221.941 47.56 219.641 44.34 219.521C40.4 219.381 38.04 221.321 36.96 223.741C35.88 226.141 36.24 229.641 37.82 231.221C38.36 231.761 39 232.161 39.7 232.421C39.66 232.461 39.64 232.501 39.6 232.541C37.14 235.521 36.14 239.841 36.66 243.621C36.92 245.521 37.58 247.401 38.84 248.861C40.32 250.641 42.9 251.061 44.22 252.921C44.54 253.381 44.74 253.821 44.84 254.121C44.92 253.761 45.02 253.161 44.82 252.521C44.38 251.141 43.02 250.941 41.38 249.341C40.7 248.681 39.84 247.841 39.42 246.541C38.96 245.061 38.98 242.741 40.34 241.941C40.98 241.561 41.84 241.601 42.52 241.901C42.64 241.941 42.74 242.001 42.82 242.061C43.48 242.461 43.86 243.601 43.86 243.601C44.26 245.181 45.58 246.061 45.6 246.081C46.16 246.441 47.16 247.081 47.84 246.661C48.24 246.401 48.32 245.861 48.4 245.401C48.78 243.141 49.74 242.181 51.66 241.281C53.74 240.321 55.54 239.021 57.18 237.401C58.76 235.841 59.04 234.641 60.1 233.561C60.74 232.881 61.14 232.581 61.62 232.341C62.9 231.681 64.24 231.801 65.12 231.981C65.48 232.061 65.86 232.081 66.24 232.041C67.22 231.941 67.74 232.161 68.4 232.801C69.16 233.561 69.58 234.621 69.86 236.221C70.06 237.421 70.06 238.421 70.02 239.421C69.98 240.781 69.86 242.621 69.54 244.821C69.96 243.661 70.5 241.981 71 239.961C71.66 237.101 72.02 235.681 71.94 234.421Z" fill="#FAD076"/>
<g filter="url(#filter21_d_1127_88765)">
<path d="M281 520C295.912 520 308 507.912 308 493C308 478.088 295.912 466 281 466C266.088 466 254 478.088 254 493C254 507.912 266.088 520 281 520Z" fill="#A6D9B1"/>
<path d="M281 521C296.464 521 309 508.464 309 493C309 477.536 296.464 465 281 465C265.536 465 253 477.536 253 493C253 508.464 265.536 521 281 521Z" stroke="white" stroke-width="2"/>
</g>
<path d="M292.16 514.276C290.396 512.872 288.596 511.9 286.958 511.216C287.678 512.422 288.416 513.646 287.966 515.104C287.57 516.364 286.436 517.318 285.212 517.732C284.384 518.02 283.502 518.11 282.62 518.128C281.63 518.146 280.658 518.092 279.686 517.93C276.356 517.408 271.622 515.734 271.136 511.846C271.028 510.982 271.154 510.082 271.496 509.272C271.622 508.966 271.784 508.642 271.982 508.372C272.144 508.336 272.324 508.3 272.486 508.264C270.956 508.57 269.066 509.128 267.032 510.1C265.286 510.946 263.846 511.9 262.676 512.836C267.482 517.282 273.926 520 281 520C285.914 520 290.504 518.686 294.464 516.4C293.816 515.698 293.042 514.978 292.16 514.276Z" fill="#E88C02"/>
<path d="M271.496 509.253C271.154 510.063 271.028 510.945 271.136 511.827C271.622 515.733 276.374 517.389 279.686 517.911C280.658 518.073 281.648 518.127 282.62 518.109C283.502 518.091 284.384 518.001 285.212 517.713C286.436 517.299 287.57 516.363 287.966 515.085C288.416 513.645 287.678 512.403 286.958 511.197C286.562 511.035 286.184 510.891 285.806 510.747C285.68 510.711 285.554 510.657 285.428 510.621C285.428 510.639 285.428 510.657 285.428 510.675C285.428 510.693 285.428 510.711 285.428 510.711C285.428 510.801 285.428 510.891 285.428 510.963C285.428 510.999 285.428 511.035 285.428 511.071C285.428 511.179 285.446 511.287 285.446 511.395C285.446 511.431 285.446 511.449 285.446 511.485C285.464 511.575 285.464 511.683 285.482 511.773C285.482 511.791 285.482 511.809 285.482 511.827C285.5 511.935 285.518 512.043 285.536 512.151C285.536 512.169 285.554 512.205 285.554 512.223C285.572 512.331 285.608 512.457 285.626 512.565C285.806 513.213 286.094 513.969 285.662 514.581C285.32 515.067 284.618 515.301 284.06 515.427C281.558 515.985 279.074 515.445 276.788 514.365C274.826 513.429 272.486 511.845 272.828 509.379C272.846 509.307 272.846 509.217 272.864 509.145C272.882 509.073 272.882 508.983 272.9 508.911C272.9 508.875 272.918 508.821 272.918 508.785C272.936 508.641 272.954 508.497 272.954 508.353C272.954 508.335 272.954 508.335 272.954 508.317C272.954 508.263 272.972 508.209 272.972 508.137V508.119C272.828 508.155 272.666 508.173 272.504 508.209C272.486 508.209 272.468 508.209 272.45 508.227C272.288 508.263 272.126 508.299 271.946 508.335C271.784 508.641 271.622 508.947 271.496 509.253Z" fill="#5A63BA"/>
<path d="M272.36 498.633C272.216 498.003 272.162 497.229 272.126 496.869C272 495.465 272.144 495.321 272 494.439C271.982 494.331 271.964 494.223 271.946 494.097C271.946 494.079 271.946 494.043 271.928 494.025C271.928 493.989 271.91 493.971 271.91 493.935C271.766 493.215 271.532 492.441 270.884 492.027C270.416 491.739 269.876 491.757 269.498 491.811C269.48 491.811 269.48 491.811 269.462 491.811C269.408 491.811 269.372 491.829 269.336 491.829C269.156 491.865 268.562 491.991 268.094 492.423C267.068 493.413 267.41 495.393 267.932 496.563C268.85 498.651 271.082 499.587 272.144 501.531C273.314 503.655 273.17 507.057 272.846 509.379C272.504 511.845 274.826 513.447 276.806 514.365C279.092 515.445 281.576 515.985 284.078 515.427C284.636 515.301 285.32 515.085 285.68 514.581C286.112 513.969 285.824 513.213 285.644 512.565C285.32 511.323 285.428 509.955 285.428 508.623C282.998 508.659 280.622 507.543 278.588 506.301C275.78 504.645 273.098 501.981 272.36 498.633Z" fill="#FEE4BF"/>
<path d="M278.588 506.356C277.724 505.834 276.878 505.204 276.086 504.502C276.518 505.312 277.238 506.338 278.336 507.274C281.108 509.632 284.384 509.686 285.428 509.65C285.428 509.326 285.446 509.002 285.446 508.678C282.998 508.714 280.622 507.598 278.588 506.356Z" fill="#E4C393"/>
<path d="M295.328 487.366C294.86 483.748 292.484 480.598 289.172 479.086C283.178 476.35 275.456 477.97 271.694 483.208C269.282 486.574 269.264 490.318 269.354 491.866C269.39 491.866 269.444 491.848 269.48 491.848C269.498 491.848 269.498 491.848 269.516 491.848C269.84 491.794 270.398 491.758 270.902 492.064C271.55 492.46 271.784 493.216 271.928 493.972C271.928 494.008 271.946 494.026 271.946 494.062C271.946 494.08 271.946 494.116 271.964 494.134C271.982 494.242 272 494.368 272.018 494.476C272.162 495.358 272.018 495.502 272.144 496.906C272.18 497.266 272.234 498.04 272.378 498.67C273.116 502.018 275.798 504.682 278.606 506.392C280.64 507.634 283.016 508.75 285.446 508.714C285.842 508.714 286.238 508.678 286.634 508.606C289.136 508.156 291.422 506.734 293.006 504.754C294.032 503.458 294.446 502.306 294.59 500.686C294.752 498.832 294.662 496.96 294.914 495.106C295.238 492.514 295.652 489.94 295.328 487.366Z" fill="#FEE4BF"/>
<path d="M292.232 499.515C291.98 500.811 293.096 501.963 294.302 502.197C294.428 501.711 294.518 501.207 294.572 500.631C294.644 499.695 294.68 498.759 294.698 497.823C293.582 497.805 292.484 498.327 292.232 499.515Z" fill="#FBC4B9"/>
<path d="M277.49 499.39C277.562 500.722 278.984 501.568 280.226 501.46C281.432 501.37 282.62 500.254 282.566 499.012C282.566 498.886 282.548 498.778 282.512 498.652C281.918 496.096 277.346 496.798 277.49 499.39Z" fill="#FBC4B9"/>
<path d="M290.45 499.875C290.72 499.515 290.54 498.993 290.432 498.651C290.414 498.597 290.09 497.715 289.586 497.751C289.19 497.787 288.902 498.273 288.776 498.651C288.632 499.101 288.506 499.497 288.704 499.803C289.01 500.307 290.072 500.361 290.45 499.875Z" fill="#EFBDA5"/>
<path d="M292.934 494.512C293.132 494.494 293.33 494.53 293.51 494.62C294.068 494.89 294.284 495.43 294.05 496.006C293.888 496.42 293.546 496.798 293.096 496.852C292.772 496.888 292.448 496.798 292.178 496.636C291.584 496.258 291.728 495.43 292.124 494.962C292.196 494.89 292.268 494.818 292.34 494.746C292.52 494.602 292.736 494.512 292.934 494.512Z" fill="#2A1200"/>
<path d="M286.22 496.293C285.824 497.049 284.708 496.995 284.06 496.635C283.412 496.275 282.998 495.321 283.538 494.691C283.988 494.169 284.672 494.025 285.302 494.295C286.094 494.619 286.562 495.645 286.22 496.293Z" fill="#2A1200"/>
<path d="M292.682 491.326H292.664C292.556 491.272 292.736 491.128 292.772 491.11C292.898 491.038 293.042 491.002 293.168 490.966C293.51 490.894 293.924 490.912 294.212 491.128C294.608 491.398 294.77 491.938 294.752 491.956C294.752 491.956 294.734 491.956 294.716 491.938C294.716 491.938 294.59 491.74 294.392 491.578C293.942 491.218 293.222 491.254 292.682 491.326Z" fill="#2A1200"/>
<path d="M282.782 491.577C282.764 491.577 282.746 491.577 282.71 491.577C282.692 491.559 282.71 491.541 282.71 491.523C282.782 491.397 282.872 491.271 282.98 491.163C283.808 490.263 285.194 490.011 286.184 490.821C286.382 490.983 286.076 490.965 285.986 490.947C285.428 490.785 284.816 490.731 284.24 490.839C283.952 490.893 283.682 491.001 283.412 491.145C283.286 491.217 283.16 491.289 283.052 491.379C282.98 491.433 282.89 491.541 282.782 491.577Z" fill="#2A1200"/>
<path d="M289.838 503.151C289.73 503.169 289.604 503.187 289.478 503.205C289.478 503.313 289.46 503.421 289.406 503.529C289.154 504.015 288.254 503.997 287.552 503.943C288.128 504.393 288.506 504.879 288.776 505.257C289.064 505.113 289.298 504.933 289.496 504.735H289.478H289.496C289.856 504.357 290.108 503.925 290.198 503.547C290.252 503.313 290.054 503.097 289.838 503.151Z" fill="#873C41"/>
<path d="M287.552 503.926C287.408 503.908 287.282 503.89 287.174 503.89C286.652 503.836 285.95 503.692 285.122 503.332C284.762 503.17 284.384 502.99 283.988 502.738C283.952 503.314 284.294 504.052 284.744 504.538C284.942 504.736 285.14 504.88 285.302 504.988C285.302 504.988 285.302 504.988 285.32 504.988C285.338 504.988 285.338 505.006 285.356 505.006C285.68 505.222 286.058 505.384 286.454 505.456C287.426 505.654 288.2 505.528 288.776 505.222C288.524 504.862 288.128 504.376 287.552 503.926Z" fill="#EE7E8B"/>
<path d="M287.174 503.889C287.282 503.907 287.426 503.925 287.552 503.925C288.236 503.997 289.136 504.015 289.406 503.511C289.46 503.421 289.478 503.313 289.478 503.187C289.316 503.205 289.136 503.223 288.956 503.205C286.886 503.151 285.572 501.405 284.474 501.927C284.294 502.017 284.168 502.161 284.168 502.161C284.06 502.305 284.006 502.503 283.988 502.701C284.384 502.953 284.762 503.151 285.122 503.295C285.95 503.691 286.652 503.817 287.174 503.889Z" fill="white"/>
<path d="M300.062 485.062C299.396 483.694 297.938 483.55 297.794 482.128C297.722 481.534 297.938 481.21 298.028 480.814C298.568 478.402 295.148 475.072 291.62 473.758C289.982 473.146 288.614 473.074 287.732 473.038C285.392 472.948 284.294 474.244 281.378 474.136C280.55 474.1 280.73 474.028 279.596 473.938C277.94 473.812 275.834 473.668 273.728 474.352C271.838 474.982 270.128 476.188 268.922 477.79C268.31 478.618 267.824 479.536 267.554 480.526C267.086 482.128 267.122 482.614 266.798 483.64C265.898 486.502 263.612 486.268 262.64 488.824C261.83 490.948 262.676 493.108 263.072 494.116C263.324 494.728 264.35 497.356 266.726 498.544C267.32 498.85 267.932 499.012 269.084 499.678C269.498 499.912 270.254 500.38 271.118 501.118C271.874 501.784 272.162 502.198 272.288 502.396C272.594 502.864 272.756 503.296 272.864 503.62C272.72 502.882 272.504 502.18 272.162 501.586C271.406 500.218 270.092 499.354 269.066 498.238C269.012 498.184 268.976 498.13 268.922 498.094L268.904 498.076C268.832 497.986 268.76 497.914 268.688 497.824C268.58 497.68 268.472 497.554 268.382 497.41C268.31 497.302 268.238 497.194 268.166 497.068C268.094 496.924 268.022 496.78 267.95 496.636C267.914 496.564 267.896 496.492 267.86 496.42C267.842 496.402 267.842 496.366 267.842 496.348C267.824 496.294 267.806 496.24 267.788 496.186C267.77 496.15 267.77 496.132 267.752 496.096C267.734 496.042 267.716 495.988 267.698 495.952C267.68 495.916 267.68 495.88 267.662 495.844C267.644 495.79 267.626 495.736 267.626 495.682C267.626 495.646 267.608 495.61 267.608 495.574C267.59 495.52 267.59 495.466 267.572 495.412C267.572 495.376 267.554 495.34 267.554 495.304C267.536 495.25 267.536 495.178 267.518 495.124C267.518 495.088 267.5 495.07 267.5 495.034C267.482 494.944 267.482 494.854 267.464 494.764C267.464 494.674 267.446 494.584 267.446 494.512C267.446 494.494 267.446 494.458 267.446 494.44C267.446 494.368 267.446 494.314 267.446 494.242C267.446 494.224 267.446 494.188 267.446 494.17C267.446 494.08 267.464 494.008 267.464 493.918C267.482 493.828 267.482 493.756 267.5 493.666C267.5 493.648 267.518 493.612 267.518 493.594C267.536 493.54 267.554 493.468 267.554 493.414C267.554 493.396 267.572 493.36 267.572 493.342C267.59 493.27 267.626 493.198 267.662 493.108C267.698 493.036 267.734 492.964 267.77 492.892C267.788 492.874 267.788 492.856 267.806 492.838C267.842 492.784 267.86 492.748 267.896 492.694C267.914 492.676 267.932 492.658 267.932 492.64C267.986 492.586 268.04 492.514 268.094 492.46C268.13 492.424 268.166 492.406 268.202 492.37C268.22 492.352 268.238 492.334 268.274 492.316C268.706 491.992 269.192 491.884 269.336 491.866C269.372 491.866 269.426 491.848 269.462 491.848C269.48 491.848 269.48 491.848 269.498 491.848C269.876 491.794 270.398 491.794 270.884 492.064C271.712 492.568 271.586 493.504 271.622 494.35C271.658 494.89 271.694 495.322 271.712 495.646C271.766 496.096 271.784 496.312 271.802 496.456C272.018 497.536 273.152 498.58 273.728 498.382C274.052 498.274 274.07 497.842 274.286 497.158C274.322 497.032 274.952 494.8 275.96 494.224C277.778 493.18 279.542 495.79 282.188 495.016C283.502 494.638 284.816 493.504 285.302 492.136C285.914 490.426 284.96 489.13 285.932 486.808C286.076 486.466 286.238 486.088 286.544 485.656C286.652 485.512 288.2 483.532 290.396 483.838C291.404 483.982 292.106 484.54 292.466 484.882C292.862 485.296 293.186 485.44 293.402 485.494C293.474 485.512 293.636 485.584 293.888 485.62C294.032 485.638 294.176 485.692 294.32 485.764C295.274 486.286 295.166 487.798 295.166 487.924C295.058 489.382 293.888 489.526 293.762 490.948C293.672 491.848 294.05 492.154 294.392 493.558C294.59 494.386 294.788 495.574 294.698 497.14C295.076 496.996 295.634 496.726 296.012 496.204C296.948 494.908 295.922 493.432 296.786 492.01C297.272 491.218 297.686 491.506 298.586 490.642C299.954 489.31 300.89 486.772 300.062 485.062Z" fill="#883F0E"/>
<g filter="url(#filter22_d_1127_88765)">
<path d="M188 415C231.078 415 266 380.078 266 337C266 293.922 231.078 259 188 259C144.922 259 110 293.922 110 337C110 380.078 144.922 415 188 415Z" fill="#FFE177"/>
<path d="M188 418C232.735 418 269 381.735 269 337C269 292.265 232.735 256 188 256C143.265 256 107 292.265 107 337C107 381.735 143.265 418 188 418Z" stroke="white" stroke-width="6"/>
</g>
<path d="M220.24 398.464C215.144 394.408 209.944 391.6 205.212 389.624C207.292 393.108 209.424 396.644 208.124 400.856C206.98 404.496 203.704 407.252 200.168 408.448C197.776 409.28 195.228 409.54 192.68 409.592C189.82 409.644 187.012 409.488 184.204 409.02C174.584 407.512 160.908 402.676 159.504 391.444C159.192 388.948 159.556 386.348 160.544 384.008C160.908 383.124 161.376 382.188 161.948 381.408C162.416 381.304 162.936 381.2 163.404 381.096C158.984 381.98 153.524 383.592 147.648 386.4C142.604 388.844 138.444 391.6 135.064 394.304C148.948 407.148 167.564 415 188 415C202.196 415 215.456 411.204 226.896 404.6C225.024 402.572 222.788 400.492 220.24 398.464Z" fill="#6380C3"/>
<path d="M160.544 383.956C159.556 386.296 159.192 388.844 159.504 391.392C160.908 402.676 174.636 407.46 184.204 408.968C187.012 409.436 189.872 409.592 192.68 409.54C195.228 409.488 197.776 409.228 200.168 408.396C203.704 407.2 206.98 404.496 208.124 400.804C209.424 396.644 207.292 393.056 205.212 389.572C204.068 389.104 202.976 388.688 201.884 388.272C201.52 388.168 201.156 388.012 200.792 387.908C200.792 387.96 200.792 388.012 200.792 388.064C200.792 388.116 200.792 388.168 200.792 388.168C200.792 388.428 200.792 388.688 200.792 388.896C200.792 389 200.792 389.104 200.792 389.208C200.792 389.52 200.844 389.832 200.844 390.144C200.844 390.248 200.844 390.3 200.844 390.404C200.896 390.664 200.896 390.976 200.948 391.236C200.948 391.288 200.948 391.34 200.948 391.392C201 391.704 201.052 392.016 201.104 392.328C201.104 392.38 201.156 392.484 201.156 392.536C201.208 392.848 201.312 393.212 201.364 393.524C201.884 395.396 202.716 397.58 201.468 399.348C200.48 400.752 198.452 401.428 196.84 401.792C189.612 403.404 182.436 401.844 175.832 398.724C170.164 396.02 163.404 391.444 164.392 384.32C164.444 384.112 164.444 383.852 164.496 383.644C164.548 383.436 164.548 383.176 164.6 382.968C164.6 382.864 164.652 382.708 164.652 382.604C164.704 382.188 164.756 381.772 164.756 381.356C164.756 381.304 164.756 381.304 164.756 381.252C164.756 381.096 164.808 380.94 164.808 380.732V380.68C164.392 380.784 163.924 380.836 163.456 380.94C163.404 380.94 163.352 380.94 163.3 380.992C162.832 381.096 162.364 381.2 161.844 381.304C161.376 382.188 160.908 383.072 160.544 383.956Z" fill="#FF9696"/>
<path d="M163.04 353.275C162.624 351.455 162.468 349.219 162.364 348.179C162 344.123 162.416 343.707 162 341.159C161.948 340.847 161.896 340.535 161.844 340.171C161.844 340.119 161.844 340.015 161.792 339.963C161.792 339.859 161.74 339.807 161.74 339.703C161.324 337.623 160.648 335.387 158.776 334.191C157.424 333.359 155.864 333.411 154.772 333.567C154.72 333.567 154.72 333.567 154.668 333.567C154.512 333.567 154.408 333.619 154.304 333.619C153.784 333.723 152.068 334.087 150.716 335.335C147.752 338.195 148.74 343.915 150.248 347.295C152.9 353.327 159.348 356.031 162.416 361.647C165.796 367.783 165.38 377.611 164.444 384.319C163.456 391.443 170.164 396.071 175.884 398.723C182.488 401.843 189.664 403.403 196.892 401.791C198.504 401.427 200.48 400.803 201.52 399.347C202.768 397.579 201.936 395.395 201.416 393.523C200.48 389.935 200.792 385.983 200.792 382.135C193.772 382.239 186.908 379.015 181.032 375.427C172.92 370.643 165.172 362.947 163.04 353.275Z" fill="#FEE4BF"/>
<path d="M181.032 375.585C178.536 374.077 176.092 372.257 173.804 370.229C175.052 372.569 177.132 375.533 180.304 378.237C188.312 385.049 197.776 385.205 200.792 385.101C200.792 384.165 200.844 383.229 200.844 382.293C193.772 382.397 186.908 379.173 181.032 375.585Z" fill="#E4C393"/>
<path d="M229.392 320.724C228.04 310.272 221.176 301.172 211.608 296.804C194.292 288.9 171.984 293.58 161.116 308.712C154.148 318.436 154.096 329.252 154.356 333.724C154.46 333.724 154.616 333.672 154.72 333.672C154.772 333.672 154.772 333.672 154.824 333.672C155.76 333.516 157.372 333.412 158.828 334.296C160.7 335.44 161.376 337.624 161.792 339.808C161.792 339.912 161.844 339.964 161.844 340.068C161.844 340.12 161.844 340.224 161.896 340.276C161.948 340.588 162 340.952 162.052 341.264C162.468 343.812 162.052 344.228 162.416 348.284C162.52 349.324 162.676 351.56 163.092 353.38C165.224 363.052 172.972 370.748 181.084 375.688C186.96 379.276 193.824 382.5 200.844 382.396C201.988 382.396 203.132 382.292 204.276 382.084C211.504 380.784 218.108 376.676 222.684 370.956C225.648 367.212 226.844 363.884 227.26 359.204C227.728 353.848 227.468 348.44 228.196 343.084C229.132 335.596 230.328 328.16 229.392 320.724Z" fill="#FEE4BF"/>
<path d="M220.448 355.823C219.72 359.567 222.944 362.895 226.428 363.571C226.792 362.167 227.052 360.711 227.208 359.047C227.416 356.343 227.52 353.639 227.572 350.935C224.348 350.883 221.176 352.391 220.448 355.823Z" fill="#FBC4B9"/>
<path d="M177.86 355.46C178.068 359.308 182.176 361.752 185.764 361.44C189.248 361.18 192.68 357.956 192.524 354.368C192.524 354.004 192.472 353.692 192.368 353.328C190.652 345.944 177.444 347.972 177.86 355.46Z" fill="#FBC4B9"/>
<path d="M215.3 356.864C216.08 355.824 215.56 354.316 215.248 353.328C215.196 353.172 214.26 350.624 212.804 350.728C211.66 350.832 210.828 352.236 210.464 353.328C210.048 354.628 209.684 355.772 210.256 356.656C211.14 358.112 214.208 358.268 215.3 356.864Z" fill="#EFBDA5"/>
<path d="M222.476 341.368C223.048 341.316 223.62 341.42 224.14 341.68C225.752 342.46 226.376 344.02 225.7 345.684C225.232 346.88 224.244 347.972 222.944 348.128C222.008 348.232 221.072 347.972 220.292 347.504C218.576 346.412 218.992 344.02 220.136 342.668C220.344 342.46 220.552 342.252 220.76 342.044C221.28 341.628 221.904 341.368 222.476 341.368Z" fill="#2A1200"/>
<path d="M203.08 346.517C201.936 348.701 198.712 348.545 196.84 347.505C194.968 346.465 193.772 343.709 195.332 341.889C196.632 340.381 198.608 339.965 200.428 340.745C202.716 341.681 204.068 344.645 203.08 346.517Z" fill="#2A1200"/>
<path d="M221.748 332.163H221.696C221.384 332.007 221.904 331.591 222.008 331.539C222.372 331.331 222.788 331.227 223.152 331.123C224.14 330.915 225.336 330.967 226.168 331.591C227.312 332.371 227.78 333.931 227.728 333.983C227.728 333.983 227.676 333.983 227.624 333.931C227.624 333.931 227.26 333.359 226.688 332.891C225.388 331.851 223.308 331.955 221.748 332.163Z" fill="#2A1200"/>
<path d="M193.148 332.893C193.096 332.893 193.044 332.893 192.94 332.893C192.888 332.841 192.94 332.789 192.94 332.737C193.148 332.373 193.408 332.009 193.72 331.697C196.112 329.097 200.116 328.369 202.976 330.709C203.548 331.177 202.664 331.125 202.404 331.073C200.792 330.605 199.024 330.449 197.36 330.761C196.528 330.917 195.748 331.229 194.968 331.645C194.604 331.853 194.24 332.061 193.928 332.321C193.72 332.477 193.46 332.789 193.148 332.893Z" fill="#2A1200"/>
<path d="M213.532 366.329C213.22 366.381 212.856 366.433 212.492 366.485C212.492 366.797 212.44 367.109 212.284 367.421C211.556 368.825 208.956 368.773 206.928 368.617C208.592 369.917 209.684 371.321 210.464 372.413C211.296 371.997 211.972 371.477 212.544 370.905H212.492H212.544C213.584 369.813 214.312 368.565 214.572 367.473C214.728 366.797 214.156 366.173 213.532 366.329Z" fill="#873C41"/>
<path d="M206.928 368.565C206.512 368.513 206.148 368.461 205.836 368.461C204.328 368.305 202.3 367.889 199.908 366.849C198.868 366.381 197.776 365.861 196.632 365.133C196.528 366.797 197.516 368.929 198.816 370.333C199.388 370.905 199.96 371.321 200.428 371.633C200.428 371.633 200.428 371.633 200.48 371.633C200.532 371.633 200.532 371.685 200.584 371.685C201.52 372.309 202.612 372.777 203.756 372.985C206.564 373.557 208.8 373.193 210.464 372.309C209.736 371.269 208.592 369.865 206.928 368.565Z" fill="#EE7E8B"/>
<path d="M205.836 368.461C206.148 368.513 206.564 368.565 206.928 368.565C208.904 368.773 211.504 368.825 212.284 367.369C212.44 367.109 212.492 366.797 212.492 366.433C212.024 366.485 211.504 366.537 210.984 366.485C205.004 366.329 201.208 361.285 198.036 362.793C197.516 363.053 197.152 363.469 197.152 363.469C196.84 363.885 196.684 364.457 196.632 365.029C197.776 365.757 198.868 366.329 199.908 366.745C202.3 367.889 204.328 368.253 205.836 368.461Z" fill="white"/>
<path d="M240.156 316.409C238.908 313.809 236.88 312.301 235.372 309.753C234.28 307.933 234.592 307.465 233.552 304.709C232.98 303.201 231.316 299.353 228.612 296.285C225.648 292.853 222.268 291.397 219.2 290.045C216.704 288.953 208.8 285.677 199.388 287.029C195.956 287.549 192.368 288.589 186.492 289.109C181.604 289.525 176.612 289.109 171.776 290.097C167.304 291.033 163.352 293.321 159.764 296.025C152.588 301.485 149.572 308.349 148.428 311.001C144.06 321.297 147.856 324.365 143.332 337.469C141.044 344.073 140.264 344.801 138.392 350.573C136.572 356.293 136.884 363.001 139.328 368.461C141.304 372.881 144.996 376.677 149.676 378.081C152.536 378.965 155.656 378.861 158.568 379.641C162.416 380.629 165.692 382.969 169.28 384.685C172.868 386.401 177.132 387.441 180.72 385.725C183.84 384.217 185.66 380.941 186.544 377.613C188.052 371.581 186.752 364.925 183.06 359.881C181.136 357.281 178.588 355.149 176.508 352.653C174.428 350.157 172.66 347.089 172.816 343.865C172.92 340.641 175.104 337.521 178.068 336.273C178.068 336.273 178.12 336.273 178.12 336.221C181.968 334.661 185.816 335.441 187.22 335.701C190.08 336.169 193.096 336.065 195.904 335.441C198.192 334.921 200.584 334.089 202.352 332.373C204.276 330.501 204.796 327.797 205.732 325.405C206.408 323.637 207.136 321.921 207.916 320.205C209.164 317.605 210.672 315.005 213.012 313.185C213.324 312.925 213.688 312.717 214 312.457C214.936 311.833 217.9 309.961 221.436 310.689C226.064 311.625 228.248 316.461 228.664 317.397C229.652 319.581 229.704 321.401 229.808 324.833C229.86 327.225 229.756 329.045 229.184 334.193C228.04 344.801 227.624 345.685 227.676 349.169C227.676 349.845 227.728 352.133 227.572 355.201C227.52 356.761 227.468 357.749 227.312 359.049C227.104 360.973 226.844 363.209 225.856 365.601C225.128 367.369 224.14 369.033 222.736 370.801C218.212 376.521 211.556 380.629 204.328 381.929C203.184 382.137 202.04 382.241 200.896 382.241C200.896 384.061 200.844 385.933 200.844 387.753C201.208 387.857 201.572 387.961 201.988 388.013C205.316 388.429 206.72 386.297 211.452 384.997C217.588 383.333 218.94 385.881 224.14 384.529C228.716 383.333 234.072 379.693 235.684 374.597C237.4 369.137 233.5 366.017 232.2 358.477C231.628 354.889 231.784 351.197 232.564 347.661C234.176 340.329 239.116 334.765 241.04 327.693C241.924 324.417 241.768 320.881 240.728 317.657C240.52 317.241 240.364 316.773 240.156 316.409ZM156.852 353.121C154.564 352.549 153.16 351.249 152.64 350.781C152.276 350.417 151.236 349.325 150.3 347.453C148.272 343.241 148.584 337.573 150.768 335.493C152.068 334.245 153.836 333.829 154.356 333.777C154.46 333.777 154.616 333.725 154.72 333.725C154.72 333.725 154.772 333.725 154.824 333.725C154.98 333.725 157.164 333.829 158.412 335.233C159.296 336.221 159.868 337.521 159.296 339.965C158.828 342.045 158.412 343.085 159.036 345.997C159.504 348.181 160.856 349.897 160.96 350.001C162.104 351.509 162.988 351.769 162.884 352.341C162.624 353.277 159.452 353.745 156.852 353.121Z" fill="#AE3214"/>
<rect x="121" y="797.5" width="134" height="5" rx="2.5" fill="#191919"/>
</g>
<defs>
<filter id="filter0_d_1127_88765" x="227" y="49" width="15" height="15" filterUnits="userSpaceOnUse" color-interpolation-filters="sRGB">
<feFlood flood-opacity="0" result="BackgroundImageFix"/>
<feColorMatrix in="SourceAlpha" type="matrix" values="0 0 0 0 0 0 0 0 0 0 0 0 0 0 0 0 0 0 127 0" result="hardAlpha"/>
<feOffset dx="2" dy="4"/>
<feGaussianBlur stdDeviation="2.5"/>
<feComposite in2="hardAlpha" operator="out"/>
<feColorMatrix type="matrix" values="0 0 0 0 0 0 0 0 0 0 0 0 0 0 0 0 0 0 0.02 0"/>
<feBlend mode="normal" in2="BackgroundImageFix" result="effect1_dropShadow_1127_88765"/>
<feBlend mode="normal" in="SourceGraphic" in2="effect1_dropShadow_1127_88765" result="shape"/>
</filter>
<filter id="filter1_d_1127_88765" x="169" y="80" width="18" height="18" filterUnits="userSpaceOnUse" color-interpolation-filters="sRGB">
<feFlood flood-opacity="0" result="BackgroundImageFix"/>
<feColorMatrix in="SourceAlpha" type="matrix" values="0 0 0 0 0 0 0 0 0 0 0 0 0 0 0 0 0 0 127 0" result="hardAlpha"/>
<feOffset dx="2" dy="4"/>
<feGaussianBlur stdDeviation="2.5"/>
<feComposite in2="hardAlpha" operator="out"/>
<feColorMatrix type="matrix" values="0 0 0 0 0 0 0 0 0 0 0 0 0 0 0 0 0 0 0.02 0"/>
<feBlend mode="normal" in2="BackgroundImageFix" result="effect1_dropShadow_1127_88765"/>
<feBlend mode="normal" in="SourceGraphic" in2="effect1_dropShadow_1127_88765" result="shape"/>
</filter>
<filter id="filter2_d_1127_88765" x="352" y="247" width="16" height="16" filterUnits="userSpaceOnUse" color-interpolation-filters="sRGB">
<feFlood flood-opacity="0" result="BackgroundImageFix"/>
<feColorMatrix in="SourceAlpha" type="matrix" values="0 0 0 0 0 0 0 0 0 0 0 0 0 0 0 0 0 0 127 0" result="hardAlpha"/>
<feOffset dx="2" dy="4"/>
<feGaussianBlur stdDeviation="2.5"/>
<feComposite in2="hardAlpha" operator="out"/>
<feColorMatrix type="matrix" values="0 0 0 0 0 0 0 0 0 0 0 0 0 0 0 0 0 0 0.02 0"/>
<feBlend mode="normal" in2="BackgroundImageFix" result="effect1_dropShadow_1127_88765"/>
<feBlend mode="normal" in="SourceGraphic" in2="effect1_dropShadow_1127_88765" result="shape"/>
</filter>
<filter id="filter3_d_1127_88765" x="21" y="523" width="28" height="28" filterUnits="userSpaceOnUse" color-interpolation-filters="sRGB">
<feFlood flood-opacity="0" result="BackgroundImageFix"/>
<feColorMatrix in="SourceAlpha" type="matrix" values="0 0 0 0 0 0 0 0 0 0 0 0 0 0 0 0 0 0 127 0" result="hardAlpha"/>
<feOffset dx="2" dy="4"/>
<feGaussianBlur stdDeviation="2.5"/>
<feComposite in2="hardAlpha" operator="out"/>
<feColorMatrix type="matrix" values="0 0 0 0 0 0 0 0 0 0 0 0 0 0 0 0 0 0 0.02 0"/>
<feBlend mode="normal" in2="BackgroundImageFix" result="effect1_dropShadow_1127_88765"/>
<feBlend mode="normal" in="SourceGraphic" in2="effect1_dropShadow_1127_88765" result="shape"/>
</filter>
<filter id="filter4_d_1127_88765" x="127" y="440" width="13" height="13" filterUnits="userSpaceOnUse" color-interpolation-filters="sRGB">
<feFlood flood-opacity="0" result="BackgroundImageFix"/>
<feColorMatrix in="SourceAlpha" type="matrix" values="0 0 0 0 0 0 0 0 0 0 0 0 0 0 0 0 0 0 127 0" result="hardAlpha"/>
<feOffset dx="2" dy="4"/>
<feGaussianBlur stdDeviation="2.5"/>
<feComposite in2="hardAlpha" operator="out"/>
<feColorMatrix type="matrix" values="0 0 0 0 0 0 0 0 0 0 0 0 0 0 0 0 0 0 0.02 0"/>
<feBlend mode="normal" in2="BackgroundImageFix" result="effect1_dropShadow_1127_88765"/>
<feBlend mode="normal" in="SourceGraphic" in2="effect1_dropShadow_1127_88765" result="shape"/>
</filter>
<filter id="filter5_d_1127_88765" x="315" y="527" width="20" height="20" filterUnits="userSpaceOnUse" color-interpolation-filters="sRGB">
<feFlood flood-opacity="0" result="BackgroundImageFix"/>
<feColorMatrix in="SourceAlpha" type="matrix" values="0 0 0 0 0 0 0 0 0 0 0 0 0 0 0 0 0 0 127 0" result="hardAlpha"/>
<feOffset dx="2" dy="4"/>
<feGaussianBlur stdDeviation="2.5"/>
<feComposite in2="hardAlpha" operator="out"/>
<feColorMatrix type="matrix" values="0 0 0 0 0 0 0 0 0 0 0 0 0 0 0 0 0 0 0.02 0"/>
<feBlend mode="normal" in2="BackgroundImageFix" result="effect1_dropShadow_1127_88765"/>
<feBlend mode="normal" in="SourceGraphic" in2="effect1_dropShadow_1127_88765" result="shape"/>
</filter>
<filter id="filter6_d_1127_88765" x="15" y="125" width="30" height="30" filterUnits="userSpaceOnUse" color-interpolation-filters="sRGB">
<feFlood flood-opacity="0" result="BackgroundImageFix"/>
<feColorMatrix in="SourceAlpha" type="matrix" values="0 0 0 0 0 0 0 0 0 0 0 0 0 0 0 0 0 0 127 0" result="hardAlpha"/>
<feOffset dx="2" dy="4"/>
<feGaussianBlur stdDeviation="2.5"/>
<feComposite in2="hardAlpha" operator="out"/>
<feColorMatrix type="matrix" values="0 0 0 0 0 0 0 0 0 0 0 0 0 0 0 0 0 0 0.02 0"/>
<feBlend mode="normal" in2="BackgroundImageFix" result="effect1_dropShadow_1127_88765"/>
<feBlend mode="normal" in="SourceGraphic" in2="effect1_dropShadow_1127_88765" result="shape"/>
</filter>
<filter id="filter7_d_1127_88765" x="358" y="350" width="20" height="20" filterUnits="userSpaceOnUse" color-interpolation-filters="sRGB">
<feFlood flood-opacity="0" result="BackgroundImageFix"/>
<feColorMatrix in="SourceAlpha" type="matrix" values="0 0 0 0 0 0 0 0 0 0 0 0 0 0 0 0 0 0 127 0" result="hardAlpha"/>
<feOffset dx="2" dy="4"/>
<feGaussianBlur stdDeviation="2.5"/>
<feComposite in2="hardAlpha" operator="out"/>
<feColorMatrix type="matrix" values="0 0 0 0 0 0 0 0 0 0 0 0 0 0 0 0 0 0 0.02 0"/>
<feBlend mode="normal" in2="BackgroundImageFix" result="effect1_dropShadow_1127_88765"/>
<feBlend mode="normal" in="SourceGraphic" in2="effect1_dropShadow_1127_88765" result="shape"/>
</filter>
<filter id="filter8_d_1127_88765" x="112" y="229" width="16" height="16" filterUnits="userSpaceOnUse" color-interpolation-filters="sRGB">
<feFlood flood-opacity="0" result="BackgroundImageFix"/>
<feColorMatrix in="SourceAlpha" type="matrix" values="0 0 0 0 0 0 0 0 0 0 0 0 0 0 0 0 0 0 127 0" result="hardAlpha"/>
<feOffset dx="2" dy="4"/>
<feGaussianBlur stdDeviation="2.5"/>
<feComposite in2="hardAlpha" operator="out"/>
<feColorMatrix type="matrix" values="0 0 0 0 0 0 0 0 0 0 0 0 0 0 0 0 0 0 0.02 0"/>
<feBlend mode="normal" in2="BackgroundImageFix" result="effect1_dropShadow_1127_88765"/>
<feBlend mode="normal" in="SourceGraphic" in2="effect1_dropShadow_1127_88765" result="shape"/>
</filter>
<filter id="filter9_d_1127_88765" x="344" y="82" width="13" height="13" filterUnits="userSpaceOnUse" color-interpolation-filters="sRGB">
<feFlood flood-opacity="0" result="BackgroundImageFix"/>
<feColorMatrix in="SourceAlpha" type="matrix" values="0 0 0 0 0 0 0 0 0 0 0 0 0 0 0 0 0 0 127 0" result="hardAlpha"/>
<feOffset dx="2" dy="4"/>
<feGaussianBlur stdDeviation="2.5"/>
<feComposite in2="hardAlpha" operator="out"/>
<feColorMatrix type="matrix" values="0 0 0 0 0 0 0 0 0 0 0 0 0 0 0 0 0 0 0.02 0"/>
<feBlend mode="normal" in2="BackgroundImageFix" result="effect1_dropShadow_1127_88765"/>
<feBlend mode="normal" in="SourceGraphic" in2="effect1_dropShadow_1127_88765" result="shape"/>
</filter>
<filter id="filter10_d_1127_88765" x="68" y="84" width="13" height="13" filterUnits="userSpaceOnUse" color-interpolation-filters="sRGB">
<feFlood flood-opacity="0" result="BackgroundImageFix"/>
<feColorMatrix in="SourceAlpha" type="matrix" values="0 0 0 0 0 0 0 0 0 0 0 0 0 0 0 0 0 0 127 0" result="hardAlpha"/>
<feOffset dx="2" dy="4"/>
<feGaussianBlur stdDeviation="2.5"/>
<feComposite in2="hardAlpha" operator="out"/>
<feColorMatrix type="matrix" values="0 0 0 0 0 0 0 0 0 0 0 0 0 0 0 0 0 0 0.02 0"/>
<feBlend mode="normal" in2="BackgroundImageFix" result="effect1_dropShadow_1127_88765"/>
<feBlend mode="normal" in="SourceGraphic" in2="effect1_dropShadow_1127_88765" result="shape"/>
</filter>
<filter id="filter11_d_1127_88765" x="13" y="434" width="20" height="20" filterUnits="userSpaceOnUse" color-interpolation-filters="sRGB">
<feFlood flood-opacity="0" result="BackgroundImageFix"/>
<feColorMatrix in="SourceAlpha" type="matrix" values="0 0 0 0 0 0 0 0 0 0 0 0 0 0 0 0 0 0 127 0" result="hardAlpha"/>
<feOffset dx="2" dy="4"/>
<feGaussianBlur stdDeviation="2.5"/>
<feComposite in2="hardAlpha" operator="out"/>
<feColorMatrix type="matrix" values="0 0 0 0 0 0 0 0 0 0 0 0 0 0 0 0 0 0 0.02 0"/>
<feBlend mode="normal" in2="BackgroundImageFix" result="effect1_dropShadow_1127_88765"/>
<feBlend mode="normal" in="SourceGraphic" in2="effect1_dropShadow_1127_88765" result="shape"/>
</filter>
<filter id="filter12_d_1127_88765" x="219" y="120" width="26" height="26" filterUnits="userSpaceOnUse" color-interpolation-filters="sRGB">
<feFlood flood-opacity="0" result="BackgroundImageFix"/>
<feColorMatrix in="SourceAlpha" type="matrix" values="0 0 0 0 0 0 0 0 0 0 0 0 0 0 0 0 0 0 127 0" result="hardAlpha"/>
<feOffset dx="2" dy="4"/>
<feGaussianBlur stdDeviation="2.5"/>
<feComposite in2="hardAlpha" operator="out"/>
<feColorMatrix type="matrix" values="0 0 0 0 0 0 0 0 0 0 0 0 0 0 0 0 0 0 0.02 0"/>
<feBlend mode="normal" in2="BackgroundImageFix" result="effect1_dropShadow_1127_88765"/>
<feBlend mode="normal" in="SourceGraphic" in2="effect1_dropShadow_1127_88765" result="shape"/>
</filter>
<filter id="filter13_d_1127_88765" x="348" y="103" width="20" height="20" filterUnits="userSpaceOnUse" color-interpolation-filters="sRGB">
<feFlood flood-opacity="0" result="BackgroundImageFix"/>
<feColorMatrix in="SourceAlpha" type="matrix" values="0 0 0 0 0 0 0 0 0 0 0 0 0 0 0 0 0 0 127 0" result="hardAlpha"/>
<feOffset dx="2" dy="4"/>
<feGaussianBlur stdDeviation="2.5"/>
<feComposite in2="hardAlpha" operator="out"/>
<feColorMatrix type="matrix" values="0 0 0 0 0 0 0 0 0 0 0 0 0 0 0 0 0 0 0.02 0"/>
<feBlend mode="normal" in2="BackgroundImageFix" result="effect1_dropShadow_1127_88765"/>
<feBlend mode="normal" in="SourceGraphic" in2="effect1_dropShadow_1127_88765" result="shape"/>
</filter>
<filter id="filter14_d_1127_88765" x="273" y="355" width="42" height="42" filterUnits="userSpaceOnUse" color-interpolation-filters="sRGB">
<feFlood flood-opacity="0" result="BackgroundImageFix"/>
<feColorMatrix in="SourceAlpha" type="matrix" values="0 0 0 0 0 0 0 0 0 0 0 0 0 0 0 0 0 0 127 0" result="hardAlpha"/>
<feOffset dx="2" dy="4"/>
<feGaussianBlur stdDeviation="2.5"/>
<feComposite in2="hardAlpha" operator="out"/>
<feColorMatrix type="matrix" values="0 0 0 0 0 0 0 0 0 0 0 0 0 0 0 0 0 0 0.02 0"/>
<feBlend mode="normal" in2="BackgroundImageFix" result="effect1_dropShadow_1127_88765"/>
<feBlend mode="normal" in="SourceGraphic" in2="effect1_dropShadow_1127_88765" result="shape"/>
</filter>
<filter id="filter15_d_1127_88765" x="84" y="520" width="18" height="18" filterUnits="userSpaceOnUse" color-interpolation-filters="sRGB">
<feFlood flood-opacity="0" result="BackgroundImageFix"/>
<feColorMatrix in="SourceAlpha" type="matrix" values="0 0 0 0 0 0 0 0 0 0 0 0 0 0 0 0 0 0 127 0" result="hardAlpha"/>
<feOffset dx="2" dy="4"/>
<feGaussianBlur stdDeviation="2.5"/>
<feComposite in2="hardAlpha" operator="out"/>
<feColorMatrix type="matrix" values="0 0 0 0 0 0 0 0 0 0 0 0 0 0 0 0 0 0 0.02 0"/>
<feBlend mode="normal" in2="BackgroundImageFix" result="effect1_dropShadow_1127_88765"/>
<feBlend mode="normal" in="SourceGraphic" in2="effect1_dropShadow_1127_88765" result="shape"/>
</filter>
<filter id="filter16_d_1127_88765" x="265" y="493" width="15" height="15" filterUnits="userSpaceOnUse" color-interpolation-filters="sRGB">
<feFlood flood-opacity="0" result="BackgroundImageFix"/>
<feColorMatrix in="SourceAlpha" type="matrix" values="0 0 0 0 0 0 0 0 0 0 0 0 0 0 0 0 0 0 127 0" result="hardAlpha"/>
<feOffset dx="2" dy="4"/>
<feGaussianBlur stdDeviation="2.5"/>
<feComposite in2="hardAlpha" operator="out"/>
<feColorMatrix type="matrix" values="0 0 0 0 0 0 0 0 0 0 0 0 0 0 0 0 0 0 0.02 0"/>
<feBlend mode="normal" in2="BackgroundImageFix" result="effect1_dropShadow_1127_88765"/>
<feBlend mode="normal" in="SourceGraphic" in2="effect1_dropShadow_1127_88765" result="shape"/>
</filter>
<filter id="filter17_d_1127_88765" x="289" y="176" width="74" height="74" filterUnits="userSpaceOnUse" color-interpolation-filters="sRGB">
<feFlood flood-opacity="0" result="BackgroundImageFix"/>
<feColorMatrix in="SourceAlpha" type="matrix" values="0 0 0 0 0 0 0 0 0 0 0 0 0 0 0 0 0 0 127 0" result="hardAlpha"/>
<feOffset dy="4"/>
<feGaussianBlur stdDeviation="3"/>
<feComposite in2="hardAlpha" operator="out"/>
<feColorMatrix type="matrix" values="0 0 0 0 0 0 0 0 0 0 0 0 0 0 0 0 0 0 0.27 0"/>
<feBlend mode="normal" in2="BackgroundImageFix" result="effect1_dropShadow_1127_88765"/>
<feBlend mode="normal" in="SourceGraphic" in2="effect1_dropShadow_1127_88765" result="shape"/>
</filter>
<filter id="filter18_d_1127_88765" x="130" y="110" width="61" height="61" filterUnits="userSpaceOnUse" color-interpolation-filters="sRGB">
<feFlood flood-opacity="0" result="BackgroundImageFix"/>
<feColorMatrix in="SourceAlpha" type="matrix" values="0 0 0 0 0 0 0 0 0 0 0 0 0 0 0 0 0 0 127 0" result="hardAlpha"/>
<feOffset dy="4"/>
<feGaussianBlur stdDeviation="3"/>
<feComposite in2="hardAlpha" operator="out"/>
<feColorMatrix type="matrix" values="0 0 0 0 0 0 0 0 0 0 0 0 0 0 0 0 0 0 0.27 0"/>
<feBlend mode="normal" in2="BackgroundImageFix" result="effect1_dropShadow_1127_88765"/>
<feBlend mode="normal" in="SourceGraphic" in2="effect1_dropShadow_1127_88765" result="shape"/>
</filter>
<filter id="filter19_d_1127_88765" x="34" y="436" width="58" height="58" filterUnits="userSpaceOnUse" color-interpolation-filters="sRGB">
<feFlood flood-opacity="0" result="BackgroundImageFix"/>
<feColorMatrix in="SourceAlpha" type="matrix" values="0 0 0 0 0 0 0 0 0 0 0 0 0 0 0 0 0 0 127 0" result="hardAlpha"/>
<feOffset dy="4"/>
<feGaussianBlur stdDeviation="3"/>
<feComposite in2="hardAlpha" operator="out"/>
<feColorMatrix type="matrix" values="0 0 0 0 0 0 0 0 0 0 0 0 0 0 0 0 0 0 0.27 0"/>
<feBlend mode="normal" in2="BackgroundImageFix" result="effect1_dropShadow_1127_88765"/>
<feBlend mode="normal" in="SourceGraphic" in2="effect1_dropShadow_1127_88765" result="shape"/>
</filter>
<filter id="filter20_d_1127_88765" x="16" y="209" width="76" height="76" filterUnits="userSpaceOnUse" color-interpolation-filters="sRGB">
<feFlood flood-opacity="0" result="BackgroundImageFix"/>
<feColorMatrix in="SourceAlpha" type="matrix" values="0 0 0 0 0 0 0 0 0 0 0 0 0 0 0 0 0 0 127 0" result="hardAlpha"/>
<feOffset dy="4"/>
<feGaussianBlur stdDeviation="3"/>
<feComposite in2="hardAlpha" operator="out"/>
<feColorMatrix type="matrix" values="0 0 0 0 0 0 0 0 0 0 0 0 0 0 0 0 0 0 0.27 0"/>
<feBlend mode="normal" in2="BackgroundImageFix" result="effect1_dropShadow_1127_88765"/>
<feBlend mode="normal" in="SourceGraphic" in2="effect1_dropShadow_1127_88765" result="shape"/>
</filter>
<filter id="filter21_d_1127_88765" x="246" y="462" width="70" height="70" filterUnits="userSpaceOnUse" color-interpolation-filters="sRGB">
<feFlood flood-opacity="0" result="BackgroundImageFix"/>
<feColorMatrix in="SourceAlpha" type="matrix" values="0 0 0 0 0 0 0 0 0 0 0 0 0 0 0 0 0 0 127 0" result="hardAlpha"/>
<feOffset dy="4"/>
<feGaussianBlur stdDeviation="3"/>
<feComposite in2="hardAlpha" operator="out"/>
<feColorMatrix type="matrix" values="0 0 0 0 0 0 0 0 0 0 0 0 0 0 0 0 0 0 0.27 0"/>
<feBlend mode="normal" in2="BackgroundImageFix" result="effect1_dropShadow_1127_88765"/>
<feBlend mode="normal" in="SourceGraphic" in2="effect1_dropShadow_1127_88765" result="shape"/>
</filter>
<filter id="filter22_d_1127_88765" x="98" y="248" width="186" height="186" filterUnits="userSpaceOnUse" color-interpolation-filters="sRGB">
<feFlood flood-opacity="0" result="BackgroundImageFix"/>
<feColorMatrix in="SourceAlpha" type="matrix" values="0 0 0 0 0 0 0 0 0 0 0 0 0 0 0 0 0 0 127 0" result="hardAlpha"/>
<feOffset dx="3" dy="4"/>
<feGaussianBlur stdDeviation="4.5"/>
<feComposite in2="hardAlpha" operator="out"/>
<feColorMatrix type="matrix" values="0 0 0 0 0 0 0 0 0 0 0 0 0 0 0 0 0 0 0.2 0"/>
<feBlend mode="normal" in2="BackgroundImageFix" result="effect1_dropShadow_1127_88765"/>
<feBlend mode="normal" in="SourceGraphic" in2="effect1_dropShadow_1127_88765" result="shape"/>
</filter>
<linearGradient id="paint0_linear_1127_88765" x1="3.00001" y1="-4" x2="368" y2="812" gradientUnits="userSpaceOnUse">
<stop stop-color="#414155"/>
<stop offset="1" stop-color="#1A0E3C"/>
</linearGradient>
<linearGradient id="paint1_linear_1127_88765" x1="89" y1="-46" x2="222" y2="787" gradientUnits="userSpaceOnUse">
<stop stop-color="#1C1C2B" stop-opacity="0"/>
<stop offset="1" stop-color="#14101E"/>
</linearGradient>
<clipPath id="clip0_1127_88765">
<rect width="375" height="812" fill="white"/>
</clipPath>
</defs>
</svg>
