<svg width="24" height="24" viewBox="0 0 24 24" fill="none" xmlns="http://www.w3.org/2000/svg">
<path d="M13.314 12.0715L8.36396 7.12147C8.18181 6.93287 8.08101 6.68027 8.08329 6.41807C8.08557 6.15587 8.19074 5.90506 8.37615 5.71965C8.56155 5.53424 8.81237 5.42907 9.07456 5.4268C9.33676 5.42452 9.58936 5.52531 9.77796 5.70747L15.435 11.3645C15.6224 11.552 15.7278 11.8063 15.7278 12.0715C15.7278 12.3366 15.6224 12.5909 15.435 12.7785L9.77796 18.4355C9.58936 18.6176 9.33676 18.7184 9.07456 18.7161C8.81237 18.7139 8.56155 18.6087 8.37615 18.4233C8.19074 18.2379 8.08557 17.9871 8.08329 17.7249C8.08101 17.4627 8.18181 17.2101 8.36396 17.0215L13.314 12.0715Z" fill="#414155"/>
</svg>
