<svg width="56" height="56" viewBox="0 0 56 56" fill="none" xmlns="http://www.w3.org/2000/svg">
<path d="M28 56C43.464 56 56 43.464 56 28C56 12.536 43.464 0 28 0C12.536 0 0 12.536 0 28C0 43.464 12.536 56 28 56Z" fill="#E5E5EA"/>
<path d="M39.5733 50.0638C37.744 48.6078 35.8773 47.5998 34.1786 46.8904C34.9253 48.1411 35.6906 49.4104 35.224 50.9224C34.8133 52.2291 33.6373 53.2184 32.368 53.6478C31.5093 53.9464 30.5946 54.0398 29.68 54.0584C28.6533 54.0771 27.6453 54.0211 26.6373 53.8531C23.184 53.3118 18.2746 51.5758 17.7706 47.5438C17.6586 46.6478 17.7893 45.7144 18.144 44.8744C18.2746 44.5571 18.4426 44.2211 18.648 43.9411C18.816 43.9038 19.0026 43.8664 19.1706 43.8291C17.584 44.1464 15.624 44.7251 13.5146 45.7331C11.704 46.6104 10.2106 47.5998 8.99731 48.5704C13.9813 53.1811 20.664 55.9998 28 55.9998C33.096 55.9998 37.856 54.6371 41.9626 52.2664C41.2906 51.5384 40.488 50.7918 39.5733 50.0638Z" fill="#CACAD4"/>
<path d="M18.144 44.8557C17.7894 45.6957 17.6587 46.6104 17.7707 47.525C18.2747 51.5757 23.2027 53.293 26.6374 53.8343C27.6454 54.0023 28.672 54.0583 29.68 54.0397C30.5947 54.021 31.5094 53.9277 32.368 53.629C33.6374 53.1997 34.8134 52.229 35.224 50.9037C35.6907 49.4104 34.9254 48.1224 34.1787 46.8717C33.768 46.7037 33.376 46.5544 32.984 46.405C32.8534 46.3677 32.7227 46.3117 32.592 46.2744C32.592 46.293 32.592 46.3117 32.592 46.3304C32.592 46.349 32.592 46.3677 32.592 46.3677C32.592 46.461 32.592 46.5544 32.592 46.629C32.592 46.6664 32.592 46.7037 32.592 46.741C32.592 46.853 32.6107 46.965 32.6107 47.077C32.6107 47.1144 32.6107 47.133 32.6107 47.1704C32.6294 47.2637 32.6294 47.3757 32.648 47.469C32.648 47.4877 32.648 47.5064 32.648 47.525C32.6667 47.637 32.6854 47.749 32.704 47.861C32.704 47.8797 32.7227 47.917 32.7227 47.9357C32.7414 48.0477 32.7787 48.1784 32.7974 48.2904C32.984 48.9624 33.2827 49.7464 32.8347 50.381C32.48 50.885 31.752 51.1277 31.1734 51.2584C28.5787 51.837 26.0027 51.277 23.632 50.157C21.5974 49.1864 19.1707 47.5437 19.5254 44.9864C19.544 44.9117 19.544 44.8184 19.5627 44.7437C19.5814 44.669 19.5814 44.5757 19.6 44.501C19.6 44.4637 19.6187 44.4077 19.6187 44.3704C19.6374 44.221 19.656 44.0717 19.656 43.9224C19.656 43.9037 19.656 43.9037 19.656 43.885C19.656 43.829 19.6747 43.773 19.6747 43.6984V43.6797C19.5254 43.717 19.3574 43.7357 19.1894 43.773C19.1707 43.773 19.152 43.773 19.1334 43.7917C18.9654 43.829 18.7974 43.8664 18.6107 43.9037C18.4427 44.221 18.2747 44.5384 18.144 44.8557Z" fill="#CACAD4"/>
<path d="M19.04 33.8432C18.8907 33.1899 18.8347 32.3872 18.7973 32.0139C18.6666 30.5579 18.816 30.4085 18.6667 29.4939C18.648 29.3819 18.6293 29.2699 18.6107 29.1392C18.6107 29.1205 18.6107 29.0832 18.592 29.0645C18.592 29.0272 18.5733 29.0085 18.5733 28.9712C18.424 28.2245 18.1813 27.4219 17.5093 26.9925C17.024 26.6939 16.464 26.7125 16.072 26.7685C16.0533 26.7685 16.0533 26.7685 16.0347 26.7685C15.9787 26.7685 15.9413 26.7872 15.904 26.7872C15.7173 26.8245 15.1013 26.9552 14.616 27.4032C13.552 28.4299 13.9067 30.4832 14.448 31.6965C15.4 33.8619 17.7147 34.8325 18.816 36.8485C20.0293 39.0512 19.88 42.5792 19.544 44.9872C19.1893 47.5445 21.5973 49.2059 23.6507 50.1579C26.0213 51.2779 28.5973 51.8379 31.192 51.2592C31.7707 51.1285 32.48 50.9045 32.8533 50.3819C33.3013 49.7472 33.0027 48.9632 32.816 48.2912C32.48 47.0032 32.592 45.5845 32.592 44.2032C30.072 44.2405 27.608 43.0832 25.4987 41.7952C22.5867 40.0779 19.8053 37.3152 19.04 33.8432Z" fill="white"/>
<path d="M25.4987 41.8514C24.6027 41.31 23.7254 40.6567 22.9041 39.9287C23.3521 40.7687 24.0987 41.8327 25.2374 42.8034C28.1121 45.2487 31.5094 45.3047 32.5921 45.2674C32.5921 44.9314 32.6107 44.5954 32.6107 44.2594C30.0721 44.2967 27.6081 43.1394 25.4987 41.8514Z" fill="#EDEDF1"/>
<path d="M42.8587 22.1579C42.3734 18.4059 39.9094 15.1393 36.4747 13.5713C30.2587 10.7339 22.2507 12.4139 18.3494 17.8459C15.8481 21.3366 15.8294 25.2193 15.9227 26.8246C15.9601 26.8246 16.0161 26.8059 16.0534 26.8059C16.0721 26.8059 16.0721 26.8059 16.0907 26.8059C16.4267 26.7499 17.0054 26.7126 17.5281 27.0299C18.2001 27.4406 18.4427 28.2246 18.5921 29.0086C18.5921 29.0459 18.6107 29.0646 18.6107 29.1019C18.6107 29.1206 18.6107 29.1579 18.6294 29.1766C18.6481 29.2886 18.6667 29.4193 18.6854 29.5313C18.8347 30.4459 18.6854 30.5953 18.8161 32.0513C18.8534 32.4246 18.9094 33.2273 19.0587 33.8806C19.8241 37.3526 22.6054 40.1153 25.5174 41.8886C27.6267 43.1766 30.0907 44.3339 32.6107 44.2966C33.0214 44.2966 33.4321 44.2593 33.8427 44.1846C36.4374 43.7179 38.8081 42.2433 40.4507 40.1899C41.5147 38.8459 41.9441 37.6513 42.0934 35.9713C42.2614 34.0486 42.1681 32.1073 42.4294 30.1846C42.7654 27.4966 43.1947 24.8273 42.8587 22.1579Z" fill="white"/>
<path d="M39.6478 34.7581C39.3865 36.1021 40.5438 37.2967 41.7945 37.5394C41.9251 37.0354 42.0185 36.5127 42.0745 35.9154C42.1491 34.9447 42.1865 33.9741 42.2051 33.0034C41.0478 32.9847 39.9091 33.5261 39.6478 34.7581Z" fill="white"/>
<path d="M24.3599 34.6275C24.4346 36.0088 25.9092 36.8861 27.1972 36.7741C28.4479 36.6808 29.6799 35.5235 29.6239 34.2355C29.6239 34.1048 29.6052 33.9928 29.5679 33.8621C28.9519 31.2115 24.2106 31.9395 24.3599 34.6275Z" fill="white"/>
<path d="M37.8 35.1315C38.08 34.7582 37.8933 34.2168 37.7813 33.8622C37.7626 33.8062 37.4266 32.8915 36.904 32.9288C36.4933 32.9662 36.1946 33.4702 36.064 33.8622C35.9146 34.3288 35.784 34.7395 35.9893 35.0569C36.3066 35.5795 37.408 35.6355 37.8 35.1315Z" fill="#D9D9E4"/>
<path d="M40.376 29.5681C40.5813 29.5495 40.7867 29.5868 40.9733 29.6801C41.552 29.9601 41.776 30.5201 41.5333 31.1175C41.3653 31.5468 41.0107 31.9388 40.544 31.9948C40.208 32.0321 39.872 31.9388 39.592 31.7708C38.976 31.3788 39.1253 30.5201 39.536 30.0348C39.6107 29.9601 39.6853 29.8855 39.76 29.8108C39.9467 29.6615 40.1707 29.5681 40.376 29.5681Z" fill="#9F9FB0"/>
<path d="M33.4133 31.4163C33.0026 32.2003 31.8453 32.1443 31.1733 31.771C30.5013 31.3977 30.0719 30.4083 30.6319 29.755C31.0986 29.2137 31.8079 29.0643 32.4613 29.3443C33.2826 29.6803 33.7679 30.7443 33.4133 31.4163Z" fill="#9F9FB0"/>
<path d="M40.1146 26.2643H40.0959C39.9839 26.2083 40.1706 26.059 40.2079 26.0403C40.3386 25.9656 40.4879 25.9283 40.6186 25.891C40.9732 25.8163 41.4026 25.835 41.7012 26.059C42.1119 26.339 42.2799 26.899 42.2612 26.9176C42.2612 26.9176 42.2426 26.9176 42.2239 26.899C42.2239 26.899 42.0932 26.6936 41.8879 26.5256C41.4212 26.1523 40.6746 26.1896 40.1146 26.2643Z" fill="#7E7E99"/>
<path d="M29.8479 26.5258C29.8292 26.5258 29.8105 26.5258 29.7732 26.5258C29.7545 26.5072 29.7732 26.4885 29.7732 26.4698C29.8479 26.3392 29.9412 26.2085 30.0532 26.0965C30.9119 25.1632 32.3492 24.9018 33.3759 25.7418C33.5812 25.9098 33.2639 25.8912 33.1705 25.8725C32.5919 25.7045 31.9572 25.6485 31.3599 25.7605C31.0612 25.8165 30.7812 25.9285 30.5012 26.0778C30.3705 26.1525 30.2399 26.2272 30.1279 26.3205C30.0532 26.3765 29.9599 26.4885 29.8479 26.5258Z" fill="#7E7E99"/>
<path d="M37.1653 38.5282C37.0533 38.5469 36.9227 38.5655 36.792 38.5842C36.792 38.6962 36.7733 38.8082 36.7173 38.9202C36.456 39.4242 35.5227 39.4055 34.7947 39.3495C35.392 39.8162 35.784 40.3202 36.064 40.7122C36.3627 40.5629 36.6053 40.3762 36.8107 40.1709H36.792H36.8107C37.184 39.7789 37.4453 39.3309 37.5387 38.9389C37.5947 38.6962 37.3893 38.4722 37.1653 38.5282Z" fill="#C1C1CD"/>
<path d="M34.7946 39.3306C34.6453 39.312 34.5146 39.2933 34.4026 39.2933C33.8613 39.2373 33.1333 39.088 32.2746 38.7146C31.9013 38.5466 31.5093 38.36 31.0986 38.0986C31.0613 38.696 31.416 39.4613 31.8826 39.9653C32.088 40.1706 32.2933 40.32 32.4613 40.432C32.4613 40.432 32.4613 40.432 32.48 40.432C32.4986 40.432 32.4986 40.4506 32.5173 40.4506C32.8533 40.6746 33.2453 40.8426 33.656 40.9173C34.664 41.1226 35.4666 40.992 36.064 40.6746C35.8026 40.3013 35.392 39.7973 34.7946 39.3306Z" fill="#C1C1CD"/>
<path d="M34.4026 39.2938C34.5146 39.3124 34.664 39.3311 34.7946 39.3311C35.504 39.4058 36.4373 39.4244 36.7173 38.9018C36.7733 38.8084 36.792 38.6964 36.792 38.5658C36.624 38.5844 36.4373 38.6031 36.2506 38.5844C34.104 38.5284 32.7413 36.7178 31.6026 37.2591C31.416 37.3524 31.2853 37.5018 31.2853 37.5018C31.1733 37.6511 31.1173 37.8564 31.0986 38.0618C31.5093 38.3231 31.9013 38.5284 32.2746 38.6778C33.1333 39.0884 33.8613 39.2191 34.4026 39.2938Z" fill="#C1C1CD"/>
</svg>
