<svg width="48" height="48" viewBox="0 0 48 48" fill="none" xmlns="http://www.w3.org/2000/svg">
<rect width="48" height="48" rx="24" fill="#DDDBFF"/>
<path d="M24.5667 18.9C25.15 18.7 25.5833 18.15 25.65 17.5333C25.6917 17.1416 25.6083 16.775 25.4167 16.475L24.35 14.625C24.1917 14.35 23.7917 14.35 23.625 14.625L22.5583 16.475C22.4167 16.725 22.3333 17.0166 22.3333 17.3333C22.3333 18.4333 23.4167 19.2916 24.5667 18.9ZM27.775 27.2666L26.9417 26.4333L26.0417 27.325C24.9583 28.4083 23.0583 28.4166 21.9667 27.325L21.075 26.4333L20.1667 27.325C19.625 27.8666 18.9 28.1666 18.1333 28.1666C17.525 28.1666 16.9667 27.9749 16.5 27.6583V30.6666C16.5 31.5833 17.25 32.3333 18.1667 32.3333H29.8333C30.75 32.3333 31.5 31.5833 31.5 30.6666V27.6583C30.875 28.0833 30.075 28.2833 29.2167 28.0916C28.6667 27.9749 28.175 27.6666 27.775 27.2666ZM29 21.5H24.8333V20.6666C24.8333 20.2083 24.4583 19.8333 24 19.8333C23.5417 19.8333 23.1667 20.2083 23.1667 20.6666V21.5H19C17.6167 21.5 16.5 22.6166 16.5 24V25.2166C16.5 25.925 16.9167 26.6083 17.5917 26.8333C18.2 27.0333 18.8583 26.8833 19.2833 26.45L21.0667 24.675L22.8417 26.45C23.475 27.0833 24.5167 27.0833 25.15 26.45L26.9333 24.675L28.7083 26.45C29.0667 26.8083 29.5667 26.9749 30.0833 26.9083C30.9083 26.8 31.4917 26.025 31.4917 25.1916V24.0083C31.5 22.6166 30.3833 21.5 29 21.5Z" fill="#5216FF"/>
</svg>
