<svg width="24" height="24" viewBox="0 0 24 24" fill="none" xmlns="http://www.w3.org/2000/svg">
<path d="M7.094 18.32C8.63317 19.5165 10.5563 20.1098 12.5021 19.9885C14.4478 19.8671 16.2823 19.0394 17.6608 17.6608C19.0394 16.2823 19.8671 14.4478 19.9885 12.5021C20.1098 10.5563 19.5165 8.63317 18.32 7.094L7.094 18.32ZM5.68 16.906L16.906 5.68C15.3668 4.48347 13.4437 3.89016 11.4979 4.01154C9.55218 4.13291 7.7177 4.96062 6.33916 6.33916C4.96062 7.7177 4.13291 9.55218 4.01154 11.4979C3.89016 13.4437 4.48347 15.3668 5.68 16.906ZM12 22C6.477 22 2 17.523 2 12C2 6.477 6.477 2 12 2C17.523 2 22 6.477 22 12C22 17.523 17.523 22 12 22Z" fill="#D91F1F"/>
</svg>
