<svg width="24" height="32" viewBox="0 0 24 32" fill="none" xmlns="http://www.w3.org/2000/svg">
<g clip-path="url(#clip0_1243_141957)">
<g filter="url(#filter0_f_1243_141957)">
<ellipse cx="12" cy="29" rx="4" ry="2" fill="black" fill-opacity="0.12"/>
</g>
<path fill-rule="evenodd" clip-rule="evenodd" d="M17.9159 20.0632C20.3926 18.243 22 15.3092 22 12C22 6.47715 17.5228 2 12 2C6.47715 2 2 6.47715 2 12C2 15.3092 3.60742 18.243 6.08406 20.0632C7.96608 21.4813 10.619 23.7185 11.2288 27.3195C11.2934 27.701 11.6131 27.997 12 27.997C12.3869 27.997 12.7066 27.701 12.7712 27.3195C13.381 23.7185 16.0339 21.4813 17.9159 20.0632Z" fill="#FF5255"/>
<path d="M11.3943 12.94C10.6669 12.7894 10.0212 12.3749 9.5818 11.7764C9.14242 11.178 8.94056 10.4381 9.01521 9.69957C9.08986 8.96109 9.43572 8.27645 9.986 7.77787C10.5363 7.2793 11.2519 7.00217 11.9947 7C12.7392 6.99925 13.4575 7.27497 14.01 7.77363C14.5626 8.27228 14.91 8.9583 14.9848 9.6985C15.0596 10.4387 14.8565 11.1803 14.4149 11.7793C13.9734 12.3783 13.3248 12.792 12.5952 12.94V18.4C12.5952 18.5591 12.5319 18.7117 12.4193 18.8243C12.3067 18.9368 12.154 19 11.9947 19C11.8355 19 11.6827 18.9368 11.5701 18.8243C11.4575 18.7117 11.3943 18.5591 11.3943 18.4V12.94Z" fill="white"/>
</g>
<defs>
<filter id="filter0_f_1243_141957" x="6" y="25" width="12" height="8" filterUnits="userSpaceOnUse" color-interpolation-filters="sRGB">
<feFlood flood-opacity="0" result="BackgroundImageFix"/>
<feBlend mode="normal" in="SourceGraphic" in2="BackgroundImageFix" result="shape"/>
<feGaussianBlur stdDeviation="1" result="effect1_foregroundBlur_1243_141957"/>
</filter>
<clipPath id="clip0_1243_141957">
<rect width="24" height="32" fill="white"/>
</clipPath>
</defs>
</svg>
