<svg width="40" height="40" viewBox="0 0 40 40" fill="none" xmlns="http://www.w3.org/2000/svg">
<path fill-rule="evenodd" clip-rule="evenodd" d="M17.0601 8.33333C16.4288 8.33333 15.8517 8.69 15.5694 9.25464L14.3634 11.6667H11.6667C9.82572 11.6667 8.33333 13.1591 8.33333 15V28.3333C8.33333 30.1743 9.82572 31.6667 11.6667 31.6667H28.3333C30.1743 31.6667 31.6667 30.1743 31.6667 28.3333V15C31.6667 13.1591 30.1743 11.6667 28.3333 11.6667H25.6366L24.4306 9.25464C24.1483 8.69 23.5712 8.33333 22.9399 8.33333H17.0601ZM12.588 7.76393C13.4349 6.07001 15.1663 5 17.0601 5H22.9399C24.8337 5 26.5651 6.07001 27.412 7.76393L27.6967 8.33333H28.3333C32.0152 8.33333 35 11.3181 35 15V28.3333C35 32.0152 32.0152 35 28.3333 35H11.6667C7.98477 35 5 32.0152 5 28.3333V15C5 11.3181 7.98477 8.33333 11.6667 8.33333H12.3033L12.588 7.76393Z" fill="white"/>
<path fill-rule="evenodd" clip-rule="evenodd" d="M20.0002 25C21.8411 25 23.3335 23.5076 23.3335 21.6667C23.3335 19.8257 21.8411 18.3333 20.0002 18.3333C18.1592 18.3333 16.6668 19.8257 16.6668 21.6667C16.6668 23.5076 18.1592 25 20.0002 25ZM20.0002 28.3333C23.6821 28.3333 26.6668 25.3486 26.6668 21.6667C26.6668 17.9848 23.6821 15 20.0002 15C16.3183 15 13.3335 17.9848 13.3335 21.6667C13.3335 25.3486 16.3183 28.3333 20.0002 28.3333Z" fill="white"/>
</svg>
