<svg width="24" height="24" viewBox="0 0 24 24" fill="none" xmlns="http://www.w3.org/2000/svg">
<path d="M10.486 16.7294C10.3547 16.7297 10.2247 16.704 10.1034 16.6539C9.98204 16.6038 9.87181 16.5302 9.77899 16.4374L5.53699 12.1944C5.44141 12.1022 5.36516 11.9919 5.31266 11.87C5.26017 11.748 5.23249 11.6168 5.23125 11.484C5.23 11.3512 5.25521 11.2196 5.3054 11.0966C5.3556 10.9737 5.42977 10.862 5.52359 10.768C5.61742 10.6741 5.72902 10.5997 5.85188 10.5494C5.97474 10.499 6.1064 10.4736 6.23918 10.4747C6.37196 10.4757 6.50319 10.5032 6.62523 10.5555C6.74727 10.6079 6.85767 10.684 6.94999 10.7794L10.485 14.3144L16.85 7.95141C17.0375 7.76377 17.2919 7.6583 17.5571 7.6582C17.8224 7.65811 18.0768 7.7634 18.2645 7.95091C18.4521 8.13841 18.5576 8.39278 18.5577 8.65805C18.5578 8.92332 18.4525 9.17777 18.265 9.36541L11.193 16.4374C11.1002 16.5302 10.9899 16.6038 10.8686 16.6539C10.7473 16.704 10.6173 16.7297 10.486 16.7294Z" fill="#04B014"/>
</svg>
