<svg width="20" height="20" viewBox="0 0 20 20" fill="none" xmlns="http://www.w3.org/2000/svg">
<path d="M10.0592 11.0952L14.1842 6.97023C14.2611 6.89064 14.353 6.82715 14.4547 6.78348C14.5564 6.7398 14.6657 6.71681 14.7764 6.71585C14.887 6.71489 14.9968 6.73598 15.0992 6.77788C15.2016 6.81978 15.2946 6.88165 15.3729 6.9599C15.4511 7.03814 15.513 7.13119 15.5549 7.2336C15.5968 7.33601 15.6179 7.44575 15.6169 7.55639C15.616 7.66704 15.593 7.77639 15.5493 7.87806C15.5056 7.97973 15.4421 8.07169 15.3625 8.14856L10.6484 12.8627C10.4921 13.019 10.2802 13.1067 10.0592 13.1067C9.83823 13.1067 9.62631 13.019 9.47004 12.8627L4.75587 8.14856C4.67628 8.07169 4.61279 7.97973 4.56912 7.87806C4.52545 7.77639 4.50246 7.66704 4.5015 7.55639C4.50053 7.44575 4.52162 7.33601 4.56352 7.2336C4.60542 7.13119 4.6673 7.03814 4.74554 6.9599C4.82379 6.88165 4.91683 6.81978 5.01924 6.77788C5.12166 6.73598 5.23139 6.71489 5.34204 6.71585C5.45269 6.71681 5.56204 6.7398 5.66371 6.78348C5.76538 6.82715 5.85733 6.89064 5.93421 6.97023L10.0592 11.0952Z" fill="black"/>
</svg>
