<svg width="16" height="16" viewBox="0 0 16 16" fill="none" xmlns="http://www.w3.org/2000/svg">
<path fill-rule="evenodd" clip-rule="evenodd" d="M7.99998 14.6666C11.6819 14.6666 14.6666 11.6818 14.6666 7.99992C14.6666 4.31802 11.6819 1.33325 7.99998 1.33325C4.31808 1.33325 1.33331 4.31802 1.33331 7.99992C1.33331 11.6818 4.31808 14.6666 7.99998 14.6666ZM6.47138 5.52851C6.21103 5.26816 5.78892 5.26816 5.52858 5.52851C5.26823 5.78886 5.26823 6.21097 5.52858 6.47132L7.05717 7.99992L5.52858 9.52851C5.26823 9.78886 5.26823 10.211 5.52858 10.4713C5.78892 10.7317 6.21103 10.7317 6.47138 10.4713L7.99998 8.94273L9.52858 10.4713C9.78893 10.7317 10.211 10.7317 10.4714 10.4713C10.7317 10.211 10.7317 9.78886 10.4714 9.52851L8.94279 7.99992L10.4714 6.47132C10.7317 6.21097 10.7317 5.78886 10.4714 5.52851C10.211 5.26816 9.78893 5.26816 9.52858 5.52851L7.99998 7.05711L6.47138 5.52851Z" fill="#67677A"/>
</svg>
