<svg width="99" height="90" viewBox="0 0 99 90" fill="none" xmlns="http://www.w3.org/2000/svg">
<g clip-path="url(#clip0_1453_101405)">
<path d="M54.5097 50.7798C70.1706 50.7798 84.1479 59.6973 90.1162 73.4992C91.1381 75.8613 90.0525 78.604 87.6888 79.6228C85.3282 80.6478 82.5886 79.5591 81.5667 77.1969C77.0707 66.8087 66.4541 60.0949 54.5113 60.0949C42.292 60.0949 31.6087 66.804 27.2974 77.1845C26.5535 78.9767 24.8188 80.0592 22.994 80.0592C22.3976 80.0592 21.7935 79.9458 21.208 79.7035C18.8318 78.7142 17.7059 75.9871 18.6936 73.6125C24.4507 59.7424 38.5119 50.7798 54.5097 50.7798ZM22.1289 18.6304C22.1289 13.3143 26.4417 9 31.7593 9C37.0754 9 41.3866 13.3128 41.3866 18.6304C41.3866 23.9511 37.0754 28.2639 31.7593 28.2639C26.4417 28.2639 22.1289 23.9511 22.1289 18.6304ZM65.7957 18.6304C65.7957 13.3143 70.1131 9 75.4276 9C80.7452 9 85.058 13.3128 85.058 18.6304C85.058 23.9511 80.7452 28.2639 75.4276 28.2639C70.1131 28.2639 65.7957 23.9511 65.7957 18.6304ZM2.47837 33.2243C6.16528 29.3681 15.6776 29.6507 15.6776 29.6507C13.2223 33.2056 12.7238 36.1595 12.7238 36.1595C12.1414 39.5078 10.329 41.4025 10.329 41.4025C6.34699 45.5709 2.2361 41.5734 2.2361 41.5734C-1.80801 37.7094 2.47837 33.2243 2.47837 33.2243ZM3.10891 57.4904C5.67452 54.8052 12.2982 55.0025 12.2982 55.0025C10.5883 57.4765 10.2404 59.5327 10.2404 59.5327C9.83511 61.8638 8.57404 63.1839 8.57404 63.1839C5.80187 66.0865 2.93963 63.3019 2.93963 63.3019C0.123971 60.6152 3.10891 57.4904 3.10891 57.4904Z" fill="#67677A"/>
</g>
<defs>
<clipPath id="clip0_1453_101405">
<rect width="98.0011" height="89.0592" fill="white" transform="translate(0.499451)"/>
</clipPath>
</defs>
</svg>
