<svg width="96" height="96" viewBox="0 0 96 96" fill="none" xmlns="http://www.w3.org/2000/svg">
<g clip-path="url(#clip0_1521_118586)">
<path d="M11.4998 83.0587C11.1308 83.0587 10.7618 83.1995 10.4804 83.4811L0.422297 93.5388C-0.140766 94.1019 -0.140766 95.0148 0.422297 95.5777C0.985359 96.1408 1.8983 96.1408 2.46117 95.5777L12.519 85.5198C13.0821 84.9568 13.0821 84.0438 12.519 83.481C12.2378 83.1995 11.8686 83.0587 11.4998 83.0587Z" fill="#67677A"/>
<path d="M94.5581 4.57764e-05C94.1891 4.57764e-05 93.8201 0.140856 93.5386 0.422482L79.9477 14.0134C79.3846 14.5765 79.3846 15.4894 79.9477 16.0523C80.5108 16.6154 81.4237 16.6154 81.9866 16.0523L95.5775 2.46136C96.1406 1.8983 96.1406 0.985357 95.5775 0.422482C95.2961 0.141045 94.9271 4.57764e-05 94.5581 4.57764e-05Z" fill="#67677A"/>
<path d="M49.2153 52.9013L39.2583 62.8583L43.9479 67.5479L53.9049 57.5909C55.1997 56.296 55.1997 54.1962 53.9049 52.9013C52.61 51.6064 50.5102 51.6064 49.2153 52.9013Z" fill="#F1F1F5"/>
<path d="M43.098 42.0939C42.4509 41.4468 41.6027 41.1232 40.7546 41.1232C39.9049 41.1219 39.0568 41.4453 38.4082 42.0939L28.4507 52.0515L33.1404 56.7412L43.098 46.7837C43.9926 45.8891 44.2684 44.6128 43.9301 43.4833C43.7775 42.9748 43.5004 42.4963 43.098 42.0939Z" fill="#F1F1F5"/>
<path d="M43.9297 43.4839C43.6185 43.3901 43.2976 43.344 42.974 43.344C42.1258 43.344 41.2775 43.6676 40.629 44.316L30.6714 54.2736L33.14 56.7422L43.0976 46.7846C43.9923 45.8901 44.2683 44.6136 43.9297 43.4839Z" fill="#D8D8D8"/>
<path d="M54.7368 54.2905C54.4256 54.1968 54.1048 54.1506 53.7812 54.1506C52.9329 54.1506 52.0847 54.4743 51.4361 55.1226L41.4785 65.0802L43.9471 67.5488L53.9047 57.5913C54.7993 56.6967 55.0751 55.4202 54.7368 54.2905Z" fill="#D8D8D8"/>
<path d="M7.04593 83.0415L18.019 72.0684L23.9322 77.9814L12.9591 88.9543C12.2627 89.6507 11.1342 89.6507 10.4378 88.9543L7.04593 85.5624C6.34993 84.8664 6.34993 83.7375 7.04593 83.0415Z" fill="#D8D8D8"/>
<path d="M7.0459 83.0417L18.019 72.0687L20.9755 75.0252L8.74184 87.2588L7.04609 85.563C6.3499 84.8667 6.3499 83.7377 7.0459 83.0417Z" fill="#F1F1F5"/>
<path d="M43.8905 72.1513L21.3536 54.6032L11.8162 64.1406C8.63809 67.3187 8.63809 72.4737 11.8162 75.6518L20.3476 84.1832C23.5273 87.3629 28.6807 87.3614 31.8588 84.1832L43.8905 72.1513Z" fill="#239999"/>
<path d="M46.6459 68.8879L27.1116 49.3535C25.5917 47.8337 23.1287 47.8337 21.6075 49.3549C20.0879 50.8745 20.0879 53.3377 21.6075 54.8576L41.1417 74.3917C42.6614 75.9114 45.1259 75.9129 46.6457 74.393C47.4057 73.6331 47.7863 72.6354 47.7863 71.6404C47.7865 70.6429 47.4059 69.6478 46.6459 68.8879Z" fill="#239999"/>
<path d="M46.6458 68.8877L32.2555 54.4974C30.7358 52.9777 28.2713 52.9762 26.75 54.4974C25.2303 56.0171 25.2316 58.4816 26.7513 60.0015L41.1415 74.3917C42.6612 75.9114 45.1257 75.9129 46.6456 74.393C47.4055 73.6331 47.7861 72.6354 47.7861 71.6404C47.7863 70.6427 47.4057 69.6476 46.6458 68.8877Z" fill="#45B8C4"/>
<path d="M39.2974 76.7443C39.2052 76.6693 39.1167 76.5886 39.0302 76.502L27.2207 64.6925C25.8552 63.3269 23.6416 63.3269 22.276 64.6925L17.3219 69.6466C14.1421 72.8244 14.1421 77.9786 17.3219 81.1582L20.3477 84.1841C23.5276 87.3618 28.6797 87.3618 31.8574 84.1841L39.2974 76.7443Z" fill="#45B8C4"/>
<path d="M73.0708 17.0157L81.6894 8.39708C82.3858 7.70071 83.5144 7.70071 84.2107 8.39708L87.6024 11.7888C88.2988 12.4851 88.2988 13.6137 87.6024 14.3101L78.9838 22.9287L73.0708 17.0157Z" fill="#D8D8D8"/>
<path d="M73.0708 17.0162L81.6894 8.39753C82.3858 7.70115 83.5144 7.70115 84.2107 8.39753L85.9065 10.0933L76.0271 19.9727L73.0708 17.0162Z" fill="#F1F1F5"/>
<path d="M84.4742 23.3412L72.6599 11.5268C68.5995 7.46648 62.0187 7.46779 57.9597 11.5268L43.7217 25.7648L72.9726 49.543L84.4742 38.0413C88.5332 33.9823 88.5332 27.4004 84.4742 23.3412Z" fill="#D8A32E"/>
<path d="M73.5232 50.0935L45.9062 22.4766C44.3863 20.9567 41.922 20.9554 40.4021 22.4753C38.8809 23.9965 38.8822 26.461 40.4021 27.9808L68.0192 55.5977C68.7804 56.359 69.7755 56.7396 70.7718 56.7383C71.7669 56.7383 72.7646 56.3577 73.5245 55.5977C75.0444 54.0778 75.0444 51.6147 73.5232 50.0935Z" fill="#D8A32E"/>
<path d="M73.523 50.0937L52.2762 28.8468C50.7575 27.3262 48.293 27.3243 46.7724 28.8449C46.7664 28.8509 46.7604 28.8569 46.7546 28.8627C45.8802 29.7483 45.9172 31.1868 46.7973 32.0667L68.6557 53.927C69.5611 54.8305 70.6839 55.34 71.7738 55.4322C72.5909 55.5033 73.3887 55.3381 74.0577 54.9324C75.0149 53.4273 74.8379 51.4087 73.523 50.0937Z" fill="#FFCA64"/>
<path d="M84.4745 23.3402L77.5525 16.4183C73.4935 12.3592 66.9129 12.3606 62.8537 16.4196L51.3521 27.9212L72.9729 49.542L84.4745 38.0404C88.5335 33.9814 88.5335 27.3994 84.4745 23.3402Z" fill="#FFCA64"/>
</g>
<defs>
<clipPath id="clip0_1521_118586">
<rect width="96" height="96" fill="white" transform="matrix(1 0 0 -1 0 96)"/>
</clipPath>
</defs>
</svg>
