<svg width="12" height="12" viewBox="0 0 12 12" fill="none" xmlns="http://www.w3.org/2000/svg">
<path d="M2 10.5C2 10.2239 2.22386 10 2.5 10H9.5C9.77614 10 10 10.2239 10 10.5C10 10.7761 9.77614 11 9.5 11H2.5C2.22386 11 2 10.7761 2 10.5Z" fill="#5216FF"/>
<path fill-rule="evenodd" clip-rule="evenodd" d="M6.20591 1.58676C6.98696 0.805714 8.25329 0.805717 9.03433 1.58676L9.41301 1.96544C10.1941 2.74649 10.1941 4.01282 9.41301 4.79387L5.95996 8.2469C5.82125 8.38561 5.6448 8.48046 5.45257 8.51964L3.20078 8.9786C2.49851 9.12174 1.87809 8.50135 2.02121 7.79907L2.48011 5.54721C2.51929 5.35497 2.61414 5.17851 2.75287 5.03978L6.20591 1.58676ZM8.32723 2.29387C7.9367 1.90335 7.30354 1.90335 6.91302 2.29387L6.70719 2.49969L8.50008 4.29258L8.7059 4.08676C9.09643 3.69624 9.09643 3.06307 8.7059 2.67255L8.32723 2.29387ZM4.20719 4.99968L6.00008 3.20679L7.79298 4.99969L6.00008 6.79258L4.20719 4.99968ZM3.50008 5.70679L3.45997 5.74689L3.00107 7.99875L5.25286 7.53979L5.29297 7.49968L3.50008 5.70679Z" fill="#5216FF"/>
</svg>
