<svg width="21" height="20" viewBox="0 0 21 20" fill="none" xmlns="http://www.w3.org/2000/svg">
<path fill-rule="evenodd" clip-rule="evenodd" d="M9.6665 16.6667C9.6665 16.2064 10.0396 15.8333 10.4998 15.8333L13.1665 15.8333C13.8803 15.8333 14.3656 15.8327 14.7406 15.802C15.106 15.7722 15.2928 15.7181 15.4232 15.6517C15.7368 15.4919 15.9917 15.2369 16.1515 14.9233C16.2179 14.793 16.272 14.6061 16.3019 14.2408C16.3325 13.8657 16.3332 13.3805 16.3332 12.6667L16.3332 7.33333C16.3332 6.61952 16.3325 6.13427 16.3019 5.7592C16.272 5.39385 16.2179 5.20702 16.1515 5.07668C15.9917 4.76308 15.7368 4.50811 15.4232 4.34832C15.2928 4.28191 15.106 4.22781 14.7406 4.19796C14.3656 4.16731 13.8803 4.16667 13.1665 4.16667L10.4998 4.16667C10.0396 4.16667 9.6665 3.79357 9.6665 3.33333C9.6665 2.8731 10.0396 2.5 10.4998 2.5L13.2009 2.5C13.8717 2.49999 14.4254 2.49998 14.8764 2.53683C15.3448 2.5751 15.7754 2.65724 16.1798 2.86331C16.807 3.18289 17.3169 3.69282 17.6365 4.32003C17.8426 4.72448 17.9247 5.15506 17.963 5.62348C17.9999 6.07448 17.9998 6.62812 17.9998 7.29894V12.7011C17.9998 13.3719 17.9999 13.9255 17.963 14.3765C17.9247 14.8449 17.8426 15.2755 17.6365 15.68C17.3169 16.3072 16.807 16.8171 16.1798 17.1367C15.7754 17.3428 15.3448 17.4249 14.8764 17.4632C14.4254 17.5 13.8717 17.5 13.2009 17.5H10.4998C10.0396 17.5 9.6665 17.1269 9.6665 16.6667Z" fill="#D91F1F"/>
<path d="M6.92259 11.9111C7.24803 12.2365 7.24803 12.7641 6.92259 13.0896C6.59715 13.415 6.06951 13.415 5.74408 13.0896L3.24408 10.5896C2.91864 10.2641 2.91864 9.73651 3.24408 9.41107L5.74408 6.91107C6.06951 6.58563 6.59715 6.58563 6.92259 6.91107C7.24803 7.23651 7.24803 7.76414 6.92259 8.08958L5.84518 9.16699H13C13.4602 9.16699 13.8333 9.54009 13.8333 10.0003C13.8333 10.4606 13.4602 10.8337 13 10.8337H5.84518L6.92259 11.9111Z" fill="#D91F1F"/>
</svg>
