<svg width="114" height="127" viewBox="0 0 114 127" fill="none" xmlns="http://www.w3.org/2000/svg">
<path d="M35.0602 82.9072L46.4968 75.0106C46.5726 74.9441 46.6485 74.8776 46.7367 74.8397C46.766 74.8271 46.7954 74.8145 46.7954 74.8145C46.8248 74.8019 46.8419 74.7606 46.8713 74.748C47.0818 74.5898 47.2923 74.4315 47.4611 74.2571C47.4905 74.2445 47.5075 74.2032 47.5663 74.178C47.7645 73.9911 47.9627 73.8041 48.1486 73.5884C48.178 73.5758 48.195 73.5345 48.195 73.5345C48.3809 73.3189 48.5668 73.1033 48.711 72.8715L48.728 72.8302C48.9016 72.5859 49.0458 72.3542 49.1899 72.1224C49.1899 72.1224 49.1899 72.1224 49.2193 72.1098C49.3512 71.8494 49.4954 71.6177 49.6149 71.3286C50.7477 68.94 50.7669 66.1459 49.6077 63.6875C49.4969 63.4293 49.3444 63.155 49.1748 62.922L49.1625 62.8933C49.0593 62.7337 48.9977 62.5903 48.8651 62.4433C48.7865 62.3412 48.7201 62.2677 48.6415 62.1655C48.6415 62.1655 48.6415 62.1656 48.6292 62.1369L40.3483 51.3528C37.3234 47.3847 31.552 46.6673 27.4645 49.7121C23.3769 52.7569 22.547 58.4469 25.5719 62.415L28.1127 65.7415L24.5951 68.168C20.4043 71.0533 19.3194 76.7167 22.1803 80.7892C25.1417 84.8525 30.8693 85.7925 35.0602 82.9072Z" fill="url(#paint0_linear_208_31931)"/>
<path d="M73.8175 44.196C68.8996 42.467 63.4093 45.1623 61.7713 49.942C60.1845 54.5978 62.7435 59.7511 67.5287 61.3332C69.3266 61.9547 72.8738 63.4904 75.7435 67.0156C76.7287 68.2575 77.5917 69.62 78.2442 71.1407C82.1712 80.2935 77.7477 90.9906 68.3724 95.0131C61.0251 98.1655 52.8077 96.2893 47.7113 90.8997C44.2587 87.5568 38.78 87.3594 35.2167 90.2472C31.3205 93.4137 30.6971 99.4227 34.1363 103.383C36.305 105.68 42.7215 111.794 53.3757 113.916C60.6093 115.365 68.3339 114.633 75.4756 111.568C94.1085 103.574 103.024 82.0144 95.219 63.8236C91.2673 54.6134 83.4958 47.4498 73.8175 44.196Z" fill="url(#paint1_linear_208_31931)"/>
<path d="M53.7658 60.2385C55.7439 62.8212 58.9008 64.0147 62.0033 63.7028C60.057 62.3296 58.4454 60.439 57.436 58.0863C54.8262 52.0035 57.1267 45.037 62.6079 41.4283L45.9429 19.7006C42.918 15.7325 37.1466 15.0151 33.059 18.0599C28.9715 21.1047 28.1416 26.7947 31.1665 30.7628L53.7658 60.2385Z" fill="url(#paint2_linear_208_31931)"/>
<path d="M81.078 25.439L76.5795 11.1438C75.08 6.3787 69.9358 3.77521 65.0549 5.31115C60.174 6.8471 57.4477 11.9273 58.9472 16.6924L63.4457 30.9876L66.2198 39.803C69.8288 38.7001 73.5123 39.112 76.5922 40.6958C81.0328 42.768 85.0718 45.5883 88.4794 49.0656L81.078 25.439Z" fill="url(#paint3_linear_208_31931)"/>
<defs>
<linearGradient id="paint0_linear_208_31931" x1="49.7181" y1="91.4439" x2="-5.6269" y2="87.9157" gradientUnits="userSpaceOnUse">
<stop stop-color="#D902A9"/>
<stop offset="1" stop-color="#FF8586"/>
<stop offset="1" stop-color="#FFB847"/>
</linearGradient>
<linearGradient id="paint1_linear_208_31931" x1="97.2168" y1="130.255" x2="-21.7826" y2="114.63" gradientUnits="userSpaceOnUse">
<stop stop-color="#D902A9"/>
<stop offset="1" stop-color="#FF8586"/>
<stop offset="1" stop-color="#FFB847"/>
</linearGradient>
<linearGradient id="paint3_linear_208_31931" x1="88.3535" y1="69.3425" x2="53.5075" y2="73.0062" gradientUnits="userSpaceOnUse">
<stop stop-color="#D902A9"/>
<stop offset="1" stop-color="#FF8586"/>
<stop offset="1" stop-color="#FFB847"/>
</linearGradient>
</defs>
</svg>
