<svg width="20" height="16" viewBox="0 0 20 16" fill="none" xmlns="http://www.w3.org/2000/svg">
<path d="M9.29321 1.55029L10.0002 2.25829L10.7072 1.55129C11.1708 1.08366 11.7221 0.712196 12.3296 0.458221C12.9371 0.204246 13.5888 0.0727627 14.2472 0.0713209C14.9057 0.069879 15.5579 0.198507 16.1666 0.449819C16.7752 0.701131 17.3281 1.07018 17.7937 1.53578C18.2593 2.00137 18.6284 2.55434 18.8797 3.16295C19.131 3.77156 19.2596 4.42381 19.2582 5.08226C19.2567 5.74071 19.1253 6.39239 18.8713 6.99989C18.6173 7.60739 18.2458 8.15874 17.7782 8.62229L10.7082 15.6933C10.6153 15.7863 10.505 15.86 10.3836 15.9104C10.2623 15.9607 10.1321 15.9866 10.0007 15.9866C9.86929 15.9866 9.73917 15.9607 9.61777 15.9104C9.49637 15.86 9.38608 15.7863 9.29321 15.6933L2.22221 8.62229C1.74822 8.16023 1.3707 7.60865 1.11154 6.99955C0.85238 6.39045 0.716746 5.73596 0.712505 5.07403C0.708264 4.4121 0.8355 3.75592 1.08683 3.14355C1.33816 2.53118 1.70859 1.9748 2.17662 1.50671C2.64465 1.03861 3.20097 0.668108 3.8133 0.41669C4.42564 0.165271 5.0818 0.0379429 5.74373 0.0420903C6.40566 0.0462378 7.06018 0.181779 7.66931 0.440851C8.27845 0.699923 8.83008 1.07737 9.29221 1.55129L9.29321 1.55029Z" fill="#5216FF"/>
</svg>
