<svg width="22" height="20" viewBox="0 0 22 20" fill="none" xmlns="http://www.w3.org/2000/svg">
<path d="M21.5346 5.19002C21.6212 5.61316 21.6667 6.05127 21.6667 6.5C21.6667 6.50002 21.6667 6.49998 21.6667 6.5C21.6667 14.4637 14.4393 18.2067 11.791 19.3108C11.1741 19.568 10.4926 19.568 9.87568 19.3108C9.54465 19.1728 9.14206 18.9935 8.69099 18.77C5.53349 17.205 0 13.4683 0 6.5001C0 2.91025 2.91015 0 6.5 0C8.16477 0 9.68336 0.62585 10.8333 1.6551C11.9833 0.62585 13.5019 0 15.1667 0C16.5695 0 17.8685 0.444375 18.9306 1.20003C20.2468 2.13644 21.1992 3.55086 21.5346 5.19002Z" fill="url(#paint0_linear_208_31945)"/>
<defs>
<linearGradient id="paint0_linear_208_31945" x1="14.3542" y1="27.2239" x2="-16.6091" y2="8.81685" gradientUnits="userSpaceOnUse">
<stop stop-color="#D902A9"/>
<stop offset="1" stop-color="#FF8586"/>
<stop offset="1" stop-color="#FFB847"/>
</linearGradient>
</defs>
</svg>
