<svg width="20" height="20" viewBox="0 0 20 20" fill="none" xmlns="http://www.w3.org/2000/svg">
<path fill-rule="evenodd" clip-rule="evenodd" d="M10.0001 3.33366C6.31818 3.33366 3.33341 6.31843 3.33341 10.0003C3.33341 13.6822 6.31818 16.667 10.0001 16.667C13.682 16.667 16.6667 13.6822 16.6667 10.0003C16.6667 6.31843 13.682 3.33366 10.0001 3.33366ZM1.66675 10.0003C1.66675 5.39795 5.39771 1.66699 10.0001 1.66699C14.6025 1.66699 18.3334 5.39795 18.3334 10.0003C18.3334 14.6027 14.6025 18.3337 10.0001 18.3337C5.39771 18.3337 1.66675 14.6027 1.66675 10.0003Z" fill="#414155"/>
<path fill-rule="evenodd" clip-rule="evenodd" d="M9.27771 7.91695C9.04726 8.31533 8.53748 8.45147 8.1391 8.22101C7.74072 7.99056 7.60458 7.48079 7.83503 7.0824C8.26604 6.33733 9.07367 5.83301 10.0001 5.83301C11.3808 5.83301 12.5001 6.9523 12.5001 8.33301C12.5001 9.24778 11.9389 9.99466 11.2501 10.4163C10.6967 10.7551 11.0417 11.6663 9.99788 11.6663C9.53765 11.6663 9.16455 11.2932 9.16455 10.833C9.16455 10.8037 9.16606 10.7748 9.169 10.7464C9.19211 10.3056 9.38863 9.94704 9.6026 9.68629C9.82858 9.4109 10.1257 9.1861 10.3529 9.05105C11.6168 8.29967 10.0752 6.76251 9.27771 7.91695ZM9.99788 12.4997C9.53765 12.4997 9.16455 12.8728 9.16455 13.333C9.16455 13.7932 9.53765 14.1663 9.99788 14.1663C10.4581 14.1663 10.8312 13.7932 10.8312 13.333C10.8312 12.8728 10.4581 12.4997 9.99788 12.4997Z" fill="#414155"/>
</svg>
