<svg width="33" height="32" viewBox="0 0 33 32" fill="none" xmlns="http://www.w3.org/2000/svg">
<path d="M21.8333 22.573C25.0215 20.7287 27.1666 17.2815 27.1666 13.3334C27.1666 7.44232 22.391 2.66669 16.4999 2.66669C10.6089 2.66669 5.83325 7.44232 5.83325 13.3334C5.83325 17.2815 7.97831 20.7287 11.1666 22.573V24C11.1666 24.7364 11.7635 25.3334 12.4999 25.3334H20.4999C21.2363 25.3334 21.8333 24.7364 21.8333 24V22.573Z" fill="white"/>
<path d="M12.5 25.3333H20.5V26.6666C20.5 28.1394 19.3061 29.3333 17.8333 29.3333H15.1667C13.6939 29.3333 12.5 28.1394 12.5 26.6666V25.3333Z" fill="#FAFAFA"/>
<path d="M14.7761 13.7238C14.2554 13.2031 13.4112 13.2031 12.8905 13.7238C12.3698 14.2445 12.3698 15.0888 12.8905 15.6095L15.1667 17.8856V25.3333H17.8333V17.8856L20.1095 15.6095C20.6302 15.0888 20.6302 14.2445 20.1095 13.7238C19.5888 13.2031 18.7446 13.2031 18.2239 13.7238L16.5 15.4477L14.7761 13.7238Z" fill="#FFCA64"/>
</svg>
