<svg width="235" height="61" viewBox="0 0 235 61" fill="none" xmlns="http://www.w3.org/2000/svg">
<path d="M6.41696 35.9307L14.2844 34.3153C14.3385 34.3018 14.3926 34.2883 14.4466 34.2748C14.4601 34.268 14.4737 34.268 14.4872 34.268C14.5075 34.2613 14.5277 34.2545 14.548 34.2477C14.6967 34.2072 14.8386 34.1666 14.9806 34.1193C15.0009 34.1126 15.0279 34.1058 15.0482 34.0923C15.1969 34.0382 15.3456 33.9774 15.4875 33.9098C15.501 33.903 15.5145 33.8963 15.5281 33.8895C15.6768 33.8152 15.8187 33.7408 15.9539 33.6597C15.9606 33.6529 15.9742 33.6462 15.9809 33.6462C16.1229 33.5583 16.258 33.4637 16.3932 33.3691C16.4 33.3691 16.4 33.3623 16.4067 33.3623C16.5419 33.2609 16.6703 33.1528 16.7988 33.0379C17.9343 31.997 18.5966 30.4897 18.5291 28.8879V28.8811C18.5223 28.7121 18.5088 28.5364 18.4817 28.3607C18.4817 28.3539 18.4817 28.3404 18.475 28.3336C18.4615 28.2322 18.4479 28.1309 18.4277 28.0295C18.4141 27.9619 18.3939 27.8943 18.3736 27.8267C18.3736 27.8199 18.3736 27.8199 18.3736 27.8132L16.4473 19.9998C15.7376 17.1408 12.8447 15.3969 9.97894 16.1066C7.11989 16.8163 5.37607 19.7092 6.08577 22.575L6.68056 24.9812L4.26084 25.4746C1.37476 26.0694 -0.483962 28.8879 0.110828 31.774C0.705618 34.6668 3.53087 36.5255 6.41696 35.9307Z" fill="#FF5B6E"/>
<path d="M35.7982 23.9133C33.5813 21.8247 30.0531 22.0072 28.0862 24.2309C26.1802 26.3938 26.3627 29.7936 28.5594 31.7672C29.3637 32.5242 30.9115 34.1869 31.6212 36.7756C31.8713 37.6746 31.9997 38.6276 31.9997 39.6076C31.9997 45.5015 27.2211 50.2801 21.3273 50.2801C16.7041 50.2801 12.7839 47.3331 11.2969 43.2237C10.2358 40.5944 7.36996 39.2156 4.80831 39.9658C2.01685 40.7769 0.320343 43.8928 1.25308 46.8532C1.88843 48.5971 3.89584 53.4365 9.06646 57.0728C12.5811 59.5399 16.8393 60.9592 21.3273 60.9592C33.0338 60.9592 42.6721 51.3277 42.6721 39.6144C42.6789 33.6462 40.1781 27.9551 35.7982 23.9133Z" fill="#191919"/>
<path d="M21.4895 27.9688C21.9558 29.841 23.3549 31.2266 25.0717 31.7673C24.3485 30.5642 23.9227 29.1584 23.9227 27.6511C23.9227 23.7376 26.7412 20.4866 30.4519 19.7972L26.5452 4.08929C25.8355 1.23024 22.9426 -0.51358 20.0768 0.196113C17.2178 0.905806 15.474 3.79865 16.1837 6.66446L21.4895 27.9688Z" fill="#191919"/>
<path d="M37.3394 0C34.3925 0 32.0066 2.38592 32.0066 5.33284V14.1939V19.6551C34.183 19.6754 36.1498 20.5676 37.576 21.9937C39.6578 23.9403 41.3948 26.2586 42.679 28.8338V14.2006V5.3396C42.679 2.39268 40.2863 0 37.3394 0Z" fill="#191919"/>
<path d="M233.956 38.2799C233.525 37.4649 232.774 36.8897 231.879 36.7139C230.473 36.4263 229.035 37.1773 228.475 38.4876C226.638 42.786 221.972 45.2148 217.386 44.2561C215.516 43.8726 213.838 42.9778 212.496 41.6515L231.879 30.466C232.79 29.9387 233.349 28.9959 233.381 27.9573C233.429 27.3181 233.269 26.7109 232.933 26.1676C228.955 19.7599 220.933 17.0115 213.838 19.6321C207.654 21.9171 203.484 27.8934 203.436 34.5407L203.548 36.4422C203.564 36.5861 203.58 36.7459 203.612 36.9536L203.628 37.0654C204.65 43.585 209.684 48.8581 216.155 50.2004C217.226 50.4241 218.312 50.5359 219.367 50.5359C225.631 50.5359 231.511 46.8128 234.036 40.8845C234.42 40.0376 234.388 39.0788 233.956 38.2799ZM209.604 35.7551C209.588 35.6113 209.572 35.4675 209.556 35.3237C209.54 35.2278 209.54 35.116 209.54 34.9242C209.396 30.6578 211.985 26.8068 215.979 25.3367C219.335 24.0903 223.026 24.7455 225.743 27.0145L209.684 36.2825C209.652 36.1067 209.62 35.9309 209.604 35.7551Z" fill="#191919"/>
<path d="M120.216 18.6256C118.538 18.6256 117.18 19.9838 117.18 21.6617V39.7501C117.18 42.3548 115.071 44.464 112.466 44.464C109.861 44.464 107.752 42.3548 107.752 39.7501V21.6617C107.752 19.9838 106.394 18.6256 104.716 18.6256C103.038 18.6256 101.68 19.9838 101.68 21.6617V39.7501C101.68 42.3548 99.5708 44.464 96.9661 44.464C94.3615 44.464 92.2523 42.3548 92.2523 39.7501V21.6617C92.2523 19.9838 90.894 18.6256 89.2162 18.6256C87.5384 18.6256 86.1802 19.9838 86.1802 21.6617V39.7501C86.1802 45.6944 91.0219 50.5361 96.9661 50.5361C99.8903 50.5361 102.687 49.3377 104.716 47.2444C106.745 49.3537 109.542 50.5361 112.466 50.5361C118.41 50.5361 123.252 45.6944 123.252 39.7501V21.6617C123.252 19.9998 121.894 18.6256 120.216 18.6256Z" fill="#191919"/>
<path d="M77.6793 32.4475C79.3571 32.4475 80.7154 31.0893 80.7154 29.4115C80.7154 27.7337 79.3571 26.3754 77.6793 26.3754H67.8042V16.5003C67.8042 14.8225 66.4459 13.4642 64.7681 13.4642C63.0903 13.4642 61.7321 14.8225 61.7321 16.5003V39.75C61.7321 45.6943 66.5738 50.536 72.518 50.536H77.6793C79.3571 50.536 80.7154 49.1778 80.7154 47.5C80.7154 45.8222 79.3571 44.4639 77.6793 44.4639H72.518C69.9134 44.4639 67.8042 42.3547 67.8042 39.75V32.4475H77.6793Z" fill="#191919"/>
<path d="M144.664 18.6256C135.876 18.6256 128.717 25.7843 128.717 34.5729C128.717 43.3614 135.876 50.5201 144.664 50.5201C153.453 50.5201 160.611 43.3614 160.611 34.5729C160.611 25.7843 153.469 18.6256 144.664 18.6256ZM144.664 44.464C139.215 44.464 134.789 40.0378 134.789 34.5889C134.789 29.1399 139.215 24.7137 144.664 24.7137C150.113 24.7137 154.539 29.1399 154.539 34.5889C154.539 40.0378 150.113 44.464 144.664 44.464Z" fill="#191919"/>
<path d="M182.04 18.6256C173.251 18.6256 166.092 25.7843 166.092 34.5729V47.5001C166.092 49.1779 167.451 50.5361 169.128 50.5361C170.806 50.5361 172.164 49.1779 172.164 47.5001V34.5889C172.164 29.1399 176.591 24.7137 182.04 24.7137C187.488 24.7137 191.915 29.1399 191.915 34.5889V47.5001C191.915 49.1779 193.273 50.5361 194.951 50.5361C196.629 50.5361 197.987 49.1779 197.987 47.5001V34.5889C197.987 25.7843 190.828 18.6256 182.04 18.6256Z" fill="#191919"/>
</svg>
