<svg width="174" height="42" viewBox="0 0 174 42" fill="none" xmlns="http://www.w3.org/2000/svg">
<path d="M18.8475 21.4542C20.4439 21.4542 21.7501 20.1641 21.7501 18.5874C21.7501 17.0107 20.4439 15.7207 18.8475 15.7207H9.43019V6.40384C9.43019 4.82714 8.12402 3.53711 6.52759 3.53711C4.93117 3.53711 3.625 4.82714 3.625 6.40384V28.3025C3.625 33.9085 8.2369 38.4634 13.9131 38.4634H18.8475C20.4439 38.4634 21.7501 37.1734 21.7501 35.5967C21.7501 34.02 20.4439 32.73 18.8475 32.73H13.9292C11.4459 32.73 9.43019 30.7392 9.43019 28.2865V21.4064H18.8475V21.4542Z" fill="#414155"/>
<path d="M60.093 8.41631C58.4763 8.41631 57.1535 9.7061 57.1535 11.2825V28.3204C57.1535 30.7726 55.1123 32.763 52.5974 32.763C50.0826 32.763 48.0413 30.7726 48.0413 28.3204V11.2825C48.0413 9.7061 46.7186 8.41631 45.1019 8.41631C43.4852 8.41631 42.1625 9.7061 42.1625 11.2825V28.3204C42.1625 30.7726 40.1212 32.763 37.6064 32.763C35.0915 32.763 33.0666 30.7567 33.0666 28.3045V11.2666C33.0666 9.69018 31.7439 8.40039 30.1272 8.40039C28.5105 8.40039 27.1877 9.69018 27.1877 11.2666V28.3045C27.1877 33.9095 31.8582 38.4635 37.6064 38.4635C40.4315 38.4635 43.126 37.333 45.0856 35.3585C47.0452 37.333 49.756 38.4635 52.5648 38.4635C58.313 38.4635 62.9834 33.9095 62.9834 28.3045V11.2666C63.0161 9.7061 61.7096 8.41631 60.093 8.41631Z" fill="#414155"/>
<path d="M83.8277 8.40039C75.3412 8.40039 68.4214 15.1359 68.4214 23.432C68.4214 31.7121 75.3249 38.4635 83.8277 38.4635C92.3306 38.4635 99.234 31.728 99.234 23.432C99.2177 15.1359 92.3142 8.40039 83.8277 8.40039ZM83.8277 32.7312C78.5726 32.7312 74.2804 28.5593 74.2804 23.416C74.2804 18.2728 78.5563 14.1009 83.8277 14.1009C89.0991 14.1009 93.3751 18.2728 93.3751 23.416C93.3751 28.5593 89.0828 32.7312 83.8277 32.7312Z" fill="#414155"/>
<path d="M120.062 8.8418C111.584 8.8418 104.672 15.4783 104.672 23.6523V35.6388C104.672 37.192 105.992 38.4628 107.606 38.4628C109.22 38.4628 110.541 37.192 110.541 35.6388V23.6523C110.541 18.6004 114.812 14.4742 120.078 14.4742C125.344 14.4742 129.615 18.5847 129.615 23.6523V35.6388C129.615 37.192 130.936 38.4628 132.55 38.4628C134.164 38.4628 135.484 37.192 135.484 35.6388V23.6523C135.435 15.4783 128.539 8.8418 120.062 8.8418Z" fill="#414155"/>
<path d="M170.049 27.0751C169.645 26.3211 168.919 25.7871 168.064 25.6143C166.724 25.3473 165.353 26.0384 164.82 27.2636C163.061 31.2532 158.608 33.5151 154.234 32.6355C152.459 32.2742 150.846 31.4417 149.555 30.2165L168.064 19.8183C168.935 19.3314 169.468 18.4518 169.5 17.4937C169.532 16.9125 169.387 16.3313 169.064 15.8287C165.272 9.87563 157.607 7.31535 150.83 9.76568C144.956 11.8862 140.97 17.4308 140.922 23.6038L141.018 25.363C141.035 25.5044 141.051 25.6457 141.083 25.8342L141.099 25.9442C142.083 32.0072 146.892 36.9078 153.057 38.1487C154.089 38.3529 155.106 38.4628 156.123 38.4628C162.109 38.4628 167.709 35.0073 170.129 29.494C170.484 28.7086 170.452 27.829 170.049 27.0751ZM146.795 24.7347C146.779 24.609 146.763 24.4677 146.747 24.3263C146.747 24.2321 146.731 24.1378 146.731 23.9493C146.602 19.9911 149.071 16.4099 152.879 15.0276C156.09 13.8653 159.608 14.4779 162.206 16.5826L146.876 25.2059C146.828 25.0646 146.812 24.9075 146.795 24.7347Z" fill="#414155"/>
</svg>
