<svg width="22" height="22" viewBox="0 0 22 22" fill="none" xmlns="http://www.w3.org/2000/svg">
<path d="M18.0701 3.93002C16.4293 2.27852 14.2638 1.25124 11.9467 1.02526C9.62972 0.799293 7.30647 1.3888 5.3775 2.69215C3.44854 3.99551 2.03475 5.93103 1.37988 8.16503C0.725011 10.399 0.870093 12.7915 1.79012 14.93C1.88601 15.1288 1.91747 15.3525 1.88012 15.57L1.00012 19.8C0.966214 19.9622 0.973138 20.1303 1.02027 20.2891C1.06739 20.4479 1.15325 20.5926 1.27012 20.71C1.36592 20.8051 1.47999 20.8799 1.60545 20.9297C1.73091 20.9795 1.86516 21.0035 2.00012 21H2.20012L6.48012 20.14C6.69765 20.1139 6.91824 20.1449 7.12012 20.23C9.25862 21.15 11.6511 21.2951 13.8851 20.6403C16.1191 19.9854 18.0546 18.5716 19.358 16.6426C20.6613 14.7137 21.2508 12.3904 21.0249 10.0734C20.7989 7.75638 19.7716 5.59081 18.1201 3.95002L18.0701 3.93002ZM7.00012 12C6.80234 12 6.609 11.9414 6.44455 11.8315C6.2801 11.7216 6.15193 11.5654 6.07624 11.3827C6.00055 11.2 5.98075 10.9989 6.01933 10.8049C6.05792 10.611 6.15316 10.4328 6.29301 10.2929C6.43286 10.1531 6.61105 10.0578 6.80503 10.0192C6.99901 9.98065 7.20008 10.0005 7.3828 10.0761C7.56553 10.1518 7.72171 10.28 7.83159 10.4445C7.94147 10.6089 8.00012 10.8022 8.00012 11C8.00012 11.2652 7.89476 11.5196 7.70722 11.7071C7.51969 11.8947 7.26533 12 7.00012 12ZM11.0001 12C10.8023 12 10.609 11.9414 10.4445 11.8315C10.2801 11.7216 10.1519 11.5654 10.0762 11.3827C10.0006 11.2 9.98075 10.9989 10.0193 10.8049C10.0579 10.611 10.1532 10.4328 10.293 10.2929C10.4329 10.1531 10.611 10.0578 10.805 10.0192C10.999 9.98065 11.2001 10.0005 11.3828 10.0761C11.5655 10.1518 11.7217 10.28 11.8316 10.4445C11.9415 10.6089 12.0001 10.8022 12.0001 11C12.0001 11.2652 11.8948 11.5196 11.7072 11.7071C11.5197 11.8947 11.2653 12 11.0001 12ZM15.0001 12C14.8023 12 14.609 11.9414 14.4445 11.8315C14.2801 11.7216 14.1519 11.5654 14.0762 11.3827C14.0006 11.2 13.9807 10.9989 14.0193 10.8049C14.0579 10.611 14.1532 10.4328 14.293 10.2929C14.4329 10.1531 14.611 10.0578 14.805 10.0192C14.999 9.98065 15.2001 10.0005 15.3828 10.0761C15.5655 10.1518 15.7217 10.28 15.8316 10.4445C15.9415 10.6089 16.0001 10.8022 16.0001 11C16.0001 11.2652 15.8948 11.5196 15.7072 11.7071C15.5197 11.8947 15.2653 12 15.0001 12Z" fill="#5216FF"/>
</svg>
