<svg width="124" height="100" viewBox="0 0 124 100" fill="none" xmlns="http://www.w3.org/2000/svg">
<g clip-path="url(#clip0_1225_122454)">
<path d="M82.5404 100L82.5141 99.9975L41.4598 96.1844L4.12766 99.6518C3.15294 99.7423 2.18217 99.442 1.42891 98.8169C0.675653 98.1918 0.20161 97.2931 0.111067 96.3185C0.100528 96.2051 0.0952548 96.0913 0.0952456 95.9773V7.20538C0.0914775 6.28465 0.433628 5.39607 1.05396 4.71556C1.67429 4.03506 2.52757 3.61225 3.44485 3.53085L41.4598 0L41.486 0.00249365L82.5404 3.81556L119.872 0.348191C120.847 0.257657 121.818 0.557975 122.571 1.18308C123.324 1.80818 123.798 2.70686 123.889 3.68142C123.899 3.79488 123.905 3.90865 123.905 4.02272V92.7945C123.908 93.7153 123.566 94.6039 122.946 95.2844C122.326 95.9649 121.472 96.3877 120.555 96.4691L82.5404 100Z" fill="#414155"/>
<path d="M57.3238 32.8413C49.3768 27.0545 41.0152 21.5672 32.4734 16.5326L32.0446 16.28V33.3552H58.0294L57.3238 32.8413ZM32.6125 32.7874V17.275C40.7384 22.081 48.6954 27.2958 56.2833 32.7874L32.6125 32.7874ZM97.5431 67.9327C94.1062 64.3602 90.5804 60.8689 86.9655 57.4591C85.969 56.5181 84.9663 55.5846 83.9574 54.6587C77.8005 49.0039 71.441 43.6258 64.8791 38.5245L64.8024 38.4649H32.0446V68.4139H98.0059L97.5431 67.9327ZM32.6125 67.8462V39.0327H64.6079C70.9352 43.9537 77.0912 49.15 83.0758 54.6218C84.1149 55.5713 85.147 56.5285 86.172 57.4932C89.7551 60.86 93.2544 64.311 96.6701 67.8462H32.6125ZM97.5431 67.9327C94.1062 64.3602 90.5804 60.8689 86.9655 57.4591C85.969 56.5181 84.9663 55.5846 83.9574 54.6587C77.8005 49.0039 71.441 43.6258 64.8791 38.5245L64.8024 38.4649H32.0446V68.4139H98.0059L97.5431 67.9327ZM32.6125 67.8462V39.0327H64.6079C70.9352 43.9537 77.0912 49.15 83.0758 54.6218C84.1149 55.5713 85.147 56.5285 86.172 57.4932C89.7551 60.86 93.2544 64.311 96.6701 67.8462H32.6125ZM57.3238 32.8413C49.3768 27.0545 41.0152 21.5672 32.4734 16.5326L32.0446 16.28V33.3552H58.0294L57.3238 32.8413ZM32.6125 32.7874V17.275C40.7384 22.081 48.6954 27.2958 56.2833 32.7874L32.6125 32.7874ZM57.3238 32.8413C49.3768 27.0545 41.0152 21.5672 32.4734 16.5326L32.0446 16.28V33.3552H58.0294L57.3238 32.8413ZM32.6125 32.7874V17.275C40.7384 22.081 48.6954 27.2958 56.2833 32.7874L32.6125 32.7874ZM97.5431 67.9327C94.1062 64.3602 90.5804 60.8689 86.9655 57.4591C85.969 56.5181 84.9663 55.5846 83.9574 54.6587C77.8005 49.0039 71.441 43.6258 64.8791 38.5245L64.8024 38.4649H32.0446V68.4139H98.0059L97.5431 67.9327ZM32.6125 67.8462V39.0327H64.6079C70.9352 43.9537 77.0912 49.15 83.0758 54.6218C84.1149 55.5713 85.147 56.5285 86.172 57.4932C89.7551 60.86 93.2544 64.311 96.6701 67.8462H32.6125ZM3.93896 73.5237V74.0915H26.3661V82.3239H3.93896V82.8916H26.934V73.5237H3.93896ZM32.0446 88.0014V93.7542L32.6125 93.7016V88.5692H120.061V88.0014L32.0446 88.0014ZM120.061 74.0915V73.5237H32.0446V82.8916H120.061V82.3239H32.6125V74.0915L120.061 74.0915ZM67.0312 32.7874C56.1373 24.3853 44.6325 16.8061 32.6125 10.1128V4.36426L32.0446 4.41677V10.2098L32.4819 10.6904C44.453 17.3656 55.9111 24.9214 66.7614 33.2955L66.8381 33.3552H120.061V32.7874L67.0312 32.7874ZM26.3661 32.7874H3.93896V33.3552H26.934V4.89085L26.3661 4.94336L26.3661 32.7874ZM120.061 38.4649H73.2719L73.8838 38.9674C79.6445 43.7067 85.3008 48.7332 90.8524 54.0469C91.6418 54.802 92.4283 55.5633 93.2119 56.3307C97.113 60.1418 100.938 64.0772 104.687 68.1371L105.155 68.4139H120.061V67.8462H105.191C101.483 63.8265 97.6941 59.9232 93.8251 56.1363C93.0515 55.3783 92.275 54.6256 91.4956 53.878C86.0641 48.6675 80.5166 43.719 74.8533 39.0327H120.061V38.4649ZM3.93896 88.0014V88.5692H26.3661V94.2807L26.934 94.2282V88.0014H3.93896ZM3.93896 38.4649V39.0327H26.3661V67.8462H3.93896V68.4139H26.934V38.4649H3.93896ZM57.3238 32.8413C49.3768 27.0545 41.0152 21.5672 32.4734 16.5326L32.0446 16.28V33.3552H58.0294L57.3238 32.8413ZM32.6125 32.7874V17.275C40.7384 22.081 48.6954 27.2958 56.2833 32.7874L32.6125 32.7874ZM97.5431 67.9327C94.1062 64.3602 90.5804 60.8689 86.9655 57.4591C85.969 56.5181 84.9663 55.5846 83.9574 54.6587C77.8005 49.0039 71.441 43.6258 64.8791 38.5245L64.8024 38.4649H32.0446V68.4139H98.0059L97.5431 67.9327ZM32.6125 67.8462V39.0327H64.6079C70.9352 43.9537 77.0912 49.15 83.0758 54.6218C84.1149 55.5713 85.147 56.5285 86.172 57.4932C89.7551 60.86 93.2544 64.311 96.6701 67.8462H32.6125ZM57.3238 32.8413C49.3768 27.0545 41.0152 21.5672 32.4734 16.5326L32.0446 16.28V33.3552H58.0294L57.3238 32.8413ZM32.6125 32.7874V17.275C40.7384 22.081 48.6954 27.2958 56.2833 32.7874L32.6125 32.7874ZM97.5431 67.9327C94.1062 64.3602 90.5804 60.8689 86.9655 57.4591C85.969 56.5181 84.9663 55.5846 83.9574 54.6587C77.8005 49.0039 71.441 43.6258 64.8791 38.5245L64.8024 38.4649H32.0446V68.4139H98.0059L97.5431 67.9327ZM32.6125 67.8462V39.0327H64.6079C70.9352 43.9537 77.0912 49.15 83.0758 54.6218C84.1149 55.5713 85.147 56.5285 86.172 57.4932C89.7551 60.86 93.2544 64.311 96.6701 67.8462H32.6125Z" fill="white"/>
<path d="M63.5073 37.3619C63.5073 44.5514 50.4874 60.5674 50.4874 60.5674C50.4874 60.5674 37.4675 44.5514 37.4675 37.3619C37.4675 33.9094 38.8393 30.5983 41.281 28.157C43.7227 25.7157 47.0343 24.3442 50.4874 24.3442C53.9405 24.3442 57.2522 25.7157 59.6939 28.157C62.1356 30.5983 63.5073 33.9094 63.5073 37.3619Z" fill="#632DFF"/>
<path d="M56.4396 36.7957C56.4396 37.9727 56.0905 39.1232 55.4365 40.1019C54.7825 41.0805 53.8529 41.8432 52.7653 42.2936C51.6777 42.7441 50.481 42.8619 49.3264 42.6323C48.1719 42.4027 47.1113 41.8359 46.2789 41.0036C45.4465 40.1714 44.8797 39.111 44.65 37.9567C44.4204 36.8023 44.5382 35.6057 44.9887 34.5183C45.4392 33.431 46.2021 32.5015 47.1809 31.8476C48.1597 31.1937 49.3104 30.8447 50.4876 30.8447C51.2693 30.8444 52.0435 30.998 52.7657 31.297C53.488 31.5959 54.1443 32.0342 54.6971 32.5869C55.2498 33.1396 55.6882 33.7958 55.9872 34.5179C56.2862 35.2401 56.4399 36.0141 56.4396 36.7957Z" fill="white"/>
<path d="M50.4875 69.9626C52.4258 69.9626 53.9972 68.3915 53.9972 66.4535C53.9972 64.5154 52.4258 62.9443 50.4875 62.9443C48.5491 62.9443 46.9778 64.5154 46.9778 66.4535C46.9778 68.3915 48.5491 69.9626 50.4875 69.9626Z" fill="#632DFF"/>
<path d="M84.1154 22.4014C86.9812 22.4014 89.3045 20.0785 89.3045 17.2131C89.3045 14.3478 86.9812 12.0249 84.1154 12.0249C81.2495 12.0249 78.9263 14.3478 78.9263 17.2131C78.9263 20.0785 81.2495 22.4014 84.1154 22.4014Z" fill="#FF5255"/>
<path d="M100.388 33.2012H74.9316C74.8997 33.2016 74.8678 33.1991 74.8364 33.1937L86.876 12.3429C86.9495 12.213 87.0561 12.105 87.185 12.0298C87.3139 11.9546 87.4605 11.915 87.6097 11.915C87.7589 11.915 87.9055 11.9546 88.0344 12.0298C88.1633 12.105 88.2699 12.213 88.3434 12.3429L96.4235 26.3354L96.8106 27.0049L100.388 33.2012Z" fill="white"/>
<path opacity="0.2" d="M100.388 33.2013H91.6963L95.9629 27.0049L96.2698 26.5586L96.4235 26.3354L96.8105 27.0049L100.388 33.2013Z" fill="#1C1C27"/>
<path d="M114.561 33.2011H92.5439L96.8105 27.0048L97.1175 26.5584L102.677 18.4835C103.042 17.9543 103.919 17.9213 104.347 18.3837C104.376 18.4152 104.403 18.4485 104.427 18.4835L114.561 33.2011Z" fill="white"/>
<path d="M116.195 62.594C117.646 62.594 118.822 61.4184 118.822 59.9681C118.822 58.5179 117.646 57.3423 116.195 57.3423C114.745 57.3423 113.569 58.5179 113.569 59.9681C113.569 61.4184 114.745 62.594 116.195 62.594Z" fill="white"/>
<path d="M116.449 67.8775H115.911L116.156 59.5728L116.449 67.8775Z" fill="#F1F1F5"/>
<path d="M116.203 61.1466L116.781 60.3477L116.195 61.3443L116.132 61.2336L116.203 61.1466Z" fill="#F1F1F5"/>
<path d="M116.14 61.953L115.562 61.1543L116.148 62.1508L116.211 62.0401L116.14 61.953Z" fill="#F1F1F5"/>
<path d="M108.728 60.0742C110.87 60.0742 112.606 58.3379 112.606 56.196C112.606 54.0542 110.87 52.3179 108.728 52.3179C106.585 52.3179 104.849 54.0542 104.849 56.196C104.849 58.3379 106.585 60.0742 108.728 60.0742Z" fill="white"/>
<path d="M109.102 67.8772H108.307L108.669 55.6118L109.102 67.8772Z" fill="#F1F1F5"/>
<path d="M108.739 57.9365L109.592 56.7568L108.728 58.2287L108.634 58.0651L108.739 57.9365Z" fill="#F1F1F5"/>
<path d="M108.646 59.1279L107.793 57.9482L108.658 59.4199L108.751 59.2565L108.646 59.1279Z" fill="#F1F1F5"/>
<path d="M18.6741 62.594C20.1246 62.594 21.3004 61.4184 21.3004 59.9681C21.3004 58.5179 20.1246 57.3423 18.6741 57.3423C17.2237 57.3423 16.0479 58.5179 16.0479 59.9681C16.0479 61.4184 17.2237 62.594 18.6741 62.594Z" fill="white"/>
<path d="M18.9273 67.8775H18.3894L18.6346 59.5728L18.9273 67.8775Z" fill="#F1F1F5"/>
<path d="M18.6819 61.1466L19.2595 60.3477L18.674 61.3443L18.6108 61.2336L18.6819 61.1466Z" fill="#F1F1F5"/>
<path d="M18.6188 61.953L18.0413 61.1543L18.6267 62.1508L18.6899 62.0401L18.6188 61.953Z" fill="#F1F1F5"/>
<path d="M11.2064 60.0742C13.3487 60.0742 15.0853 58.3379 15.0853 56.196C15.0853 54.0542 13.3487 52.3179 11.2064 52.3179C9.06424 52.3179 7.32764 54.0542 7.32764 56.196C7.32764 58.3379 9.06424 60.0742 11.2064 60.0742Z" fill="white"/>
<path d="M11.5803 67.8772H10.7859L11.1482 55.6118L11.5803 67.8772Z" fill="#F1F1F5"/>
<path d="M11.2181 57.9365L12.0709 56.7568L11.2064 58.2287L11.113 58.0651L11.2181 57.9365Z" fill="#F1F1F5"/>
<path d="M11.1247 59.1279L10.2717 57.9482L11.1364 59.4199L11.2298 59.2565L11.1247 59.1279Z" fill="#F1F1F5"/>
</g>
<defs>
<clipPath id="clip0_1225_122454">
<rect width="123.81" height="100" fill="white" transform="translate(0.0952148)"/>
</clipPath>
</defs>
</svg>
