<svg width="97" height="96" viewBox="0 0 97 96" fill="none" xmlns="http://www.w3.org/2000/svg">
<path d="M51.2672 32.2C37.6749 32.2 26.7117 41.5061 22.5674 53.3424C21.6548 55.9488 21.3677 58.8023 21.3677 61.7232C21.3677 78.2361 34.7543 91.6226 51.2672 91.6226H66.6005C68.3394 91.6226 70.0407 91.4658 71.6981 91.1808L80.7272 95.6659C82.9719 96.781 85.5556 94.9518 85.2497 92.464L84.4219 85.7309C91.7508 80.2816 96.5 71.5577 96.5 61.7232C96.5 45.4877 83.5598 32.2747 67.4306 31.835L51.2672 32.2Z" fill="url(#paint0_linear_1670_147494)"/>
<path d="M84.4228 85.7295L85.2492 92.4627C85.556 94.9512 82.9715 96.7808 80.7277 95.6646L71.6981 91.1808C70.0397 91.465 68.34 91.6213 66.6007 91.6213H60.8407L22.5611 53.3399L22.5574 53.3493C26.1 41.5055 37.6614 32.1992 51.267 32.1992L67.4306 31.834C75.357 32.0501 82.5135 35.3514 87.7433 40.5794C93.1532 45.9912 96.5 53.466 96.5 61.722C96.5 71.5573 91.7508 80.282 84.4228 85.7295Z" fill="url(#paint1_linear_1670_147494)"/>
<path d="M94.4578 72.5947H23.4071C27.7567 83.7317 38.5902 91.6217 51.2672 91.6217H66.6005C68.3394 91.6217 70.0407 91.4649 71.6981 91.1799L80.7272 95.665C82.9719 96.7801 85.5556 94.9509 85.2497 92.4631L84.4219 85.73C88.8917 82.4065 92.3993 77.8634 94.4578 72.5947Z" fill="url(#paint2_linear_1670_147494)"/>
<path d="M27.3218 0H41.0766C55.8897 0 67.8984 12.0085 67.8984 26.8218C67.8984 28.5352 67.7378 30.211 67.4306 31.8349C65.083 44.2522 54.1764 53.4552 41.0766 53.4552H27.3216C25.7617 53.4552 24.2357 53.5029 22.7487 53.2472L14.6489 57.2706C12.6352 58.2709 10.3174 56.6298 10.5919 54.3983L11.3344 48.3582C4.76033 43.4701 0.5 35.644 0.5 26.8218C0.5 12.0085 12.5085 0 27.3218 0V0Z" fill="url(#paint3_linear_1670_147494)"/>
<path d="M2.03033 35.7646C3.82403 40.8359 7.09763 45.2078 11.3348 48.3583L10.5922 54.3984C10.3178 56.63 12.6357 58.271 14.6493 57.2707L22.749 53.2472C24.2359 53.5028 25.7621 53.4552 27.3218 53.4552H41.0767C52.7539 53.4552 62.4981 46.1805 66.1811 35.7646H2.03033Z" fill="url(#paint4_linear_1670_147494)"/>
<path d="M48.3904 31.9441C50.8004 31.9441 52.7541 29.9904 52.7541 27.5804C52.7541 25.1705 50.8004 23.2168 48.3904 23.2168C45.9805 23.2168 44.0268 25.1705 44.0268 27.5804C44.0268 29.9904 45.9805 31.9441 48.3904 31.9441Z" fill="white"/>
<path d="M34.4268 31.9441C36.8368 31.9441 38.7904 29.9904 38.7904 27.5804C38.7904 25.1705 36.8368 23.2168 34.4268 23.2168C32.0168 23.2168 30.0632 25.1705 30.0632 27.5804C30.0632 29.9904 32.0168 31.9441 34.4268 31.9441Z" fill="white"/>
<path d="M20.4632 31.9441C22.8732 31.9441 24.8268 29.9904 24.8268 27.5804C24.8268 25.1705 22.8732 23.2168 20.4632 23.2168C18.0532 23.2168 16.0995 25.1705 16.0995 27.5804C16.0995 29.9904 18.0532 31.9441 20.4632 31.9441Z" fill="white"/>
<path d="M73.1254 66.8044C75.5353 66.8044 77.489 64.8507 77.489 62.4408C77.489 60.0308 75.5353 58.0771 73.1254 58.0771C70.7154 58.0771 68.7617 60.0308 68.7617 62.4408C68.7617 64.8507 70.7154 66.8044 73.1254 66.8044Z" fill="white"/>
<path d="M59.1617 66.8044C61.5717 66.8044 63.5254 64.8507 63.5254 62.4408C63.5254 60.0308 61.5717 58.0771 59.1617 58.0771C56.7518 58.0771 54.7981 60.0308 54.7981 62.4408C54.7981 64.8507 56.7518 66.8044 59.1617 66.8044Z" fill="white"/>
<path d="M45.1981 66.8044C47.6081 66.8044 49.5617 64.8508 49.5617 62.4408C49.5617 60.0308 47.6081 58.0771 45.1981 58.0771C42.7881 58.0771 40.8345 60.0308 40.8345 62.4408C40.8345 64.8508 42.7881 66.8044 45.1981 66.8044Z" fill="white"/>
<path d="M67.4286 31.8351C67.1534 31.8276 66.8774 31.8232 66.6005 31.8232H51.2674C37.6644 31.8232 26.1849 40.908 22.5606 53.3408L22.749 53.2472C24.2359 53.5029 25.7621 53.6435 27.3218 53.6435H41.0767C54.1762 53.6433 65.0805 44.2519 67.4286 31.8351Z" fill="url(#paint5_linear_1670_147494)"/>
<defs>
<linearGradient id="paint0_linear_1670_147494" x1="71.1429" y1="121.399" x2="-33.203" y2="56.0158" gradientUnits="userSpaceOnUse">
<stop stop-color="#D902A9"/>
<stop offset="1" stop-color="#FF8586"/>
<stop offset="1" stop-color="#FFB847"/>
</linearGradient>
<linearGradient id="paint1_linear_1670_147494" x1="78.7447" y1="70.5587" x2="40.9286" y2="32.7426" gradientUnits="userSpaceOnUse">
<stop stop-color="#D902A9" stop-opacity="0"/>
<stop offset="1" stop-color="#D902A9"/>
</linearGradient>
<linearGradient id="paint2_linear_1670_147494" x1="58.9326" y1="76.4948" x2="58.9326" y2="92.1017" gradientUnits="userSpaceOnUse">
<stop stop-color="#D902A9" stop-opacity="0"/>
<stop offset="1" stop-color="#D902A9"/>
</linearGradient>
<linearGradient id="paint3_linear_1670_147494" x1="30.408" y1="-52.7729" x2="107.705" y2="-4.26302" gradientUnits="userSpaceOnUse">
<stop stop-color="#9762FF"/>
<stop offset="1" stop-color="#632DFF"/>
</linearGradient>
<linearGradient id="paint4_linear_1670_147494" x1="34.1056" y1="38.149" x2="34.1056" y2="53.5888" gradientUnits="userSpaceOnUse">
<stop stop-color="#6E3CFF" stop-opacity="0"/>
<stop offset="1" stop-color="#6E3CFF"/>
</linearGradient>
<linearGradient id="paint5_linear_1670_147494" x1="44.9945" y1="37.1448" x2="44.9945" y2="56.7793" gradientUnits="userSpaceOnUse">
<stop stop-color="#6E3CFF"/>
<stop offset="1" stop-color="#6E3CFF"/>
<stop offset="1" stop-color="#4E12FD"/>
</linearGradient>
</defs>
</svg>
