<svg width="80" height="80" viewBox="0 0 80 80" fill="none" xmlns="http://www.w3.org/2000/svg">
<circle cx="40" cy="40" r="40" fill="#F1F1F5"/>
<path fill-rule="evenodd" clip-rule="evenodd" d="M34.4443 47.4068C31.3761 47.4068 28.8888 49.8941 28.8888 52.9624C28.8888 53.9851 29.7179 54.8142 30.7406 54.8142H49.2591C50.2819 54.8142 51.111 53.9851 51.111 52.9624C51.111 49.8941 48.6237 47.4068 45.5554 47.4068H34.4443ZM25.1851 52.9624C25.1851 47.8486 29.3306 43.7031 34.4443 43.7031H45.5554C50.6692 43.7031 54.8147 47.8486 54.8147 52.9624C54.8147 56.0306 52.3274 58.5179 49.2591 58.5179H30.7406C27.6724 58.5179 25.1851 56.0306 25.1851 52.9624Z" fill="#767676"/>
<path fill-rule="evenodd" clip-rule="evenodd" d="M40 25.1851C36.9317 25.1851 34.4444 27.6725 34.4444 30.7407C34.4444 33.809 36.9317 36.2963 40 36.2963C43.0682 36.2963 45.5555 33.809 45.5555 30.7407C45.5555 27.6725 43.0682 25.1851 40 25.1851ZM30.7407 30.7407C30.7407 25.627 34.8862 21.4814 40 21.4814C45.1137 21.4814 49.2592 25.627 49.2592 30.7407C49.2592 35.8545 45.1137 40 40 40C34.8862 40 30.7407 35.8545 30.7407 30.7407Z" fill="#767676"/>
</svg>
