<svg width="24" height="24" viewBox="0 0 24 24" fill="none" xmlns="http://www.w3.org/2000/svg">
<path d="M11 11.9649C9.78864 11.714 8.71325 11.0231 7.9815 10.0257C7.24976 9.02824 6.91359 7.79503 7.03791 6.56423C7.16223 5.33343 7.73823 4.19235 8.65466 3.3614C9.57109 2.53044 10.7629 2.06855 12 2.06494C13.2399 2.0637 14.4361 2.52322 15.3563 3.35432C16.2765 4.18541 16.8551 5.32877 16.9797 6.56245C17.1043 7.79612 16.7661 9.03209 16.0307 10.0304C15.2953 11.0287 14.2151 11.7182 13 11.9649V21.0649C13 21.3302 12.8946 21.5845 12.7071 21.7721C12.5196 21.9596 12.2652 22.0649 12 22.0649C11.7348 22.0649 11.4804 21.9596 11.2929 21.7721C11.1054 21.5845 11 21.3302 11 21.0649V11.9649Z" fill="white"/>
</svg>
