<svg width="20" height="28" viewBox="0 0 20 28" fill="none" xmlns="http://www.w3.org/2000/svg">
<path d="M3.59995 16.5333L7.06662 15.7333C8.26662 15.4666 9.06662 14.1333 8.79995 12.9333V12.7999L7.99995 9.4666C7.73329 8.2666 6.39995 7.4666 5.19995 7.73327C3.73329 7.99994 2.93329 9.33327 3.33329 10.5333L3.59995 11.7333L2.39995 11.9999C1.19995 12.2666 0.399953 13.5999 0.666619 14.7999C1.06662 15.9999 2.26662 16.7999 3.59995 16.5333Z" fill="url(#paint0_linear_2272_16798)"/>
<path d="M16.2664 11.0666C15.3331 10.2666 13.7331 10.2666 12.9331 11.3333C12.1331 12.2666 12.1331 13.7333 13.1998 14.6666C13.5998 14.9333 14.2664 15.7333 14.5331 16.7999C14.6664 17.1999 14.6664 17.5999 14.6664 17.9999C14.6664 20.5333 12.5331 22.6666 9.99975 22.6666C7.99975 22.6666 6.26642 21.3333 5.59975 19.5999C5.19975 18.3999 3.86642 17.8666 2.79975 18.1333C1.59975 18.5333 0.799755 19.8666 1.19975 21.1999C1.46642 21.9999 2.39975 24.1333 4.66642 25.7333C6.26642 26.7999 8.13309 27.4666 9.99975 27.4666C15.0664 27.4666 19.3331 23.1999 19.3331 18.1333C19.3331 15.3333 18.2664 12.9333 16.2664 11.0666Z" fill="url(#paint1_linear_2272_16798)"/>
<path d="M9.99973 12.9333C10.2664 13.7333 10.7997 14.4 11.5997 14.5333C11.3331 14 11.0664 13.3333 11.0664 12.6667C11.0664 10.9333 12.2664 9.46665 13.8664 9.19999L12.1331 2.26665C11.8664 1.06665 10.5331 0.266652 9.33306 0.533319C8.13306 0.799985 7.33306 2.13332 7.59972 3.33332L9.99973 12.9333Z" fill="url(#paint2_linear_2272_16798)"/>
<path d="M19.3332 13.3334V6.93341V3.06675C19.3332 1.73341 18.2665 0.666748 16.9332 0.666748C15.5999 0.666748 14.5332 1.73341 14.5332 3.06675V6.93341V9.33341C15.4665 9.33341 16.3999 9.73341 16.9332 10.4001C17.9999 11.2001 18.7999 12.1334 19.3332 13.3334Z" fill="url(#paint3_linear_2272_16798)"/>
<defs>
<linearGradient id="paint0_linear_2272_16798" x1="6.07165" y1="20.1087" x2="-6.72233" y2="13.7748" gradientUnits="userSpaceOnUse">
<stop stop-color="#D902A9"/>
<stop offset="1" stop-color="#FF8586"/>
<stop offset="1" stop-color="#FFB847"/>
</linearGradient>
<linearGradient id="paint1_linear_2272_16798" x1="13.178" y1="34.184" x2="-13.3287" y2="18.9402" gradientUnits="userSpaceOnUse">
<stop stop-color="#D902A9"/>
<stop offset="1" stop-color="#FF8586"/>
<stop offset="1" stop-color="#FFB847"/>
</linearGradient>
<linearGradient id="paint2_linear_2272_16798" x1="11.7341" y1="20.0953" x2="0.182942" y2="17.3159" gradientUnits="userSpaceOnUse">
<stop stop-color="#D902A9"/>
<stop offset="1" stop-color="#FF8586"/>
<stop offset="1" stop-color="#FFB847"/>
</linearGradient>
<linearGradient id="paint3_linear_2272_16798" x1="17.7132" y1="18.3473" x2="8.79612" y2="16.539" gradientUnits="userSpaceOnUse">
<stop stop-color="#D902A9"/>
<stop offset="1" stop-color="#FF8586"/>
<stop offset="1" stop-color="#FFB847"/>
</linearGradient>
</defs>
</svg>
