<svg width="18" height="34" viewBox="0 0 18 34" fill="none" xmlns="http://www.w3.org/2000/svg">
<path d="M7.33345 16.9417C5.31453 16.5235 3.5222 15.3719 2.30263 13.7095C1.08305 12.0472 0.522764 9.9918 0.72997 7.94046C0.937176 5.88912 1.89718 3.98733 3.42456 2.60241C4.95194 1.21748 6.93835 0.447668 9.00011 0.441655C11.0667 0.439578 13.0603 1.20546 14.594 2.59061C16.1277 3.97576 17.0919 5.88137 17.2996 7.93749C17.5073 9.99362 16.9436 12.0536 15.7179 13.7174C14.4922 15.3813 12.692 16.5304 10.6668 16.9417V32.1083C10.6668 32.5504 10.4912 32.9743 10.1786 33.2868C9.86606 33.5994 9.44214 33.775 9.00011 33.775C8.55809 33.775 8.13416 33.5994 7.8216 33.2868C7.50904 32.9743 7.33345 32.5504 7.33345 32.1083V16.9417Z" fill="#FF5255"/>
</svg>
