<svg width="16" height="16" viewBox="0 0 16 16" fill="none" xmlns="http://www.w3.org/2000/svg">
<path d="M13.5645 6.15992L14.1292 5.31592C14.1777 5.24401 14.24 5.18245 14.3125 5.13479C14.385 5.08713 14.4662 5.05433 14.5515 5.03827C14.6367 5.02221 14.7243 5.02322 14.8092 5.04124C14.894 5.05926 14.9745 5.09393 15.0458 5.14325C15.3498 5.34992 15.4325 5.76325 15.2305 6.06525L13.7665 8.25325C13.718 8.32516 13.6557 8.38672 13.5832 8.43438C13.5107 8.48204 13.4295 8.51485 13.3442 8.5309C13.259 8.54696 13.1714 8.54595 13.0865 8.52793C13.0016 8.50991 12.9212 8.47524 12.8498 8.42592L10.6465 6.92859C10.5006 6.83028 10.3994 6.67838 10.3648 6.50588C10.3302 6.33337 10.3651 6.1542 10.4618 6.00725C10.5103 5.9353 10.5726 5.87367 10.6451 5.82595C10.7175 5.77823 10.7987 5.74535 10.884 5.72923C10.9692 5.71311 11.0568 5.71406 11.1417 5.73203C11.2266 5.75 11.3071 5.78463 11.3785 5.83392L12.2745 6.44392C11.6185 4.25725 9.61317 2.66659 7.24184 2.66659C4.33717 2.66659 1.98184 5.05459 1.98184 7.99992C1.98184 10.9453 4.33717 13.3333 7.24184 13.3333C7.60517 13.3333 7.89984 13.6319 7.89984 13.9999C7.89984 14.3679 7.60517 14.6666 7.24184 14.6666C3.6105 14.6666 0.666504 11.6819 0.666504 7.99992C0.666504 4.31792 3.6105 1.33325 7.24184 1.33325C10.2445 1.33325 12.7765 3.37325 13.5645 6.15992Z" fill="#1C1C27"/>
</svg>
