<svg width="16" height="16" viewBox="0 0 16 16" fill="none" xmlns="http://www.w3.org/2000/svg">
<path fill-rule="evenodd" clip-rule="evenodd" d="M1.3335 7.99967C1.3335 4.31778 4.31826 1.33301 8.00016 1.33301C11.6821 1.33301 14.6668 4.31778 14.6668 7.99967C14.6668 11.6816 11.6821 14.6663 8.00016 14.6663C4.31826 14.6663 1.3335 11.6816 1.3335 7.99967ZM10.4716 7.13775C10.7319 6.8774 10.7319 6.45529 10.4716 6.19494C10.2112 5.93459 9.78911 5.93459 9.52876 6.19494L7.3335 8.3902L6.47157 7.52827C6.21122 7.26792 5.78911 7.26792 5.52876 7.52827C5.26841 7.78862 5.26841 8.21073 5.52876 8.47108L6.86209 9.80441C7.12244 10.0648 7.54455 10.0648 7.8049 9.80441L10.4716 7.13775Z" fill="#5216FF"/>
</svg>
