<svg width="20" height="20" viewBox="0 0 20 20" fill="none" xmlns="http://www.w3.org/2000/svg">
<path fill-rule="evenodd" clip-rule="evenodd" d="M4.16666 8.33366C4.16666 7.41318 4.91286 6.66699 5.83333 6.66699H14.1667C15.0871 6.66699 15.8333 7.41318 15.8333 8.33366V15.8337C15.8333 17.2144 14.714 18.3337 13.3333 18.3337H6.66666C5.28595 18.3337 4.16666 17.2144 4.16666 15.8337V8.33366ZM7.5 10.8337C7.5 10.3734 7.87309 10.0003 8.33333 10.0003C8.79357 10.0003 9.16666 10.3734 9.16666 10.8337V14.167C9.16666 14.6272 8.79357 15.0003 8.33333 15.0003C7.87309 15.0003 7.5 14.6272 7.5 14.167V10.8337ZM10.8333 10.8337C10.8333 10.3734 11.2064 10.0003 11.6667 10.0003C12.1269 10.0003 12.5 10.3734 12.5 10.8337V14.167C12.5 14.6272 12.1269 15.0003 11.6667 15.0003C11.2064 15.0003 10.8333 14.6272 10.8333 14.167V10.8337Z" fill="white"/>
<path d="M8.33334 1.66699C7.41286 1.66699 6.66667 2.41318 6.66667 3.33366H4.16667C3.70643 3.33366 3.33334 3.70675 3.33334 4.16699C3.33334 4.62723 3.70643 5.00033 4.16667 5.00033H15.8333C16.2936 5.00033 16.6667 4.62723 16.6667 4.16699C16.6667 3.70675 16.2936 3.33366 15.8333 3.33366H13.3333C13.3333 2.41318 12.5871 1.66699 11.6667 1.66699H8.33334Z" fill="white"/>
</svg>
