<svg width="23" height="32" viewBox="0 0 23 32" fill="none" xmlns="http://www.w3.org/2000/svg">
<path d="M3.61074 19.0355L7.7217 18.0868C9.14473 17.7706 10.0934 16.1895 9.77719 14.7664V14.6083L8.8285 10.6555C8.51227 9.23245 6.93113 8.28377 5.5081 8.6C3.76885 8.91623 2.82016 10.4974 3.29451 11.9204L3.61074 13.3434L2.18771 13.6597C0.764681 13.9759 -0.184004 15.557 0.132224 16.98C0.606567 18.4031 2.02959 19.3518 3.61074 19.0355Z" fill="url(#paint0_linear_2234_6144)"/>
<path d="M18.6314 12.5512C17.5246 11.6026 15.6272 11.6025 14.6785 12.8675C13.7299 13.9743 13.7299 15.7135 14.9948 16.8203C15.4691 17.1365 16.2597 18.0852 16.5759 19.3501C16.734 19.8245 16.734 20.2988 16.734 20.7732C16.734 23.7773 14.2042 26.3072 11.2 26.3072C8.82833 26.3072 6.77284 24.726 5.98227 22.6705C5.50793 21.2475 3.92679 20.6151 2.66187 20.9313C1.23885 21.4056 0.290161 22.9868 0.764504 24.5679C1.08073 25.5166 2.18753 28.0464 4.87547 29.9438C6.77284 31.2087 8.98644 31.9993 11.2 31.9993C17.2084 31.9993 22.268 26.9396 22.268 20.9313C22.268 17.6109 21.0031 14.7648 18.6314 12.5512Z" fill="url(#paint1_linear_2234_6144)"/>
<path d="M11.2004 14.7656C11.5167 15.7142 12.1491 16.5048 13.0978 16.6629C12.7816 16.0305 12.4654 15.2399 12.4654 14.4493C12.4654 12.3938 13.8884 10.6546 15.7858 10.3384L13.7303 2.11642C13.414 0.693392 11.8329 -0.255293 10.4099 0.0609351C8.98685 0.377163 8.03816 1.95831 8.35439 3.38133L11.2004 14.7656Z" fill="url(#paint2_linear_2234_6144)"/>
<path d="M22.2683 15.2396V7.65011V3.0648C22.2683 1.48366 21.0034 0.21875 19.4222 0.21875C17.8411 0.21875 16.5762 1.48366 16.5762 3.0648V7.65011V10.4962C17.683 10.4962 18.7898 10.9705 19.4222 11.7611C20.6871 12.7098 21.6358 13.8166 22.2683 15.2396Z" fill="url(#paint3_linear_2234_6144)"/>
<defs>
<linearGradient id="paint0_linear_2234_6144" x1="6.54182" y1="23.2754" x2="-8.63001" y2="15.7644" gradientUnits="userSpaceOnUse">
<stop stop-color="#D902A9"/>
<stop offset="1" stop-color="#FF8586"/>
<stop offset="1" stop-color="#FFB847"/>
</linearGradient>
<linearGradient id="paint1_linear_2234_6144" x1="14.9689" y1="39.9651" x2="-16.4642" y2="21.8882" gradientUnits="userSpaceOnUse">
<stop stop-color="#D902A9"/>
<stop offset="1" stop-color="#FF8586"/>
<stop offset="1" stop-color="#FFB847"/>
</linearGradient>
<linearGradient id="paint2_linear_2234_6144" x1="13.2571" y1="23.2587" x2="-0.440844" y2="19.9627" gradientUnits="userSpaceOnUse">
<stop stop-color="#D902A9"/>
<stop offset="1" stop-color="#FF8586"/>
<stop offset="1" stop-color="#FFB847"/>
</linearGradient>
<linearGradient id="paint3_linear_2234_6144" x1="20.3472" y1="21.1853" x2="9.77281" y2="19.041" gradientUnits="userSpaceOnUse">
<stop stop-color="#D902A9"/>
<stop offset="1" stop-color="#FF8586"/>
<stop offset="1" stop-color="#FFB847"/>
</linearGradient>
</defs>
</svg>
