<svg width="28" height="28" viewBox="0 0 28 28" fill="none" xmlns="http://www.w3.org/2000/svg">
<path d="M7.09702 16.6553L10.6941 15.8252C11.9393 15.5485 12.7694 14.165 12.4927 12.9199V12.7815L11.6626 9.32275C11.3859 8.0776 10.0024 7.2475 8.75721 7.5242C7.23537 7.8009 6.40527 9.1844 6.82032 10.4296L7.09702 11.6747L5.85187 11.9514C4.60672 12.2281 3.77662 13.6116 4.05332 14.8568C4.46837 16.1019 5.71352 16.932 7.09702 16.6553Z" />
<path d="M20.2403 10.983C19.2718 10.1529 17.6116 10.1529 16.7815 11.2597C15.9514 12.2281 15.9514 13.75 17.0582 14.7184C17.4733 14.9951 18.165 15.8252 18.4417 16.932C18.5801 17.3471 18.5801 17.7621 18.5801 18.1772C18.5801 20.8058 16.3665 23.0194 13.7378 23.0194C11.6626 23.0194 9.86404 21.6359 9.17229 19.8374C8.75724 18.5922 7.37374 18.0388 6.26694 18.3155C5.0218 18.7306 4.1917 20.1141 4.60675 21.4976C4.88345 22.3277 5.85189 24.5413 8.20384 26.2015C9.86404 27.3083 11.8009 28 13.7378 28C18.9951 28 23.4223 23.5728 23.4223 18.3155C23.4223 15.4102 22.3155 12.9199 20.2403 10.983Z" />
<path d="M13.7378 12.9199C14.0145 13.75 14.5679 14.4417 15.398 14.5801C15.1213 14.0267 14.8446 13.3349 14.8446 12.6432C14.8446 10.8446 16.0898 9.32276 17.75 9.04606L15.9514 1.85187C15.6747 0.606718 14.2912 -0.223382 13.0461 0.0533183C11.8009 0.330018 10.9708 1.71352 11.2475 2.95867L13.7378 12.9199Z" />
<path d="M23.4223 13.3349V6.69409V2.68195C23.4223 1.29845 22.3155 0.19165 20.932 0.19165C19.5485 0.19165 18.4417 1.29845 18.4417 2.68195V6.69409V9.18439C19.4102 9.18439 20.3786 9.59944 20.932 10.2912C22.0388 11.1213 22.8689 12.0897 23.4223 13.3349Z" />
</svg>
