<svg width="109" height="109" viewBox="0 0 109 109" fill="none" xmlns="http://www.w3.org/2000/svg">
<path d="M76.2001 95.8697C72.7701 93.1397 69.2701 91.2497 66.0851 89.9197C67.4851 92.2647 68.9201 94.6447 68.0451 97.4797C67.2751 99.9297 65.0701 101.785 62.6901 102.59C61.0801 103.15 59.3651 103.325 57.6501 103.36C55.7251 103.395 53.8351 103.29 51.9451 102.975C45.4701 101.96 36.2651 98.7047 35.3201 91.1447C35.1101 89.4647 35.3551 87.7147 36.0201 86.1397C36.2651 85.5447 36.5801 84.9147 36.9651 84.3897C37.2801 84.3197 37.6301 84.2497 37.9451 84.1797C34.9701 84.7747 31.2951 85.8597 27.3401 87.7497C23.9451 89.3947 21.1451 91.2497 18.8701 93.0697C28.2151 101.715 40.7451 107 54.5001 107C64.0551 107 72.9801 104.445 80.6801 99.9997C79.4201 98.6347 77.9151 97.2347 76.2001 95.8697Z" fill="#F1F1F5"/>
<path d="M36.0201 86.1054C35.3551 87.6804 35.1101 89.3954 35.3201 91.1104C36.2651 98.7054 45.5051 101.925 51.9451 102.94C53.8351 103.255 55.7601 103.36 57.6501 103.325C59.3651 103.29 61.0801 103.115 62.6901 102.555C65.0701 101.75 67.2751 99.9304 68.0451 97.4454C68.9201 94.6454 67.4851 92.2304 66.0851 89.8854C65.3151 89.5704 64.5801 89.2904 63.8451 89.0104C63.6001 88.9404 63.3551 88.8354 63.1101 88.7654C63.1101 88.8004 63.1101 88.8354 63.1101 88.8704C63.1101 88.9054 63.1101 88.9404 63.1101 88.9404C63.1101 89.1154 63.1101 89.2904 63.1101 89.4304C63.1101 89.5004 63.1101 89.5704 63.1101 89.6404C63.1101 89.8504 63.1451 90.0604 63.1451 90.2704C63.1451 90.3404 63.1451 90.3754 63.1451 90.4454C63.1801 90.6204 63.1801 90.8304 63.2151 91.0054C63.2151 91.0404 63.2151 91.0754 63.2151 91.1104C63.2501 91.3204 63.2851 91.5304 63.3201 91.7404C63.3201 91.7754 63.3551 91.8454 63.3551 91.8804C63.3901 92.0904 63.4601 92.3354 63.4951 92.5454C63.8451 93.8054 64.4051 95.2754 63.5651 96.4654C62.9001 97.4104 61.5351 97.8654 60.4501 98.1104C55.5851 99.1954 50.7551 98.1454 46.3101 96.0454C42.4951 94.2254 37.9451 91.1454 38.6101 86.3504C38.6451 86.2104 38.6451 86.0354 38.6801 85.8954C38.7151 85.7554 38.7151 85.5804 38.7501 85.4404C38.7501 85.3704 38.7851 85.2654 38.7851 85.1954C38.8201 84.9154 38.8551 84.6354 38.8551 84.3554C38.8551 84.3204 38.8551 84.3204 38.8551 84.2854C38.8551 84.1804 38.8901 84.0754 38.8901 83.9354V83.9004C38.6101 83.9704 38.2951 84.0054 37.9801 84.0754C37.9451 84.0754 37.9101 84.0754 37.8751 84.1104C37.5601 84.1804 37.2451 84.2504 36.8951 84.3204C36.5801 84.9154 36.2651 85.5104 36.0201 86.1054Z" fill="#F1F1F5"/>
<path d="M37.7 65.4542C37.42 64.2292 37.315 62.7242 37.245 62.0242C37 59.2942 37.28 59.0142 37 57.2992C36.965 57.0892 36.93 56.8792 36.895 56.6342C36.895 56.5992 36.895 56.5292 36.86 56.4942C36.86 56.4242 36.825 56.3892 36.825 56.3192C36.545 54.9192 36.09 53.4142 34.83 52.6092C33.92 52.0492 32.87 52.0842 32.135 52.1892C32.1 52.1892 32.1 52.1892 32.065 52.1892C31.96 52.1892 31.89 52.2242 31.82 52.2242C31.47 52.2942 30.315 52.5392 29.405 53.3792C27.41 55.3042 28.075 59.1542 29.09 61.4292C30.875 65.4892 35.215 67.3092 37.28 71.0892C39.555 75.2192 39.275 81.8342 38.645 86.3492C37.98 91.1442 42.495 94.2592 46.345 96.0442C50.79 98.1442 55.62 99.1942 60.485 98.1092C61.57 97.8642 62.9 97.4442 63.6 96.4642C64.44 95.2742 63.88 93.8042 63.53 92.5442C62.9 90.1292 63.11 87.4692 63.11 84.8792C58.385 84.9492 53.765 82.7792 49.81 80.3642C44.35 77.1442 39.135 71.9642 37.7 65.4542Z" fill="#F1F1F5"/>
<path d="M49.8101 80.4702C48.1301 79.4552 46.4851 78.2302 44.9451 76.8652C45.7851 78.4402 47.1851 80.4352 49.3201 82.2552C54.7101 86.8402 61.0801 86.9452 63.1101 86.8752C63.1101 86.2452 63.1451 85.6152 63.1451 84.9852C58.3851 85.0552 53.7651 82.8852 49.8101 80.4702Z" fill="#EDEDF1"/>
<path d="M82.36 43.545C81.45 36.51 76.83 30.385 70.39 27.445C58.735 22.125 43.72 25.275 36.405 35.46C31.715 42.005 31.68 49.285 31.855 52.295C31.925 52.295 32.03 52.26 32.1 52.26C32.135 52.26 32.135 52.26 32.17 52.26C32.8 52.155 33.885 52.085 34.865 52.68C36.125 53.45 36.58 54.92 36.86 56.39C36.86 56.46 36.895 56.495 36.895 56.565C36.895 56.6 36.895 56.67 36.93 56.705C36.965 56.915 37 57.16 37.035 57.37C37.315 59.085 37.035 59.365 37.28 62.095C37.35 62.795 37.455 64.3 37.735 65.525C39.17 72.035 44.385 77.215 49.845 80.54C53.8 82.955 58.42 85.125 63.145 85.055C63.915 85.055 64.685 84.985 65.455 84.845C70.32 83.97 74.765 81.205 77.845 77.355C79.84 74.835 80.645 72.595 80.925 69.445C81.24 65.84 81.065 62.2 81.555 58.595C82.185 53.555 82.99 48.55 82.36 43.545Z" fill="#F1F1F5"/>
</svg>
