<svg width="300" height="300" viewBox="0 0 300 300" fill="none" xmlns="http://www.w3.org/2000/svg">
<path d="M109.7 184C107.7 187.3 110.1 195.6 114.7 204.6C117.5 210 121.4 217.8 127.3 224C143.5 241 184.1 253 208.3 234.6C219.6 226.1 224 213.5 224.4 212.2C228.2 201 226.7 191.2 225.7 186.8C225.7 187.7 225.6 189.6 224.6 191.6C223 194.7 219.6 197.1 216.3 197C212.8 196.9 212.7 193.3 208 192.5C204.4 191.9 200.5 192.6 196.8 192.7C191.7 192.9 187 191.6 182 191.4C174.3 191 167.5 194.7 160.6 197.6C149.2 202.3 129.1 202 123.2 192.6C120.3 188 120.1 180.7 117.6 179.6C115.3 178.3 111.5 181 109.7 184ZM201.1 208.5C200.6 210.5 199.3 213 197.2 215.1H197.1H197.2C196.1 216.2 194.8 217.2 193.2 218C190 219.6 185.7 220.4 180.3 219.3C178 218.9 176 217.9 174.2 216.8C174.1 216.8 174.1 216.7 174 216.7C174 216.7 174 216.7 173.9 216.7C173 216.1 171.9 215.3 170.8 214.2C168.2 211.6 166.4 207.4 166.6 204.2C166.7 203 167 202 167.6 201.2C167.6 201.2 168.3 200.4 169.3 199.9C175.5 197 182.7 206.7 194.2 207C195.2 207 196.2 207 197.1 206.9C197.8 206.8 198.5 206.7 199.1 206.6C200.3 206.1 201.4 207.3 201.1 208.5Z" />
</svg>
