<svg width="300" height="300" viewBox="0 0 300 300" fill="none" xmlns="http://www.w3.org/2000/svg">
<path d="M102 181.3C101.2 177.8 100.9 173.5 100.7 171.5C100 163.7 100.8 162.9 100 158C99.9 157.4 99.8 156.8 99.7 156.1C99.7 156 99.7 155.8 99.6 155.7C99.6 155.5 99.5 155.4 99.5 155.2C98.7 151.2 97.4 146.9 93.8 144.6C91.2 143 88.2 143.1 86.1 143.4C86 143.4 86 143.4 85.9 143.4C85.6 143.4 85.4 143.5 85.2 143.5C84.2 143.7 80.9 144.4 78.3 146.8C72.6 152.3 74.5 163.3 77.4 169.8C82.5 181.4 94.9 186.6 100.8 197.4C107.3 209.2 106.5 228.1 104.7 241C102.8 254.7 115.7 263.6 126.7 268.7C139.4 274.7 153.2 277.7 167.1 274.6C170.2 273.9 174 272.7 176 269.9C178.4 266.5 176.8 262.3 175.8 258.7C174 251.8 174.6 244.2 174.6 236.8C161.1 237 147.9 230.8 136.6 223.9C121 214.7 106.1 199.9 102 181.3Z" fill="white"/>
<path d="M136.6 224.2C131.8 221.3 127.1 217.8 122.7 213.9C125.1 218.4 129.1 224.1 135.2 229.3C150.6 242.4 168.8 242.7 174.6 242.5C174.6 240.7 174.7 238.9 174.7 237.1C161.1 237.3 147.9 231.1 136.6 224.2Z" fill="#EDEDF1"/>
<path d="M229.6 118.701C227 98.6009 213.8 81.1009 195.4 72.7009C162.1 57.5009 119.2 66.5009 98.3002 95.6009C84.9002 114.301 84.8002 135.101 85.3002 143.701C85.5002 143.701 85.8002 143.601 86.0002 143.601C86.1002 143.601 86.1002 143.601 86.2002 143.601C88.0002 143.301 91.1002 143.101 93.9002 144.801C97.5002 147.001 98.8002 151.201 99.6002 155.401C99.6002 155.601 99.7002 155.701 99.7002 155.901C99.7002 156.001 99.7002 156.201 99.8002 156.301C99.9002 156.901 100 157.601 100.1 158.201C100.9 163.101 100.1 163.901 100.8 171.701C101 173.701 101.3 178.001 102.1 181.501C106.2 200.101 121.1 214.901 136.7 224.401C148 231.301 161.2 237.501 174.7 237.301C176.9 237.301 179.1 237.101 181.3 236.701C195.2 234.201 207.9 226.301 216.7 215.301C222.4 208.101 224.7 201.701 225.5 192.701C226.4 182.401 225.9 172.001 227.3 161.701C229.1 147.301 231.4 133.001 229.6 118.701Z" fill="white"/>
</svg>
