<svg width="300" height="300" viewBox="0 0 300 300" fill="none" xmlns="http://www.w3.org/2000/svg">
<path d="M150 300C232.843 300 300 232.843 300 150C300 67.1573 232.843 0 150 0C67.1573 0 0 67.1573 0 150C0 232.843 67.1573 300 150 300Z" fill="#A6D9B1"/>
<path d="M212 268.201C202.2 260.401 192.2 255.001 183.1 251.201C187.1 257.901 191.2 264.701 188.7 272.801C186.5 279.801 180.2 285.101 173.4 287.401C168.8 289.001 163.9 289.501 159 289.601C153.5 289.701 148.1 289.401 142.7 288.501C124.2 285.601 97.9002 276.301 95.2002 254.701C94.6002 249.901 95.3002 244.901 97.2002 240.401C97.9002 238.701 98.8002 236.901 99.9002 235.401C100.8 235.201 101.8 235.001 102.7 234.801C94.2002 236.501 83.7002 239.601 72.4002 245.001C62.7002 249.701 54.7002 255.001 48.2002 260.201C74.9002 284.901 110.7 300.001 150 300.001C177.3 300.001 202.8 292.701 224.8 280.001C221.2 276.101 216.9 272.101 212 268.201Z" fill="#E88C02"/>
<path d="M97.2001 240.3C95.3001 244.8 94.6001 249.7 95.2001 254.6C97.9001 276.3 124.3 285.5 142.7 288.4C148.1 289.3 153.6 289.6 159 289.5C163.9 289.4 168.8 288.9 173.4 287.3C180.2 285 186.5 279.8 188.7 272.7C191.2 264.7 187.1 257.8 183.1 251.1C180.9 250.2 178.8 249.4 176.7 248.6C176 248.4 175.3 248.1 174.6 247.9C174.6 248 174.6 248.1 174.6 248.2C174.6 248.3 174.6 248.4 174.6 248.4C174.6 248.9 174.6 249.4 174.6 249.8C174.6 250 174.6 250.2 174.6 250.4C174.6 251 174.7 251.6 174.7 252.2C174.7 252.4 174.7 252.5 174.7 252.7C174.8 253.2 174.8 253.8 174.9 254.3C174.9 254.4 174.9 254.5 174.9 254.6C175 255.2 175.1 255.8 175.2 256.4C175.2 256.5 175.3 256.7 175.3 256.8C175.4 257.4 175.6 258.1 175.7 258.7C176.7 262.3 178.3 266.5 175.9 269.9C174 272.6 170.1 273.9 167 274.6C153.1 277.7 139.3 274.7 126.6 268.7C115.7 263.5 102.7 254.7 104.6 241C104.7 240.6 104.7 240.1 104.8 239.7C104.9 239.3 104.9 238.8 105 238.4C105 238.2 105.1 237.9 105.1 237.7C105.2 236.9 105.3 236.1 105.3 235.3C105.3 235.2 105.3 235.2 105.3 235.1C105.3 234.8 105.4 234.5 105.4 234.1V234C104.6 234.2 103.7 234.3 102.8 234.5C102.7 234.5 102.6 234.5 102.5 234.6C101.6 234.8 100.7 235 99.7001 235.2C98.8001 236.9 97.9001 238.6 97.2001 240.3Z" fill="#5A63BA"/>
</svg>
