<svg width="300" height="300" viewBox="0 0 300 300" fill="none" xmlns="http://www.w3.org/2000/svg">
<path d="M219.2 147.499C218 147.499 216.7 147.599 215.5 147.899C214.3 148.099 213.2 148.499 212.1 148.999C211 149.499 210 150.099 209 150.699C208 151.399 207.1 152.099 206.3 152.999C205.5 153.899 204.7 154.799 204.1 155.799C203.4 156.799 202.9 157.899 202.4 158.999C202.2 159.399 202.1 159.799 202 160.199C201.9 160.399 201.9 160.599 201.8 160.799C201.7 160.999 201.7 161.299 201.6 161.499C201.2 162.199 200.4 161.699 199.8 161.599C199.2 161.399 198.5 161.299 197.8 161.299C197.6 161.299 197.4 161.299 197.2 161.299C195.9 161.299 194.6 161.499 193.3 161.899C192.6 162.099 191.8 161.699 191.7 160.999C189.8 151.199 180.7 143.699 169.8 143.699C157.5 143.699 147.6 153.099 147.6 164.699C147.6 176.299 157.6 185.699 169.8 185.699C180.4 185.699 189.3 178.599 191.5 169.199C191.7 168.399 192.2 167.599 192.9 167.199C195 165.899 197.9 165.999 199.7 166.799C200.9 167.299 201 168.299 201.2 169.499C202.7 178.299 210.2 184.999 219.2 184.999C229.3 184.999 237.5 176.599 237.5 166.299C237.5 155.899 229.3 147.499 219.2 147.499ZM169.7 180.599C160.2 180.599 152.5 173.399 152.5 164.599C152.5 155.799 160.2 148.599 169.7 148.599C179.2 148.599 186.9 155.799 186.9 164.599C186.9 173.399 179.2 180.599 169.7 180.599ZM219.2 179.899C211.9 179.899 205.9 173.799 205.9 166.199C205.9 158.599 211.9 152.499 219.2 152.499C226.5 152.499 232.5 158.599 232.5 166.199C232.5 173.799 226.5 179.899 219.2 179.899Z" fill="#2A1200"/>
</svg>
