<svg width="300" height="300" viewBox="0 0 300 300" fill="none" xmlns="http://www.w3.org/2000/svg">
<path d="M227.5 93.8003C221.4 82.4003 209.9 73.7003 204 70.0003C189.9 61.2003 176.5 59.6003 171.4 59.0003C165.1 58.3003 124.3 53.9003 98.9003 85.8003C86.0003 102.1 79.3002 124.9 82.7002 144.3C83.8002 143.9 84.8002 143.7 85.2002 143.6C85.4002 143.6 85.7003 143.5 85.9003 143.5C86.0003 143.5 86.0003 143.5 86.1003 143.5C88.2003 143.2 91.1003 143.2 93.8003 144.7C97.1003 146.7 97.7003 149.9 97.8003 153.3C97.9003 154.8 98.0003 156.2 98.3003 157.6C99.1003 162 104.6 170.3 110 169.5C112.6 169.1 113.2 166 113.6 163.9C114.1 160.8 114.2 158.3 115.6 155.4C117.7 151.2 120.7 147.1 124.5 144.4C128.2 141.8 132.6 139.9 135.1 136C138.9 130.1 137.3 121.7 138.7 115.1C140.1 108.7 143.3 102.7 149.3 99.6003C157 95.6003 166.5 96.2003 174.8 97.3003C176.6 97.5003 178.3 97.8003 180.1 98.1003C185.8 99.1003 191.6 100.3 197.4 100.5C203 100.7 208.6 99.0003 214.2 99.9003C221.2 101 226.7 106.2 228.4 113C228.2 112.2 228 111.5 227.8 110.7C228.5 113.3 229.1 115.9 229.4 118.6C230.9 130.4 229.6 142.2 228 154C228.5 153 229.6 148.9 229.9 147.8C232.5 137 233.8 130.9 234.3 121.4C235.1 111.2 232.8 103.8 227.5 93.8003Z" />
</svg>
