<svg width="300" height="300" viewBox="0 0 300 300" fill="none" xmlns="http://www.w3.org/2000/svg">
<path d="M242.5 81.5995C238.8 76.8995 234.7 75.9995 225.3 72.3995C211.9 67.1995 199.9 59.1995 186.5 54.0995C171.6 48.3995 155.4 45.2995 139.5 47.3995C136.2 47.7995 113.8 50.8995 96.6002 66.0995C94.6002 67.8995 93.1002 69.3995 92.1002 70.3995C81.2002 81.4995 76.2002 93.3995 73.8002 100.3C70.7002 102.8 66.4002 107.1 62.9002 113.4C62.5002 114.2 61.5002 115.799 60.9002 117.6C58.2002 124.6 58.2002 132.399 59.5002 139.7C62.3002 155.999 68.9002 167.899 72.8002 173.2C77.9002 180.199 83.0002 184.499 87.4002 188.199C91.5002 191.699 99.2002 197.6 100.2 196.6C100.6 196.2 100 194.399 94.9002 187.999C91.2002 185.6 76.3002 175.799 74.8002 160.899C74.5002 157.7 73.9002 151.6 77.9002 147.7C80.2002 145.5 83.4002 144.6 86.6002 144.7C91.8002 144.799 96.9002 147.799 99.7002 152.2C103 157.399 103.7 162.3 109.4 165.5C112.5 167.3 119 169.799 122.2 166.7C123.4 165.5 124.4 164.4 124.8 156.6C125.3 147.6 124.2 146.2 127.2 142C131.3 136.3 134.6 137.9 139.8 134.8C147.7 130.2 145.7 123.7 152.8 118.3C157.7 114.6 162.9 113.8 165.2 113.4C183.1 110.6 190.4 128.7 210.9 129.399C217.8 129.599 224.4 128.4 230.2 125.6C230.5 133.7 229.8 141.799 228.8 149.899C229.4 149.299 230.2 148.5 231 147.5C231.9 146.5 235.7 141.899 237.9 134.399C239.2 129.999 240.9 124.7 239.6 118.7C240.8 117.5 242.1 115.9 243.3 114C249.4 104 249.1 89.9995 242.5 81.5995Z" />
</svg>
