<svg width="300" height="300" viewBox="0 0 300 300" fill="none" xmlns="http://www.w3.org/2000/svg">
<path d="M250.3 110.4C247.9 105.4 244 102.5 241.1 97.6002C239 94.1002 239.6 93.2002 237.6 87.9002C236.5 85.0002 233.3 77.6002 228.1 71.7002C222.4 65.1002 215.9 62.3002 210 59.7002C205.2 57.6002 190 51.3002 171.9 53.9002C165.3 54.9002 158.4 56.9002 147.1 57.9002C137.7 58.7002 128.1 57.9002 118.8 59.8002C110.2 61.6002 102.6 66.0002 95.7002 71.2002C81.9002 81.7002 76.1002 94.9002 73.9002 100C65.5002 119.8 72.8002 125.7 64.1002 150.9C59.7002 163.6 58.2002 165 54.6002 176.1C51.1002 187.1 51.7002 200 56.4002 210.5C60.2002 219 67.3002 226.3 76.3002 229C81.8002 230.7 87.8002 230.5 93.4002 232C100.8 233.9 107.1 238.4 114 241.7C120.9 245 129.1 247 136 243.7C142 240.8 145.5 234.5 147.2 228.1C150.1 216.5 147.6 203.7 140.5 194C136.8 189 131.9 184.9 127.9 180.1C123.9 175.3 120.5 169.4 120.8 163.2C121 157 125.2 151 130.9 148.6C130.9 148.6 131 148.6 131 148.5C138.4 145.5 145.8 147 148.5 147.5C154 148.4 159.8 148.2 165.2 147C169.6 146 174.2 144.4 177.6 141.1C181.3 137.5 182.3 132.3 184.1 127.7C185.4 124.3 186.8 121 188.3 117.7C190.7 112.7 193.6 107.7 198.1 104.2C198.7 103.7 199.4 103.3 200 102.8C201.8 101.6 207.5 98.0002 214.3 99.4002C223.2 101.2 227.4 110.5 228.2 112.3C230.1 116.5 230.2 120 230.4 126.6C230.5 131.2 230.3 134.7 229.2 144.6C227 165 226.2 166.7 226.3 173.4C226.3 174.7 226.4 179.1 226.1 185C226 188 225.9 189.9 225.6 192.4C225.2 196.1 224.7 200.4 222.8 205C221.4 208.4 219.5 211.6 216.8 215C208.1 226 195.3 233.9 181.4 236.4C179.2 236.8 177 237 174.8 237C174.8 240.5 174.7 244.1 174.7 247.6C175.4 247.8 176.1 248 176.9 248.1C183.3 248.9 186 244.8 195.1 242.3C206.9 239.1 209.5 244 219.5 241.4C228.3 239.1 238.6 232.1 241.7 222.3C245 211.8 237.5 205.8 235 191.3C233.9 184.4 234.2 177.3 235.7 170.5C238.8 156.4 248.3 145.7 252 132.1C253.7 125.8 253.4 119 251.4 112.8C251 112 250.7 111.1 250.3 110.4ZM90.1002 181C85.7002 179.9 83.0002 177.4 82.0002 176.5C81.3002 175.8 79.3002 173.7 77.5002 170.1C73.6002 162 74.2002 151.1 78.4002 147.1C80.9002 144.7 84.3002 143.9 85.3002 143.8C85.5002 143.8 85.8002 143.7 86.0002 143.7C86.0002 143.7 86.1002 143.7 86.2002 143.7C86.5002 143.7 90.7002 143.9 93.1002 146.6C94.8002 148.5 95.9002 151 94.8002 155.7C93.9002 159.7 93.1002 161.7 94.3002 167.3C95.2002 171.5 97.8002 174.8 98.0002 175C100.2 177.9 101.9 178.4 101.7 179.5C101.2 181.3 95.1002 182.2 90.1002 181Z" />
</svg>
