<svg width="300" height="300" viewBox="0 0 300 300" fill="none" xmlns="http://www.w3.org/2000/svg">
<path d="M255.9 105.899C252.2 98.2991 244.1 97.4991 243.3 89.5991C242.9 86.2991 244.1 84.4991 244.6 82.2991C247.6 68.8991 228.6 50.3991 209 43.0991C199.9 39.6991 192.3 39.2991 187.4 39.0991C174.4 38.5991 168.3 45.7991 152.1 45.1991C147.5 44.9991 148.5 44.5991 142.2 44.0991C133 43.3991 121.3 42.5991 109.6 46.3991C99.1002 49.8991 89.6002 56.5991 82.9002 65.4991C79.5002 70.0991 76.8002 75.1991 75.3002 80.6991C72.7002 89.5991 72.9002 92.2991 71.1002 97.9991C66.1002 113.899 53.4002 112.599 48.0002 126.799C43.5002 138.599 48.2002 150.599 50.4002 156.199C51.8002 159.599 57.5002 174.199 70.7002 180.799C74.0002 182.499 77.4002 183.399 83.8002 187.099C86.1002 188.399 90.3002 190.999 95.1002 195.099C99.3002 198.799 100.9 201.099 101.6 202.199C103.3 204.799 104.2 207.199 104.8 208.999C104 204.899 102.8 200.999 100.9 197.699C96.7002 190.099 89.4002 185.299 83.7002 179.099C83.4002 178.799 83.2002 178.499 82.9002 178.299L82.8002 178.199C82.4002 177.699 82.0002 177.299 81.6002 176.799C81.0002 175.999 80.4002 175.299 79.9002 174.499C79.5002 173.899 79.1002 173.299 78.7002 172.599C78.3002 171.799 77.9002 170.999 77.5002 170.199C77.3002 169.799 77.2002 169.399 77.0002 168.999C76.9002 168.899 76.9002 168.699 76.9002 168.599C76.8002 168.299 76.7002 167.999 76.6002 167.699C76.5002 167.499 76.5002 167.399 76.4002 167.199C76.3002 166.899 76.2002 166.599 76.1002 166.399C76.0002 166.199 76.0002 165.999 75.9002 165.799C75.8002 165.499 75.7002 165.199 75.7002 164.899C75.7002 164.699 75.6002 164.499 75.6002 164.299C75.5002 163.999 75.5002 163.699 75.4002 163.399C75.4002 163.199 75.3002 162.999 75.3002 162.799C75.2002 162.499 75.2002 162.099 75.1002 161.799C75.1002 161.599 75.0002 161.499 75.0002 161.299C74.9002 160.799 74.9002 160.299 74.8002 159.799C74.8002 159.299 74.7002 158.799 74.7002 158.399C74.7002 158.299 74.7002 158.099 74.7002 157.999C74.7002 157.599 74.7002 157.299 74.7002 156.899C74.7002 156.799 74.7002 156.599 74.7002 156.499C74.7002 155.999 74.8002 155.599 74.8002 155.099C74.9002 154.599 74.9002 154.199 75.0002 153.699C75.0002 153.599 75.1002 153.399 75.1002 153.299C75.2002 152.999 75.3002 152.599 75.3002 152.299C75.3002 152.199 75.4002 151.999 75.4002 151.899C75.5002 151.499 75.7002 151.099 75.9002 150.599C76.1002 150.199 76.3002 149.799 76.5002 149.399C76.6002 149.299 76.6002 149.199 76.7002 149.099C76.9002 148.799 77.0002 148.599 77.2002 148.299C77.3002 148.199 77.4002 148.099 77.4002 147.999C77.7002 147.699 78.0002 147.299 78.3002 146.999C78.5002 146.799 78.7002 146.699 78.9002 146.499C79.0002 146.399 79.1002 146.299 79.3002 146.199C81.7002 144.399 84.4002 143.799 85.2002 143.699C85.4002 143.699 85.7002 143.599 85.9002 143.599C86.0002 143.599 86.0002 143.599 86.1002 143.599C88.2002 143.299 91.1002 143.299 93.8002 144.799C98.4002 147.599 97.7002 152.799 97.9002 157.499C98.1002 160.499 98.3002 162.899 98.4002 164.699C98.7002 167.199 98.8002 168.399 98.9002 169.199C100.1 175.199 106.4 180.999 109.6 179.899C111.4 179.299 111.5 176.899 112.7 173.099C112.9 172.399 116.4 159.999 122 156.799C132.1 150.999 141.9 165.499 156.6 161.199C163.9 159.099 171.2 152.799 173.9 145.199C177.3 135.699 172 128.499 177.4 115.599C178.2 113.699 179.1 111.599 180.8 109.199C181.4 108.399 190 97.3991 202.2 99.0991C207.8 99.8991 211.7 102.999 213.7 104.899C215.9 107.199 217.7 107.999 218.9 108.299C219.3 108.399 220.2 108.799 221.6 108.999C222.4 109.099 223.2 109.399 224 109.799C229.3 112.699 228.7 121.099 228.7 121.799C228.1 129.899 221.6 130.699 220.9 138.599C220.4 143.599 222.5 145.299 224.4 153.099C225.5 157.699 226.6 164.299 226.1 172.999C228.2 172.199 231.3 170.699 233.4 167.799C238.6 160.599 232.9 152.399 237.7 144.499C240.4 140.099 242.7 141.699 247.7 136.899C255.3 129.499 260.5 115.399 255.9 105.899Z" />
</svg>
