<svg width="300" height="300" viewBox="0 0 300 300" fill="none" xmlns="http://www.w3.org/2000/svg">
<path d="M251.2 76.9999C244.2 67.9999 234.5 65.3999 231.1 64.5999C230.9 62.0999 229.9 56.6999 225.7 52.3999C219.6 46.0999 209 44.6999 199.3 48.9999C191.7 32.8999 176.1 22.5999 159.4 22.6999C140.4 22.8999 128.6 36.4999 126.8 38.6999C125.9 37.3999 121.7 31.3999 114.8 30.5999C106.5 29.5999 97.3002 36.3999 94.5002 47.4999C77.4002 46.5999 61.5002 55.2999 54.3002 69.5999C46.1002 85.7999 52.6002 101.8 53.6002 104.2C51.7002 105.4 46.7002 109.1 44.6002 115.8C40.8002 127.8 49.8002 137.9 50.3002 138.4C44.4002 148.9 44.9002 161.7 51.6002 171.3C60.8002 184.5 76.7002 184.3 77.9002 184.3C78.2002 185.5 80.2002 193.7 87.9002 197.3C93.0002 199.7 100 199.8 100.8 197.6C101.6 195.6 95.6002 191.1 85.0002 180.5C81.0002 176.5 79.0002 173.8 77.4002 170C73.7002 161.3 76.3002 152.1 78.3002 147C78.5002 147.3 81.2002 151.6 86.2002 151.8C90.1002 152 93.8002 149.6 95.5002 145.8C95.5002 155.6 101.7 163.4 108.5 164.4C116.8 165.7 127.4 157.1 127.1 144.1C133 147.4 137.8 147.6 140.4 147.4C152.3 146.6 163.3 135.6 167.3 119.8C169.5 121.7 182.3 132.6 198.6 129.8C203.6 128.9 207.7 127 210.6 125.1C212.1 126.9 214 128.8 216.3 130.8C221.2 134.9 226 137.5 229.8 139C229.2 146.5 228.1 153.9 227.2 161.3C226.3 168.2 226.2 175.1 226 182C227 181.3 229.3 179.6 230.6 176.3C232.1 172.7 231.5 169.4 231.3 168.3C232.8 168.4 240.9 168.7 246.3 163C252.4 156.5 252.8 144.9 246 135.7C249.8 130.8 258.6 118.2 258.4 100.9C258.2 95.2999 258.1 85.7999 251.2 76.9999Z" />
</svg>
