<svg width="300" height="300" viewBox="0 0 300 300" fill="none" xmlns="http://www.w3.org/2000/svg">
<g clip-path="url(#clip0_1126_97062)">
<path d="M154.1 273.001C152.3 265.201 147.9 260.201 139.9 251.301C125.6 235.201 118.1 235.301 112.4 224.301C105.5 211.001 109 196.601 109.3 195.501C115 173.601 136.5 176.001 148.3 153.801C161.1 129.801 145.8 108.701 158.5 99.7006C167.2 93.6006 184.1 97.3006 190.4 105.901C196 113.601 190.4 121.201 197.9 134.601C200.5 139.201 203.7 143.901 208.5 146.301C216.1 150.101 226.6 144.101 227.1 159.801C227.1 161.401 227 163.001 226.7 164.501C225.4 171.101 225.1 177.901 225.3 184.601C225.5 191.101 225.1 197.501 223 203.701C222.1 206.401 220.5 209.101 219 211.501C217.4 214.001 215.6 216.301 213.5 218.401C209.5 222.501 205.2 226.201 200.2 229.201C195.3 232.101 190 234.301 184.5 235.701C183.4 236.001 182.2 236.201 181.1 236.401C178.9 236.801 176.7 237.001 174.5 237.001C174.5 240.601 174.4 244.301 174.4 247.901C175.1 248.101 175.8 248.401 176.5 248.601C178.6 249.301 180.7 250.201 183 251.101C192.1 254.901 202.1 260.301 211.9 268.101C212.5 268.601 213.1 269.101 213.7 269.601C214.7 270.401 215.7 271.301 216.7 272.101C216.9 272.201 217 272.401 217.2 272.501C217.7 272.901 218.1 273.301 218.6 273.801C218.7 273.901 218.8 274.001 218.9 274.001C219.3 274.401 219.7 274.701 220.1 275.101C220.2 275.201 220.4 275.401 220.5 275.501C220.9 275.801 221.2 276.201 221.5 276.501C221.7 276.701 221.8 276.801 222 277.001C222.4 277.401 222.9 277.901 223.3 278.301C223.4 278.401 223.4 278.401 223.5 278.501C224 279.001 224.4 279.401 224.8 279.901C224.8 279.901 224.8 279.901 224.9 280.001C224.9 280.001 224.8 280.001 224.8 280.101C236.1 273.601 246.5 265.701 255.7 256.601C260.9 247.401 263 236.201 260.3 226.501C254.9 207.501 233.5 203.101 234.9 188.201C235.2 185.501 236.3 180.601 239.4 176.001C243 170.601 247.4 169.301 249.8 166.401C259.1 155.501 258 140.201 257.6 133.901C256.7 121.701 251.3 110.101 243.4 100.801C236.2 92.3006 226.4 86.9006 218.8 78.7006C213.9 73.4006 204.5 63.0006 192.3 56.8006C178.8 49.9006 161 50.4006 146.4 53.3006C142 54.2006 138.1 55.4006 134.6 57.1006C126.5 60.9006 124 65.6006 116.9 71.2006C109.6 76.9006 107.4 75.9006 99.0998 80.9006C95.8998 82.5006 75.6998 95.0006 66.9998 118.901C65.5998 122.701 63.3998 129.001 63.0998 137.501C62.7998 147.901 65.5998 151.001 66.7998 162.101C67.6998 170.501 68.9998 181.901 63.8998 192.501C58.2998 204.201 50.8998 202.301 44.2998 215.701C42.7998 218.701 38.7998 226.901 39.5998 238.001C40.3998 249.101 45.5998 257.001 48.0998 260.301C74.9998 284.901 110.7 300.001 150 300.001C150.1 300.001 150.2 300.001 150.3 300.001C154.1 292.401 156.3 282.201 154.1 273.001ZM87.5998 179.701C85.3998 180.701 80.1998 175.601 77.4998 170.001C74.2998 163.601 72.2998 152.601 78.3998 147.001C81.1998 144.401 84.4998 144.001 85.5998 143.801C93.8998 142.701 99.6998 149.501 100.2 150.101C96.1998 152.901 90.7998 157.601 88.8998 164.701C86.8998 172.401 89.7998 178.701 87.5998 179.701Z" />
</g>
<defs>
<clipPath id="clip0_1126_97062">
<rect width="300" height="300" fill="white"/>
</clipPath>
</defs>
</svg>
