<svg width="300" height="300" viewBox="0 0 300 300" fill="none" xmlns="http://www.w3.org/2000/svg">
<path d="M239.7 107.1C238.4 83.9001 216.9 65.5001 200.4 57.4001C190.9 52.7001 182.4 51.4001 176 50.4001C172.2 49.8001 156.3 47.5001 135.5 51.7001C133.9 52.0001 132.3 52.3001 130.8 52.7001C129.8 44.7001 117.8 33.2001 101.7 32.6001C82.0003 31.9001 70.2003 41.6001 64.8003 53.7001C59.4003 65.7001 61.2003 83.2001 69.1003 91.1001C71.8003 93.8001 75.0003 95.8001 78.5003 97.1001C78.3003 97.3001 78.2003 97.5001 78.0003 97.7001C65.7003 112.6 60.7003 134.2 63.3003 153.1C64.6003 162.6 67.9003 172 74.2003 179.3C81.6003 188.2 94.5003 190.3 101.1 199.6C102.7 201.9 103.7 204.1 104.2 205.6C104.6 203.8 105.1 200.8 104.1 197.6C101.9 190.7 95.1003 189.7 86.9003 181.7C83.5003 178.4 79.2003 174.2 77.1003 167.7C74.8003 160.3 74.9003 148.7 81.7003 144.7C84.9003 142.8 89.2003 143 92.6003 144.5C93.2003 144.7 93.7003 145 94.1003 145.3C97.4003 147.3 99.3003 153 99.3003 153C101.3 160.9 107.9 165.3 108 165.4C110.8 167.2 115.8 170.4 119.2 168.3C121.2 167 121.6 164.3 122 162C123.9 150.7 128.7 145.9 138.3 141.4C148.7 136.6 157.7 130.1 165.9 122C173.8 114.2 175.2 108.2 180.5 102.8C183.7 99.4001 185.7 97.9001 188.1 96.7001C194.5 93.4001 201.2 94.0001 205.6 94.9001C207.4 95.3001 209.3 95.4001 211.2 95.2001C216.1 94.7001 218.7 95.8001 222 99.0001C225.8 102.8 227.9 108.1 229.3 116.1C230.3 122.1 230.3 127.1 230.1 132.1C229.9 138.9 229.3 148.1 227.7 159.1C229.8 153.3 232.5 144.9 235 134.8C238.3 120.5 240.1 113.4 239.7 107.1Z" />
</svg>
