<svg width="300" height="300" viewBox="0 0 300 300" fill="none" xmlns="http://www.w3.org/2000/svg">
<path d="M102 181.3C101.2 177.8 100.9 173.5 100.7 171.5C100 163.7 100.8 162.9 100 158C99.9 157.4 99.8 156.8 99.7 156.1C99.7 156 99.7 155.8 99.6 155.7C99.6 155.5 99.5 155.4 99.5 155.2C98.7 151.2 97.4 146.9 93.8 144.6C91.2 143 88.2 143.1 86.1 143.4C86 143.4 86 143.4 85.9 143.4C85.6 143.4 85.4 143.5 85.2 143.5C84.2 143.7 80.9 144.4 78.3 146.8C72.6 152.3 74.5 163.3 77.4 169.8C82.5 181.4 94.9 186.6 100.8 197.4C107.3 209.2 106.5 228.1 104.7 241C102.8 254.7 115.7 263.6 126.7 268.7C139.4 274.7 153.2 277.7 167.1 274.6C170.2 273.9 174 272.7 176 269.9C178.4 266.5 176.8 262.3 175.8 258.7C174 251.8 174.6 244.2 174.6 236.8C161.1 237 147.9 230.8 136.6 223.9C121 214.7 106.1 199.9 102 181.3Z" fill="#EAB97A"/>
<path d="M136.6 224.2C131.8 221.3 127.1 217.8 122.7 213.9C125.1 218.4 129.1 224.1 135.2 229.3C150.6 242.4 168.8 242.7 174.6 242.5C174.6 240.7 174.7 238.9 174.7 237.1C161.1 237.3 147.9 231.1 136.6 224.2Z" fill="#BC855C"/>
<path d="M229.6 118.701C227 98.6009 213.8 81.1009 195.4 72.7009C162.1 57.5009 119.2 66.5009 98.3002 95.6009C84.9002 114.301 84.8002 135.101 85.3002 143.701C85.5002 143.701 85.8002 143.601 86.0002 143.601C86.1002 143.601 86.1002 143.601 86.2002 143.601C88.0002 143.301 91.1002 143.101 93.9002 144.801C97.5002 147.001 98.8002 151.201 99.6002 155.401C99.6002 155.601 99.7002 155.701 99.7002 155.901C99.7002 156.001 99.7002 156.201 99.8002 156.301C99.9002 156.901 100 157.601 100.1 158.201C100.9 163.101 100.1 163.901 100.8 171.701C101 173.701 101.3 178.001 102.1 181.501C106.2 200.101 121.1 214.901 136.7 224.401C148 231.301 161.2 237.501 174.7 237.301C176.9 237.301 179.1 237.101 181.3 236.701C195.2 234.201 207.9 226.301 216.7 215.301C222.4 208.101 224.7 201.701 225.5 192.701C226.4 182.401 225.9 172.001 227.3 161.701C229.1 147.301 231.4 133.001 229.6 118.701Z" fill="#EAB97A"/>
<path d="M212.4 186.199C211 193.399 217.2 199.799 223.9 201.099C224.6 198.399 225.1 195.599 225.4 192.399C225.8 187.199 226 181.999 226.1 176.799C219.9 176.699 213.8 179.599 212.4 186.199Z" fill="#E59674"/>
<path d="M130.5 185.5C130.9 192.9 138.8 197.6 145.7 197C152.4 196.5 159 190.3 158.7 183.4C158.7 182.7 158.6 182.1 158.4 181.4C155.1 167.2 129.7 171.1 130.5 185.5Z" fill="#E59674"/>
<path d="M202.5 188.2C204 186.2 203 183.3 202.4 181.4C202.3 181.1 200.5 176.2 197.7 176.4C195.5 176.6 193.9 179.3 193.2 181.4C192.4 183.9 191.7 186.1 192.8 187.8C194.5 190.6 200.4 190.9 202.5 188.2Z" fill="#D48961"/>
<path d="M216.3 158.4C217.4 158.3 218.5 158.5 219.5 159C222.6 160.5 223.8 163.5 222.5 166.7C221.6 169 219.7 171.1 217.2 171.4C215.4 171.6 213.6 171.1 212.1 170.2C208.8 168.1 209.6 163.5 211.8 160.9C212.2 160.5 212.6 160.1 213 159.7C214 158.9 215.2 158.4 216.3 158.4Z" fill="#2A1200"/>
<path d="M179 168.3C176.8 172.5 170.6 172.2 167 170.2C163.4 168.2 161.1 162.9 164.1 159.4C166.6 156.5 170.4 155.7 173.9 157.2C178.3 159 180.9 164.7 179 168.3Z" fill="#2A1200"/>
<path d="M214.9 140.699H214.8C214.2 140.399 215.2 139.599 215.4 139.499C216.1 139.099 216.9 138.899 217.6 138.699C219.5 138.299 221.8 138.399 223.4 139.599C225.6 141.099 226.5 144.099 226.4 144.199C226.4 144.199 226.3 144.199 226.2 144.099C226.2 144.099 225.5 142.999 224.4 142.099C221.9 140.099 217.9 140.299 214.9 140.699Z" fill="#2A1200"/>
<path d="M159.9 142.1C159.8 142.1 159.7 142.1 159.5 142.1C159.4 142 159.5 141.9 159.5 141.8C159.9 141.1 160.4 140.4 161 139.8C165.6 134.8 173.3 133.4 178.8 137.9C179.9 138.8 178.2 138.7 177.7 138.6C174.6 137.7 171.2 137.4 168 138C166.4 138.3 164.9 138.9 163.4 139.7C162.7 140.1 162 140.5 161.4 141C161 141.3 160.5 141.9 159.9 142.1Z" fill="#2A1200"/>
<path d="M199.1 206.4C198.5 206.5 197.8 206.6 197.1 206.7C197.1 207.3 197 207.9 196.7 208.5C195.3 211.2 190.3 211.1 186.4 210.8C189.6 213.3 191.7 216 193.2 218.1C194.8 217.3 196.1 216.3 197.2 215.2H197.1H197.2C199.2 213.1 200.6 210.7 201.1 208.6C201.4 207.3 200.3 206.1 199.1 206.4Z" fill="#873C41"/>
<path d="M186.4 210.7C185.6 210.6 184.9 210.5 184.3 210.5C181.4 210.2 177.5 209.4 172.9 207.4C170.9 206.5 168.8 205.5 166.6 204.1C166.4 207.3 168.3 211.4 170.8 214.1C171.9 215.2 173 216 173.9 216.6C173.9 216.6 173.9 216.6 174 216.6C174.1 216.6 174.1 216.7 174.2 216.7C176 217.9 178.1 218.8 180.3 219.2C185.7 220.3 190 219.6 193.2 217.9C191.8 215.9 189.6 213.2 186.4 210.7Z" fill="#EE7E8B"/>
<path d="M184.301 210.499C184.901 210.599 185.701 210.699 186.401 210.699C190.201 211.099 195.201 211.199 196.701 208.399C197.001 207.899 197.101 207.299 197.101 206.599C196.201 206.699 195.201 206.799 194.201 206.699C182.701 206.399 175.401 196.699 169.301 199.599C168.301 200.099 167.601 200.899 167.601 200.899C167.001 201.699 166.701 202.799 166.601 203.899C168.801 205.299 170.901 206.399 172.901 207.199C177.501 209.399 181.401 210.099 184.301 210.499Z" fill="white"/>
</svg>
