<svg width="299" height="300" viewBox="0 0 299 300" fill="none" xmlns="http://www.w3.org/2000/svg">
<path fill-rule="evenodd" clip-rule="evenodd" d="M194.4 72.7009C212.8 81.1009 226 98.6009 228.6 118.701C230.2 131.411 228.561 144.121 226.913 156.901C226.707 158.5 226.5 160.1 226.3 161.701C225.494 167.63 225.318 173.592 225.142 179.549C225.012 183.941 224.882 188.33 224.5 192.701C223.7 201.701 221.4 208.101 215.7 215.301C206.9 226.301 194.2 234.201 180.3 236.701C178.1 237.101 175.9 237.301 173.7 237.301C173.666 237.301 173.633 237.302 173.599 237.302C173.595 238.616 173.573 239.935 173.552 241.255C173.504 244.235 173.456 247.217 173.6 250.146V249.8V248.4V248.2V247.9C173.95 248 174.3 248.125 174.65 248.25C175 248.375 175.35 248.5 175.7 248.6L175.701 248.6L175.702 248.601L175.702 248.601C177.801 249.4 179.901 250.2 182.1 251.1L182.18 251.233C191.258 255.031 201.229 260.423 211 268.2C215.9 272.1 220.2 276.1 223.8 280C201.8 292.7 176.3 300 149 300C109.7 300 73.9002 284.9 47.2002 260.2C53.7002 255 61.7002 249.7 71.4002 245C81.3438 240.248 90.668 237.277 98.555 235.474L98.7001 235.2C99.7001 235 100.6 234.8 101.5 234.6C101.6 234.5 101.7 234.5 101.8 234.5C102.215 234.408 102.629 234.337 103.034 234.268L103.034 234.268L103.035 234.268C103.509 234.187 103.969 234.108 104.4 234V234.1C104.4 234.314 104.371 234.5 104.345 234.672C104.322 234.822 104.3 234.961 104.3 235.1V235.3C104.3 236.1 104.2 236.9 104.1 237.7L104.1 237.7C104.1 237.8 104.075 237.925 104.05 238.05C104.025 238.175 104 238.3 104 238.4C103.95 238.6 103.925 238.825 103.9 239.05C103.875 239.275 103.85 239.5 103.8 239.7C103.75 239.9 103.725 240.125 103.7 240.35C103.675 240.575 103.65 240.8 103.6 241C102.41 249.579 107.064 256.237 113.385 261.293C107.097 256.238 102.514 249.555 103.7 241.001C105.5 228.101 106.3 209.201 99.8 197.401C97.0335 192.337 92.8379 188.504 88.6359 184.665C83.8764 180.317 79.1086 175.962 76.4 169.801C73.5 163.301 71.6 152.301 77.3 146.801C79.9 144.401 83.2 143.701 84.2 143.501C84.2294 143.501 84.2588 143.499 84.2885 143.495C83.8026 134.773 84.0059 114.153 97.3002 95.6009C118.2 66.5009 161.1 57.5009 194.4 72.7009ZM95.2593 146.87C97.069 149.213 97.9172 152.287 98.5 155.201C98.5 155.301 98.525 155.376 98.55 155.451C98.575 155.526 98.6 155.601 98.6 155.701C98.7 155.801 98.7 156.001 98.7 156.101C98.7999 156.8 98.8999 157.4 98.9998 158L99 158.001C99.41 160.512 99.3997 161.946 99.3865 163.798C99.374 165.559 99.3587 167.698 99.7 171.501C99.7321 171.822 99.7669 172.203 99.8058 172.631C100.009 174.862 100.329 178.363 101 181.301C101.9 185.384 103.321 189.284 105.155 192.982C103.369 189.342 101.984 185.51 101.1 181.501C100.429 178.563 100.11 175.062 99.906 172.831C99.8671 172.403 99.8323 172.022 99.8002 171.701C99.4589 167.898 99.4742 165.759 99.4867 163.998C99.4999 162.146 99.5102 160.712 99.1002 158.201C99.0502 157.901 99.0002 157.576 98.9502 157.251C98.9002 156.926 98.8502 156.601 98.8002 156.301C98.7002 156.201 98.7002 156.001 98.7002 155.901C98.7002 155.801 98.6752 155.726 98.6502 155.651C98.6252 155.576 98.6002 155.501 98.6002 155.401C98.0067 152.285 97.1381 149.169 95.2593 146.87ZM125.6 268.7C123.643 267.766 121.617 266.716 119.623 265.543C121.645 266.724 123.704 267.775 125.7 268.701C134.772 272.987 144.406 275.742 154.236 275.836C144.371 275.76 134.703 273.001 125.6 268.7ZM93.9913 251.261C93.9888 252.413 94.0579 253.562 94.2002 254.7C96.9002 276.3 123.2 285.6 141.7 288.5C147.1 289.4 152.5 289.7 158 289.6C162.9 289.5 167.8 289 172.4 287.4C179.2 285.1 185.5 279.8 187.7 272.8C188.236 271.065 188.468 269.39 188.464 267.763C188.462 269.365 188.229 271.008 187.7 272.7C185.5 279.8 179.2 285 172.4 287.3C167.8 288.9 162.9 289.4 158 289.5C152.6 289.6 147.1 289.3 141.7 288.4C123.3 285.5 96.9002 276.3 94.2001 254.6C94.0637 253.486 93.9945 252.371 93.9913 251.261Z" fill="#836055"/>
<path d="M135.6 224.2C130.8 221.3 126.1 217.8 121.7 213.9C124.1 218.4 128.1 224.1 134.2 229.3C149.6 242.4 167.8 242.7 173.6 242.5C173.6 240.7 173.7 238.9 173.7 237.1C160.1 237.3 146.9 231.1 135.6 224.2Z" fill="#68463C"/>
<path d="M211.4 186.199C210 193.399 216.2 199.799 222.9 201.099C223.6 198.399 224.1 195.599 224.4 192.399C224.8 187.199 225 181.999 225.1 176.799C218.9 176.699 212.8 179.599 211.4 186.199Z" fill="#C07E6B"/>
<path d="M129.5 185.5C129.9 192.9 137.8 197.6 144.7 197C151.4 196.5 158 190.3 157.7 183.4C157.7 182.7 157.6 182.1 157.4 181.4C154.1 167.2 128.7 171.1 129.5 185.5Z" fill="#C07E6B"/>
<path d="M201.5 188.2C203 186.2 202 183.3 201.4 181.4C201.3 181.1 199.5 176.2 196.7 176.4C194.5 176.6 192.9 179.3 192.2 181.4C191.4 183.9 190.7 186.1 191.8 187.8C193.5 190.6 199.4 190.9 201.5 188.2Z" fill="#68463C"/>
<path d="M215.3 158.4C216.4 158.3 217.5 158.5 218.5 159C221.6 160.5 222.8 163.5 221.5 166.7C220.6 169 218.7 171.1 216.2 171.4C214.4 171.6 212.6 171.1 211.1 170.2C207.8 168.1 208.6 163.5 210.8 160.9C211.2 160.5 211.6 160.1 212 159.7C213 158.9 214.2 158.4 215.3 158.4Z" fill="#2A1200"/>
<path d="M178 168.3C175.8 172.5 169.6 172.2 166 170.2C162.4 168.2 160.1 162.9 163.1 159.4C165.6 156.5 169.4 155.7 172.9 157.2C177.3 159 179.9 164.7 178 168.3Z" fill="#2A1200"/>
<path d="M213.9 140.699H213.8C213.2 140.399 214.2 139.599 214.4 139.499C215.1 139.099 215.9 138.899 216.6 138.699C218.5 138.299 220.8 138.399 222.4 139.599C224.6 141.099 225.5 144.099 225.4 144.199C225.4 144.199 225.3 144.199 225.2 144.099C225.2 144.099 224.5 142.999 223.4 142.099C220.9 140.099 216.9 140.299 213.9 140.699Z" fill="#2A1200"/>
<path d="M158.9 142.1C158.8 142.1 158.7 142.1 158.5 142.1C158.4 142 158.5 141.9 158.5 141.8C158.9 141.1 159.4 140.4 160 139.8C164.6 134.8 172.3 133.4 177.8 137.9C178.9 138.8 177.2 138.7 176.7 138.6C173.6 137.7 170.2 137.4 167 138C165.4 138.3 163.9 138.9 162.4 139.7C161.7 140.1 161 140.5 160.4 141C160 141.3 159.5 141.9 158.9 142.1Z" fill="#2A1200"/>
<path d="M198.1 206.4C197.5 206.5 196.8 206.6 196.1 206.7C196.1 207.3 196 207.9 195.7 208.5C194.3 211.2 189.3 211.1 185.4 210.8C188.6 213.3 190.7 216 192.2 218.1C193.8 217.3 195.1 216.3 196.2 215.2H196.1H196.2C198.2 213.1 199.6 210.7 200.1 208.6C200.4 207.3 199.3 206.1 198.1 206.4Z" fill="#873C41"/>
<path d="M185.4 210.7C184.6 210.6 183.9 210.5 183.3 210.5C180.4 210.2 176.5 209.4 171.9 207.4C169.9 206.5 167.8 205.5 165.6 204.1C165.4 207.3 167.3 211.4 169.8 214.1C170.9 215.2 172 216 172.9 216.6C172.9 216.6 172.9 216.6 173 216.6C173.1 216.6 173.1 216.7 173.2 216.7C175 217.9 177.1 218.8 179.3 219.2C184.7 220.3 189 219.6 192.2 217.9C190.8 215.9 188.6 213.2 185.4 210.7Z" fill="#EE7E8B"/>
<path d="M183.301 210.499C183.901 210.599 184.701 210.699 185.401 210.699C189.201 211.099 194.201 211.199 195.701 208.399C196.001 207.899 196.101 207.299 196.101 206.599C195.201 206.699 194.201 206.799 193.201 206.699C181.701 206.399 174.401 196.699 168.301 199.599C167.301 200.099 166.601 200.899 166.601 200.899C166.001 201.699 165.701 202.799 165.601 203.899C167.801 205.299 169.901 206.399 171.901 207.199C176.501 209.399 180.401 210.099 183.301 210.499Z" fill="white"/>
</svg>
