<svg width="300" height="300" viewBox="0 0 300 300" fill="none" xmlns="http://www.w3.org/2000/svg">
<path fill-rule="evenodd" clip-rule="evenodd" d="M195.4 72.7009C213.8 81.1009 227 98.6009 229.6 118.701C231.2 131.411 229.561 144.121 227.913 156.901C227.707 158.5 227.5 160.1 227.3 161.701C226.494 167.63 226.318 173.592 226.142 179.549C226.012 183.941 225.882 188.33 225.5 192.701C224.7 201.701 222.4 208.101 216.7 215.301C207.9 226.301 195.2 234.201 181.3 236.701C179.1 237.101 176.9 237.301 174.7 237.301C174.666 237.301 174.633 237.302 174.599 237.302C174.595 238.616 174.573 239.935 174.552 241.255C174.504 244.235 174.456 247.217 174.6 250.146V249.8V248.4V248.2V247.9C174.95 248 175.3 248.125 175.65 248.25C176 248.375 176.35 248.5 176.7 248.6L176.701 248.6L176.702 248.601L176.702 248.601C178.801 249.4 180.901 250.2 183.1 251.1L183.18 251.233C192.258 255.031 202.229 260.423 212 268.2C216.9 272.1 221.2 276.1 224.8 280C202.8 292.7 177.3 300 150 300C110.7 300 74.9002 284.9 48.2002 260.2C54.7002 255 62.7002 249.7 72.4002 245C82.3438 240.248 91.668 237.277 99.555 235.474L99.7001 235.2C100.7 235 101.6 234.8 102.5 234.6C102.6 234.5 102.7 234.5 102.8 234.5C103.215 234.408 103.629 234.337 104.034 234.268L104.034 234.268L104.035 234.268C104.509 234.187 104.969 234.108 105.4 234V234.1C105.4 234.314 105.371 234.5 105.345 234.672C105.322 234.822 105.3 234.961 105.3 235.1V235.3C105.3 236.1 105.2 236.9 105.1 237.7L105.1 237.7C105.1 237.8 105.075 237.925 105.05 238.05C105.025 238.175 105 238.3 105 238.4C104.95 238.6 104.925 238.825 104.9 239.05C104.875 239.275 104.85 239.5 104.8 239.7C104.75 239.9 104.725 240.125 104.7 240.35C104.675 240.575 104.65 240.8 104.6 241C103.41 249.579 108.064 256.237 114.385 261.293C108.097 256.238 103.514 249.555 104.7 241.001C106.5 228.101 107.3 209.201 100.8 197.401C98.0335 192.337 93.8379 188.504 89.6359 184.665C84.8764 180.317 80.1086 175.962 77.4 169.801C74.5 163.301 72.6 152.301 78.3 146.801C80.9 144.401 84.2 143.701 85.2 143.501C85.2294 143.501 85.2588 143.499 85.2885 143.495C84.8026 134.773 85.0059 114.153 98.3002 95.6009C119.2 66.5009 162.1 57.5009 195.4 72.7009ZM96.2593 146.87C98.069 149.213 98.9172 152.287 99.5 155.201C99.5 155.301 99.525 155.376 99.55 155.451C99.575 155.526 99.6 155.601 99.6 155.701C99.7 155.801 99.7 156.001 99.7 156.101C99.7999 156.8 99.8999 157.4 99.9998 158L100 158.001C100.41 160.512 100.4 161.946 100.387 163.798C100.374 165.559 100.359 167.698 100.7 171.501C100.732 171.822 100.767 172.203 100.806 172.631C101.009 174.862 101.329 178.363 102 181.301C102.9 185.384 104.321 189.284 106.155 192.982C104.369 189.342 102.984 185.51 102.1 181.501C101.429 178.563 101.11 175.062 100.906 172.831C100.867 172.403 100.832 172.022 100.8 171.701C100.459 167.898 100.474 165.759 100.487 163.998C100.5 162.146 100.51 160.712 100.1 158.201C100.05 157.901 100 157.576 99.9502 157.251C99.9002 156.926 99.8502 156.601 99.8002 156.301C99.7002 156.201 99.7002 156.001 99.7002 155.901C99.7002 155.801 99.6752 155.726 99.6502 155.651C99.6252 155.576 99.6002 155.501 99.6002 155.401C99.0067 152.285 98.1381 149.169 96.2593 146.87ZM126.6 268.7C124.643 267.766 122.617 266.716 120.623 265.543C122.645 266.724 124.704 267.775 126.7 268.701C135.772 272.987 145.406 275.742 155.236 275.836C145.371 275.76 135.703 273.001 126.6 268.7ZM94.9913 251.261C94.9888 252.413 95.0579 253.562 95.2002 254.7C97.9002 276.3 124.2 285.6 142.7 288.5C148.1 289.4 153.5 289.7 159 289.6C163.9 289.5 168.8 289 173.4 287.4C180.2 285.1 186.5 279.8 188.7 272.8C189.236 271.065 189.468 269.39 189.464 267.763C189.462 269.365 189.229 271.008 188.7 272.7C186.5 279.8 180.2 285 173.4 287.3C168.8 288.9 163.9 289.4 159 289.5C153.6 289.6 148.1 289.3 142.7 288.4C124.3 285.5 97.9002 276.3 95.2001 254.6C95.0637 253.486 94.9945 252.371 94.9913 251.261Z" fill="#FEE4BF"/>
<path d="M136.6 224.2C131.8 221.3 127.1 217.8 122.7 213.9C125.1 218.4 129.1 224.1 135.2 229.3C150.6 242.4 168.8 242.7 174.6 242.5C174.6 240.7 174.7 238.9 174.7 237.1C161.1 237.3 147.9 231.1 136.6 224.2Z" fill="#E4C393"/>
<path d="M212.4 186.199C211 193.399 217.2 199.799 223.9 201.099C224.6 198.399 225.1 195.599 225.4 192.399C225.8 187.199 226 181.999 226.1 176.799C219.9 176.699 213.8 179.599 212.4 186.199Z" fill="#FBC4B9"/>
<path d="M130.5 185.5C130.9 192.9 138.8 197.6 145.7 197C152.4 196.5 159 190.3 158.7 183.4C158.7 182.7 158.6 182.1 158.4 181.4C155.1 167.2 129.7 171.1 130.5 185.5Z" fill="#FBC4B9"/>
<path d="M202.5 188.2C204 186.2 203 183.3 202.4 181.4C202.3 181.1 200.5 176.2 197.7 176.4C195.5 176.6 193.9 179.3 193.2 181.4C192.4 183.9 191.7 186.1 192.8 187.8C194.5 190.6 200.4 190.9 202.5 188.2Z" fill="#EFBDA5"/>
<path d="M216.3 158.4C217.4 158.3 218.5 158.5 219.5 159C222.6 160.5 223.8 163.5 222.5 166.7C221.6 169 219.7 171.1 217.2 171.4C215.4 171.6 213.6 171.1 212.1 170.2C208.8 168.1 209.6 163.5 211.8 160.9C212.2 160.5 212.6 160.1 213 159.7C214 158.9 215.2 158.4 216.3 158.4Z" fill="#2A1200"/>
<path d="M179 168.3C176.8 172.5 170.6 172.2 167 170.2C163.4 168.2 161.1 162.9 164.1 159.4C166.6 156.5 170.4 155.7 173.9 157.2C178.3 159 180.9 164.7 179 168.3Z" fill="#2A1200"/>
<path d="M214.9 140.699H214.8C214.2 140.399 215.2 139.599 215.4 139.499C216.1 139.099 216.9 138.899 217.6 138.699C219.5 138.299 221.8 138.399 223.4 139.599C225.6 141.099 226.5 144.099 226.4 144.199C226.4 144.199 226.3 144.199 226.2 144.099C226.2 144.099 225.5 142.999 224.4 142.099C221.9 140.099 217.9 140.299 214.9 140.699Z" fill="#2A1200"/>
<path d="M159.9 142.1C159.8 142.1 159.7 142.1 159.5 142.1C159.4 142 159.5 141.9 159.5 141.8C159.9 141.1 160.4 140.4 161 139.8C165.6 134.8 173.3 133.4 178.8 137.9C179.9 138.8 178.2 138.7 177.7 138.6C174.6 137.7 171.2 137.4 168 138C166.4 138.3 164.9 138.9 163.4 139.7C162.7 140.1 162 140.5 161.4 141C161 141.3 160.5 141.9 159.9 142.1Z" fill="#2A1200"/>
<path d="M199.1 206.4C198.5 206.5 197.8 206.6 197.1 206.7C197.1 207.3 197 207.9 196.7 208.5C195.3 211.2 190.3 211.1 186.4 210.8C189.6 213.3 191.7 216 193.2 218.1C194.8 217.3 196.1 216.3 197.2 215.2H197.1H197.2C199.2 213.1 200.6 210.7 201.1 208.6C201.4 207.3 200.3 206.1 199.1 206.4Z" fill="#873C41"/>
<path d="M186.4 210.7C185.6 210.6 184.9 210.5 184.3 210.5C181.4 210.2 177.5 209.4 172.9 207.4C170.9 206.5 168.8 205.5 166.6 204.1C166.4 207.3 168.3 211.4 170.8 214.1C171.9 215.2 173 216 173.9 216.6C173.9 216.6 173.9 216.6 174 216.6C174.1 216.6 174.1 216.7 174.2 216.7C176 217.9 178.1 218.8 180.3 219.2C185.7 220.3 190 219.6 193.2 217.9C191.8 215.9 189.6 213.2 186.4 210.7Z" fill="#EE7E8B"/>
<path d="M184.301 210.499C184.901 210.599 185.701 210.699 186.401 210.699C190.201 211.099 195.201 211.199 196.701 208.399C197.001 207.899 197.101 207.299 197.101 206.599C196.201 206.699 195.201 206.799 194.201 206.699C182.701 206.399 175.401 196.699 169.301 199.599C168.301 200.099 167.601 200.899 167.601 200.899C167.001 201.699 166.701 202.799 166.601 203.899C168.801 205.299 170.901 206.399 172.901 207.199C177.501 209.399 181.401 210.099 184.301 210.499Z" fill="white"/>
</svg>
